<svg width="28" height="28" viewBox="0 0 28 28" fill="none" xmlns="http://www.w3.org/2000/svg">
<g id="Frame" clip-path="url(#clip0_1128_8653)">
<path id="Vector" d="M10.4985 23.3345V14.0011H6.31486C6.08415 14.0011 5.85863 13.9326 5.66682 13.8044C5.47501 13.6762 5.32551 13.494 5.23723 13.2809C5.14895 13.0677 5.12585 12.8332 5.17084 12.6069C5.21584 12.3806 5.32691 12.1728 5.49002 12.0096L13.1737 4.32596C13.3925 4.10724 13.6892 3.98438 13.9985 3.98438C14.3079 3.98438 14.6046 4.10724 14.8234 4.32596L22.507 12.0096C22.6701 12.1728 22.7812 12.3806 22.8262 12.6069C22.8712 12.8332 22.8481 13.0677 22.7598 13.2809C22.6715 13.494 22.522 13.6762 22.3302 13.8044C22.1384 13.9326 21.9129 14.0011 21.6822 14.0011H17.4985V23.3345C17.4985 23.6439 17.3756 23.9406 17.1568 24.1594C16.938 24.3782 16.6413 24.5011 16.3319 24.5011H11.6652C11.3558 24.5011 11.059 24.3782 10.8402 24.1594C10.6214 23.9406 10.4985 23.6439 10.4985 23.3345Z" stroke="#0070F7" stroke-width="1.75" stroke-linecap="round" stroke-linejoin="round"/>
</g>
<defs>
<clipPath id="clip0_1128_8653">
<rect width="28" height="28" fill="white"/>
</clipPath>
</defs>
</svg>
