<svg width="28" height="28" viewBox="0 0 28 28" fill="none" xmlns="http://www.w3.org/2000/svg">
<g id="Frame" clip-path="url(#clip0_1128_8648)">
<path id="Vector" d="M7.7652 21.0025C4.76453 21.0025 2.33203 18.661 2.33203 15.7723C2.33203 12.8848 4.76453 10.5433 7.7652 10.5433C8.2237 8.48764 9.8582 6.80997 12.0527 6.14147C14.246 5.47414 16.668 5.9163 18.404 7.30814C20.14 8.69647 20.9264 10.8163 20.469 12.872H21.624C23.8559 12.872 25.6654 14.692 25.6654 16.939C25.6654 19.1871 23.8559 21.0071 21.6229 21.0071H7.7652" stroke="#0070F7" stroke-width="1.75" stroke-linecap="round" stroke-linejoin="round"/>
<path id="Vector (Stroke)" d="M7.7652 21.8785C7.73219 21.8785 7.69961 21.8766 7.66755 21.8731C4.25931 21.8227 1.45703 19.1395 1.45703 15.7686C1.45703 12.5901 3.95022 10.0226 7.09326 9.69905C7.18031 9.44199 7.28351 9.19159 7.40175 8.9489C8.24238 7.22346 9.8358 5.89843 11.7977 5.30078V21.8785H7.7652Z" fill="#0070F7"/>
<path id="Vector (Stroke)_2" d="M11.1209 7.8302C12.3056 7.12236 13.7711 6.85975 15.1884 7.11745C16.6052 7.37504 17.8176 8.1231 18.5805 9.15723C19.3389 10.1855 19.6002 11.4202 19.3358 12.598C19.2588 12.9412 19.3419 13.3007 19.5616 13.5753C19.7814 13.8499 20.1141 14.0097 20.4658 14.0097H21.621C22.3862 14.0097 23.1201 14.3137 23.6611 14.8548C24.2022 15.3959 24.5062 16.1297 24.5062 16.8949C24.5062 17.6601 24.2022 18.394 23.6611 18.9351C23.1201 19.4762 22.3862 19.7801 21.621 19.7801H7.75827C6.60783 19.7801 5.51428 19.3425 4.71577 18.5787C3.91904 17.8167 3.48154 16.7943 3.48154 15.7397C3.48154 14.6851 3.91904 13.6628 4.71577 12.9007C5.51428 12.1369 6.60783 11.6993 7.75827 11.6993C8.30014 11.6993 8.76956 11.3235 8.88824 10.7948C9.15362 9.61254 9.93896 8.53636 11.1209 7.8302ZM15.6028 4.83863C13.6499 4.48356 11.6128 4.8382 9.93288 5.84189C8.51341 6.68999 7.43288 7.95353 6.88003 9.43973C5.4692 9.62252 4.14358 10.2428 3.11478 11.2269C1.87308 12.4146 1.16536 14.0368 1.16536 15.7397C1.16536 17.4426 1.87308 19.0648 3.11478 20.2525C4.35474 21.4386 6.02594 22.0963 7.75827 22.0963H21.621C23.0005 22.0963 24.3235 21.5483 25.2989 20.5729C26.2744 19.5974 26.8224 18.2744 26.8224 16.8949C26.8224 15.5154 26.2744 14.1925 25.2989 13.217C24.3545 12.2725 23.0842 11.7288 21.7523 11.6952C21.752 10.3045 21.2987 8.94049 20.4444 7.78233C19.3055 6.23829 17.5561 5.19379 15.6028 4.83863Z" fill="#0070F7" stroke="white" stroke-width="0.583333" stroke-linecap="round" stroke-linejoin="round"/>
</g>
<defs>
<clipPath id="clip0_1128_8648">
<rect width="28" height="28" fill="white"/>
</clipPath>
</defs>
</svg>
