<svg style="display:none">
	<symbol id="MinusSign" viewBox="0 0 17 16" fill="none"
		xmlns="http://www.w3.org/2000/svg">
		<path fill-rule="evenodd" clip-rule="evenodd" d="M3.51562 7.9987C3.51562 7.63051 3.8141 7.33203 4.18229 7.33203H13.5156C13.8838 7.33203 14.1823 7.63051 14.1823 7.9987C14.1823 8.36689 13.8838 8.66536 13.5156 8.66536H4.18229C3.8141 8.66536 3.51562 8.36689 3.51562 7.9987Z" fill="currentColor" />
	</symbol>
	<symbol id="PlusSign" viewBox="0 0 17 16" fill="none"
		xmlns="http://www.w3.org/2000/svg">
		<path fill-rule="evenodd" clip-rule="evenodd" d="M8.84896 2.66797C9.21715 2.66797 9.51562 2.96645 9.51562 3.33464V7.33464H13.5156C13.8838 7.33464 14.1823 7.63311 14.1823 8.0013C14.1823 8.36949 13.8838 8.66797 13.5156 8.66797H9.51562V12.668C9.51562 13.0362 9.21715 13.3346 8.84896 13.3346C8.48077 13.3346 8.18229 13.0362 8.18229 12.668V8.66797H4.18229C3.8141 8.66797 3.51562 8.36949 3.51562 8.0013C3.51562 7.63311 3.8141 7.33464 4.18229 7.33464H8.18229V3.33464C8.18229 2.96645 8.48077 2.66797 8.84896 2.66797Z" fill="currentColor" />
	</symbol>
	<symbol id="ChevronRight" viewBox="0 0 8 13" fill="none"
		xmlns="http://www.w3.org/2000/svg">
		<path fill-rule="evenodd" clip-rule="evenodd" d="M0.90814 0.97064C1.23358 0.645203 1.76121 0.645203 2.08665 0.97064L7.08665 5.97064C7.41209 6.29608 7.41209 6.82372 7.08665 7.14915L2.08665 12.1492C1.76121 12.4746 1.23358 12.4746 0.90814 12.1492C0.582703 11.8237 0.582703 11.2961 0.90814 10.9706L5.31888 6.5599L0.90814 2.14915C0.582703 1.82371 0.582703 1.29608 0.90814 0.97064Z" fill="#0070F7" />
	</symbol>
	<symbol id="ChevronLeft" viewBox="0 0 8 13" fill="none"
		xmlns="http://www.w3.org/2000/svg">
		<path fill-rule="evenodd" clip-rule="evenodd" d="M7.09186 0.97064C6.76642 0.645203 6.23879 0.645203 5.91335 0.97064L0.913349 5.97064C0.587913 6.29608 0.587913 6.82372 0.913349 7.14915L5.91335 12.1492C6.23879 12.4746 6.76642 12.4746 7.09186 12.1492C7.4173 11.8237 7.4173 11.2961 7.09186 10.9706L2.68112 6.5599L7.09186 2.14915C7.4173 1.82371 7.4173 1.29608 7.09186 0.97064Z" fill="#0070F7" />
	</symbol>

	<symbol id="ChevronUp"
		xmlns="http://www.w3.org/2000/svg" viewBox="0 0 25 24" fill="currentColor">
		<path fill-rule="evenodd" clip-rule="evenodd" d="M11.7929 8.29289C12.1834 7.90237 12.8166 7.90237 13.2071 8.29289L19.2071 14.2929C19.5976 14.6834 19.5976 15.3166 19.2071 15.7071C18.8166 16.0976 18.1834 16.0976 17.7929 15.7071L12.5 10.4142L7.20711 15.7071C6.81658 16.0976 6.18342 16.0976 5.79289 15.7071C5.40237 15.3166 5.40237 14.6834 5.79289 14.2929L11.7929 8.29289Z" />
	</symbol>
	<symbol id="ChevronDown"
		xmlns="http://www.w3.org/2000/svg" viewBox="0 0 32 32" fill="currentColor">
		<path fill-rule="evenodd" clip-rule="evenodd" d="M7.05703 11.0572C7.57773 10.5365 8.42195 10.5365 8.94265 11.0572L15.9998 18.1144L23.057 11.0572C23.5777 10.5365 24.4219 10.5365 24.9426 11.0572C25.4633 11.5779 25.4633 12.4221 24.9426 12.9428L16.9426 20.9428C16.4219 21.4635 15.5777 21.4635 15.057 20.9428L7.05703 12.9428C6.53633 12.4221 6.53633 11.5779 7.05703 11.0572Z" />
	</symbol>
	<symbol xmlns="http://www.w3.org/2000/svg" id="ArrowRight" viewBox="0 0 20 20" fill="none">
		<path fill-rule="evenodd" clip-rule="evenodd" d="M10.2428 4.41009C10.5682 4.08466 11.0958 4.08466 11.4213 4.41009L16.4213 9.41009C16.7467 9.73553 16.7467 10.2632 16.4213 10.5886L11.4213 15.5886C11.0958 15.914 10.5682 15.914 10.2428 15.5886C9.91734 15.2632 9.91734 14.7355 10.2428 14.4101L13.8202 10.8327H4.16536C3.70513 10.8327 3.33203 10.4596 3.33203 9.99935C3.33203 9.53911 3.70513 9.16602 4.16536 9.16602H13.8202L10.2428 5.5886C9.91734 5.26317 9.91734 4.73553 10.2428 4.41009Z" fill="currentColor" />
	</symbol>
	<symbol id="QuestionMarkCircle"
		xmlns="http://www.w3.org/2000/svg" fill="none" viewBox="0 0 24 24" stroke="currentColor">
		<path stroke-linecap="round" stroke-linejoin="round" d="M9.879 7.519c1.171-1.025 3.071-1.025 4.242 0 1.172 1.025 1.172 2.687 0 3.712-.203.179-.43.326-.67.442-.745.361-1.45.999-1.45 1.827v.75M21 12a9 9 0 11-18 0 9 9 0 0118 0zm-9 5.25h.008v.008H12v-.008z" />
	</symbol>
	<symbol id="User" viewBox="0 0 20 20" fill="none"
		xmlns="http://www.w3.org/2000/svg">
		<path fill-rule="evenodd" clip-rule="evenodd" d="M10.0003 3.33366C8.61961 3.33366 7.50033 4.45295 7.50033 5.83366C7.50033 7.21437 8.61961 8.33366 10.0003 8.33366C11.381 8.33366 12.5003 7.21437 12.5003 5.83366C12.5003 4.45295 11.381 3.33366 10.0003 3.33366ZM5.83366 5.83366C5.83366 3.53247 7.69914 1.66699 10.0003 1.66699C12.3015 1.66699 14.167 3.53247 14.167 5.83366C14.167 8.13484 12.3015 10.0003 10.0003 10.0003C7.69914 10.0003 5.83366 8.13484 5.83366 5.83366ZM8.33366 13.3337C7.67062 13.3337 7.03473 13.597 6.56589 14.0659C6.09705 14.5347 5.83366 15.1706 5.83366 15.8337V17.5003C5.83366 17.9606 5.46056 18.3337 5.00033 18.3337C4.54009 18.3337 4.16699 17.9606 4.16699 17.5003V15.8337C4.16699 14.7286 4.60598 13.6688 5.38738 12.8874C6.16878 12.106 7.22859 11.667 8.33366 11.667H11.667C12.7721 11.667 13.8319 12.106 14.6133 12.8874C15.3947 13.6688 15.8337 14.7286 15.8337 15.8337V17.5003C15.8337 17.9606 15.4606 18.3337 15.0003 18.3337C14.5401 18.3337 14.167 17.9606 14.167 17.5003V15.8337C14.167 15.1706 13.9036 14.5347 13.4348 14.0659C12.9659 13.597 12.33 13.3337 11.667 13.3337H8.33366Z" fill="currentColor" />
	</symbol>
	<symbol xmlns="http://www.w3.org/2000/svg" id="ShoppingCart" viewBox="0 0 24 25" fill="none">
		<path fill-rule="evenodd" clip-rule="evenodd" d="M12.0013 4.25C11.4045 4.25 10.8322 4.48705 10.4103 4.90901C9.98831 5.33097 9.75126 5.90326 9.75126 6.5V7.75H14.2513V6.5C14.2513 5.90326 14.0142 5.33097 13.5922 4.90901C13.1703 4.48705 12.598 4.25 12.0013 4.25ZM15.7513 7.75V6.5C15.7513 5.50544 15.3562 4.55161 14.6529 3.84835C13.9496 3.14509 12.9958 2.75 12.0013 2.75C11.0067 2.75 10.0529 3.14509 9.34961 3.84835C8.64635 4.55161 8.25126 5.50544 8.25126 6.5V7.75H6.33235M8.25126 9.25H6.33226C6.15203 9.24998 5.97383 9.28893 5.81007 9.36419C5.6463 9.43944 5.50075 9.54922 5.38338 9.686C5.26602 9.82278 5.17962 9.98332 5.13011 10.1566C5.08061 10.3299 5.06915 10.5118 5.09652 10.6899C5.09652 10.6898 5.09653 10.6899 5.09652 10.6899L6.35152 18.8419C6.43322 19.3731 6.70238 19.8576 7.11026 20.2076C7.51814 20.5576 8.03782 20.75 8.57526 20.75C8.57525 20.75 8.57527 20.75 8.57526 20.75H15.4273C15.9648 20.7502 16.4849 20.5578 16.893 20.2078C17.301 19.8579 17.5703 19.3733 17.652 18.842L18.907 10.69C18.907 10.69 18.907 10.69 18.907 10.69C18.9343 10.5119 18.9229 10.3299 18.8734 10.1566C18.8239 9.98332 18.7375 9.82278 18.6201 9.686C18.5028 9.54922 18.3572 9.43944 18.1934 9.36419C18.0297 9.28893 17.8516 9.24998 17.6713 9.25H15.7513V11.5C15.7513 11.9142 15.4155 12.25 15.0013 12.25C14.587 12.25 14.2513 11.9142 14.2513 11.5V9.25H9.75126V11.5C9.75126 11.9142 9.41547 12.25 9.00126 12.25C8.58704 12.25 8.25126 11.9142 8.25126 11.5V9.25ZM15.7513 7.75H17.6712C17.6711 7.75 17.6712 7.75 17.6712 7.75C18.0676 7.74997 18.4595 7.83566 18.8198 8.00121C19.1801 8.16678 19.5003 8.40829 19.7585 8.7092C20.0167 9.01012 20.2068 9.36331 20.3157 9.74455C20.4246 10.1258 20.4498 10.5261 20.3895 10.918L19.1345 19.07C19.1345 19.07 19.1345 19.07 19.1345 19.07C18.9983 19.9555 18.5496 20.7631 17.8695 21.3464C17.1895 21.9297 16.3231 22.2502 15.4273 22.25C15.4272 22.25 15.4273 22.25 15.4273 22.25H8.57526C7.67951 22.25 6.81332 21.9293 6.13351 21.346C5.45372 20.7627 5.00517 19.9554 4.86899 19.0701C4.86898 19.0701 4.869 19.0702 4.86899 19.0701L3.61399 10.9181C3.55372 10.5262 3.57889 10.1258 3.68782 9.74455C3.79674 9.3633 3.98682 9.01012 4.24502 8.7092C4.50323 8.40829 4.82345 8.16678 5.18373 8.00121C5.54399 7.83566 5.93587 7.74997 6.33235 7.75" fill="currentColor" />
	</symbol>
	<symbol id="Bars3"
		xmlns="http://www.w3.org/2000/svg" viewBox="0 0 20 20" stroke="currentColor" fill="none">
		<path fill-rule="evenodd" clip-rule="evenodd" d="M2.5 5.00033C2.5 4.54009 2.8731 4.16699 3.33333 4.16699H16.6667C17.1269 4.16699 17.5 4.54009 17.5 5.00033C17.5 5.46056 17.1269 5.83366 16.6667 5.83366H3.33333C2.8731 5.83366 2.5 5.46056 2.5 5.00033ZM2.5 10.0003C2.5 9.54009 2.8731 9.16699 3.33333 9.16699H16.6667C17.1269 9.16699 17.5 9.54009 17.5 10.0003C17.5 10.4606 17.1269 10.8337 16.6667 10.8337H3.33333C2.8731 10.8337 2.5 10.4606 2.5 10.0003ZM2.5 15.0003C2.5 14.5401 2.8731 14.167 3.33333 14.167H16.6667C17.1269 14.167 17.5 14.5401 17.5 15.0003C17.5 15.4606 17.1269 15.8337 16.6667 15.8337H3.33333C2.8731 15.8337 2.5 15.4606 2.5 15.0003Z" fill="currentColor" />
	</symbol>
	<symbol id="Heart"
		xmlns="http://www.w3.org/2000/svg" viewBox="0 0 24 24" stroke="currentColor">
		<path stroke-linecap="round" stroke-linejoin="round" d="M21 8.25c0-2.485-2.099-4.5-4.688-4.5-1.935 0-3.597 1.126-4.312 2.733-.715-1.607-2.377-2.733-4.313-2.733C5.1 3.75 3 5.765 3 8.25c0 7.22 9 12 9 12s9-4.78 9-12z" />
	</symbol>
	<symbol id="MagnifyingGlass" viewBox="0 0 20 20" fill="none"
		xmlns="http://www.w3.org/2000/svg">
		<path fill-rule="evenodd" clip-rule="evenodd" d="M8.33366 3.33366C5.57223 3.33366 3.33366 5.57223 3.33366 8.33366C3.33366 11.0951 5.57223 13.3337 8.33366 13.3337C11.0951 13.3337 13.3337 11.0951 13.3337 8.33366C13.3337 5.57223 11.0951 3.33366 8.33366 3.33366ZM1.66699 8.33366C1.66699 4.65176 4.65176 1.66699 8.33366 1.66699C12.0156 1.66699 15.0003 4.65176 15.0003 8.33366C15.0003 9.87425 14.4778 11.2928 13.6002 12.4217L18.0896 16.9111C18.415 17.2365 18.415 17.7641 18.0896 18.0896C17.7641 18.415 17.2365 18.415 16.9111 18.0896L12.4217 13.6002C11.2928 14.4778 9.87425 15.0003 8.33366 15.0003C4.65176 15.0003 1.66699 12.0156 1.66699 8.33366Z" fill="currentColor" />
	</symbol>

	<symbol id="XMark" viewBox="0 0 20 20" fill="none"
		xmlns="http://www.w3.org/2000/svg">
		<path fill-rule="evenodd" clip-rule="evenodd" d="M4.41205 4.41205C4.73748 4.08661 5.26512 4.08661 5.59056 4.41205L10.0013 8.82279L14.412 4.41205C14.7375 4.08661 15.2651 4.08661 15.5906 4.41205C15.916 4.73748 15.916 5.26512 15.5906 5.59056L11.1798 10.0013L15.5906 14.412C15.916 14.7375 15.916 15.2651 15.5906 15.5906C15.2651 15.916 14.7375 15.916 14.412 15.5906L10.0013 11.1798L5.59056 15.5906C5.26512 15.916 4.73748 15.916 4.41205 15.5906C4.08661 15.2651 4.08661 14.7375 4.41205 14.412L8.82279 10.0013L4.41205 5.59056C4.08661 5.26512 4.08661 4.73748 4.41205 4.41205Z" fill="currentColor"/>
	</symbol>

	<symbol id="MapPin"
		xmlns="http://www.w3.org/2000/svg" fill="none" viewBox="0 0 24 24" stroke="currentColor">
		<path stroke-linecap="round" stroke-linejoin="round" d="M15 10.5a3 3 0 11-6 0 3 3 0 016 0z" />
		<path stroke-linecap="round" stroke-linejoin="round" d="M19.5 10.5c0 7.142-7.5 11.25-7.5 11.25S4.5 17.642 4.5 10.5a7.5 7.5 0 1115 0z" />
	</symbol>
	<symbol id="Phone"
		xmlns="http://www.w3.org/2000/svg" fill="currentColor" viewBox="0 0 32 32">
		<path fill-rule="evenodd" clip-rule="evenodd" d="M6.66669 6.66667C6.31306 6.66667 5.97393 6.80714 5.72388 7.05719C5.4819 7.29917 5.34253 7.62459 5.33379 7.96582C5.64045 12.8244 7.70881 17.405 11.1519 20.8481C14.5951 24.2912 19.1756 26.3596 24.0342 26.6662C24.3754 26.6575 24.7008 26.5181 24.9428 26.2761C25.1929 26.0261 25.3334 25.687 25.3334 25.3333V20.9027L20.5591 18.993L19.1433 21.3527C18.7863 21.9477 18.0326 22.1694 17.4103 21.8625C14.2517 20.3047 11.6953 17.7483 10.1375 14.5898C9.83061 13.9674 10.0523 13.2137 10.6474 12.8567L13.007 11.4409L11.0973 6.66667H6.66669ZM3.83826 5.17157C4.58841 4.42143 5.60582 4 6.66669 4H12C12.5452 4 13.0355 4.33193 13.238 4.83815L15.9047 11.5048C16.1477 12.1124 15.9138 12.8066 15.3527 13.1433L13.1207 14.4825C14.2192 16.274 15.726 17.7809 17.5175 18.8793L18.8567 16.6473C19.1934 16.0862 19.8876 15.8523 20.4952 16.0954L27.1619 18.762C27.6681 18.9645 28 19.4548 28 20V25.3333C28 26.3942 27.5786 27.4116 26.8284 28.1618C26.0783 28.9119 25.0609 29.3333 24 29.3333C23.973 29.3333 23.9461 29.3325 23.9191 29.3309C18.3931 28.9951 13.181 26.6484 9.26632 22.7337C5.35161 18.819 3.00496 13.6069 2.66914 8.08088C2.66751 8.05395 2.66669 8.02698 2.66669 8C2.66669 6.93913 3.08811 5.92172 3.83826 5.17157Z" />
	</symbol>
	<symbol id="Elos"
		xmlns="http://www.w3.org/2000/svg" viewBox="0 0 40 14" stroke="currentColor" fill="none">
		<path d="M6.57655 3.09309C6.98496 2.95495 7.4234 2.88288 7.87985 2.88288C9.87385 2.88288 11.5375 4.3003 11.9159 6.18018L14.7387 5.6036C14.0901 2.40841 11.2672 0 7.87985 0C7.10508 0 6.36033 0.126126 5.66364 0.36036L6.57655 3.09309Z" fill="currentColor" />
		<path d="M3.24323 12.2463L5.15314 10.0841C4.30029 9.32733 3.76576 8.22823 3.76576 6.997C3.76576 5.77178 4.30029 4.66667 5.15314 3.91592L3.24323 1.75977C1.79579 3.04505 0.882874 4.91292 0.882874 7.00301C0.882874 9.08709 1.79579 10.961 3.24323 12.2463Z" fill="currentColor" />
		<path d="M11.9159 7.82617C11.5315 9.70605 9.87387 11.1175 7.87988 11.1175C7.42342 11.1175 6.98498 11.0454 6.57057 10.9073L5.65765 13.64C6.35435 13.8742 7.1051 14.0003 7.87988 14.0003C11.2673 14.0003 14.0901 11.5979 14.7387 8.40275L11.9159 7.82617Z" fill="currentColor" />
		<path d="M24.1441 9.75962C23.6757 10.2161 23.045 10.4924 22.3484 10.4803C21.8679 10.4743 21.4234 10.3302 21.0511 10.0899L20.1141 11.5794C20.7568 11.9818 21.5075 12.2221 22.3243 12.2341C23.5075 12.2521 24.5886 11.7836 25.3754 11.0209L24.1441 9.75962ZM22.4505 3.68755C20.0961 3.65151 18.1502 5.5374 18.1141 7.89175C18.1021 8.77463 18.3544 9.60346 18.8048 10.2881L26.5405 6.97884C26.1081 5.12298 24.4505 3.72358 22.4505 3.68755ZM19.8859 8.22809C19.8739 8.13199 19.8679 8.02989 19.8679 7.92779C19.8919 6.5404 21.033 5.42929 22.4204 5.45331C23.1772 5.46532 23.8499 5.80767 24.3003 6.34821L19.8859 8.22809ZM28.973 1.76562V10.0119L30.4024 10.6065L29.7237 12.2341L28.3063 11.6455C27.988 11.5074 27.7718 11.2972 27.6096 11.0569C27.4535 10.8167 27.3333 10.4803 27.3333 10.0359V1.76562H28.973Z" fill="currentColor" />
		<path d="M34.1321 5.57925C34.3844 5.49516 34.6487 5.45312 34.9309 5.45312C36.1502 5.45312 37.1592 6.31798 37.3934 7.46513L39.1171 7.11078C38.7207 5.15882 36.997 3.69336 34.9309 3.69336C34.4565 3.69336 34 3.77144 33.5796 3.90958L34.1321 5.57925ZM32.0961 11.1588L33.2613 9.84351C32.7387 9.38105 32.4144 8.70837 32.4144 7.95762C32.4144 7.20687 32.7448 6.5342 33.2613 6.07774L32.0961 4.76243C31.2132 5.54321 30.6547 6.69036 30.6547 7.96363C30.6547 9.2369 31.2132 10.378 32.0961 11.1588ZM37.3934 8.46813C37.1592 9.61528 36.1442 10.4801 34.9309 10.4801C34.6547 10.4801 34.3844 10.4321 34.1321 10.348L33.5736 12.0177C34 12.1618 34.4565 12.2399 34.9309 12.2399C36.997 12.2399 38.7207 10.7744 39.1171 8.82249L37.3934 8.46813Z" fill="currentColor" />
	</symbol>
	<symbol id="Mastercards"
		xmlns="http://www.w3.org/2000/svg" viewBox="0 0 26 20" fill="none" stroke="currentColor">
		<g clip-path="url(#clip0_81_156)">
			<path d="M4.77191 19.9552V18.6263C4.77191 18.1167 4.46174 17.7846 3.95265 17.7846C3.68527 17.7846 3.39918 17.8734 3.19971 18.159C3.04463 17.9151 2.82538 17.7846 2.49116 17.7846C2.36689 17.7793 2.24323 17.8048 2.13124 17.8589C2.01926 17.913 1.92244 17.9941 1.84944 18.0948V17.8274H1.42859V19.9536H1.84944V18.737C1.84944 18.3627 2.07083 18.1836 2.381 18.1836C2.69116 18.1836 2.86816 18.383 2.86816 18.737V19.9552H3.28902V18.737C3.28902 18.3627 3.51041 18.1836 3.82057 18.1836C4.13073 18.1836 4.30773 18.383 4.30773 18.737V19.9552H4.77191ZM11.6821 17.8509H10.9067V17.2092H10.4869V17.8509H10.0441V18.2253H10.4869V19.2242C10.4869 19.7114 10.6639 19.9996 11.1954 19.9996C11.3968 19.9954 11.5941 19.9422 11.7703 19.8445L11.6371 19.4702C11.5177 19.5449 11.3791 19.5833 11.2382 19.5809C11.0168 19.5809 10.9061 19.4477 10.9061 19.2263V18.2082H11.6815V17.8536L11.6821 17.8509ZM15.6243 17.7846C15.5097 17.7821 15.3964 17.8093 15.2954 17.8637C15.1945 17.918 15.1093 17.9977 15.0484 18.0948V17.8274H14.6275V19.9536H15.0484V18.7595C15.0484 18.405 15.2254 18.1836 15.5136 18.1836C15.6109 18.1875 15.7074 18.2024 15.8013 18.2279L15.9345 17.829C15.8329 17.8034 15.729 17.7885 15.6243 17.7846ZM9.66656 18.006C9.44517 17.8509 9.13501 17.7846 8.80292 17.7846C8.27137 17.7846 7.93928 18.0285 7.93928 18.4493C7.93928 18.8039 8.18314 19.0028 8.64784 19.0697L8.86923 19.0916C9.11308 19.136 9.26816 19.2247 9.26816 19.3354C9.26816 19.4905 9.09116 19.6028 8.75854 19.6028C8.50456 19.608 8.2558 19.5303 8.04998 19.3814L7.82859 19.7135C8.13875 19.9349 8.51522 19.9809 8.73768 19.9809C9.358 19.9809 9.69009 19.6932 9.69009 19.2943C9.69009 18.9199 9.42271 18.7408 8.95907 18.6739L8.73768 18.652C8.53822 18.6301 8.36335 18.5632 8.36335 18.4306C8.36335 18.2755 8.54036 18.1632 8.78421 18.1632C9.05159 18.1632 9.31576 18.2739 9.44891 18.3402L9.66656 18.006ZM16.0896 18.8921C16.0896 19.5338 16.5104 19.9996 17.197 19.9996C17.5072 19.9996 17.7286 19.9333 17.95 19.7558L17.7286 19.4237C17.5718 19.5506 17.3768 19.6209 17.1751 19.6231C16.8008 19.6231 16.5104 19.3354 16.5104 18.9146C16.5104 18.4937 16.797 18.2082 17.1751 18.2082C17.3768 18.2104 17.5718 18.2807 17.7286 18.4076L17.95 18.0755C17.7286 17.8985 17.5072 17.8317 17.197 17.8317C16.5323 17.7873 16.0896 18.2525 16.0896 18.8948V18.8921ZM13.1216 17.7846C12.5013 17.7846 12.0805 18.2274 12.0805 18.8921C12.0805 19.5568 12.5232 19.9996 13.1655 19.9996C13.4779 20.0062 13.7831 19.9046 14.0291 19.7119L13.8077 19.4017C13.6298 19.5396 13.4125 19.6172 13.1874 19.6231C12.8997 19.6231 12.5896 19.4461 12.5457 19.0697H14.1184V18.8927C14.1184 18.2279 13.7195 17.7852 13.1216 17.7852V17.7846ZM13.0997 18.1836C13.4099 18.1836 13.6313 18.383 13.6532 18.7151H12.5019C12.5682 18.405 12.7692 18.1836 13.0997 18.1836ZM7.36335 18.8921V17.829H6.94249V18.0964C6.78741 17.8969 6.56816 17.7862 6.25586 17.7862C5.658 17.7862 5.21469 18.2515 5.21469 18.8937C5.21469 19.536 5.65747 20.0012 6.25586 20.0012C6.56602 20.0012 6.78741 19.8905 6.94249 19.691V19.9584H7.36335V18.8921ZM5.658 18.8921C5.658 18.4932 5.90185 18.1836 6.32271 18.1836C6.72164 18.1836 6.96442 18.4937 6.96442 18.8921C6.96442 19.313 6.69704 19.6007 6.32271 19.6007C5.90185 19.6226 5.658 19.2905 5.658 18.8921ZM22.0259 17.7846C21.9113 17.7821 21.798 17.8093 21.697 17.8637C21.5961 17.918 21.5109 17.9977 21.45 18.0948V17.8274H21.0291V19.9536H21.4495V18.7595C21.4495 18.405 21.6265 18.1836 21.9147 18.1836C22.012 18.1875 22.1085 18.2024 22.2024 18.2279L22.3355 17.829C22.234 17.8034 22.13 17.7885 22.0254 17.7846H22.0259ZM20.3869 18.8921V17.829H19.966V18.0964C19.8109 17.8969 19.5917 17.7862 19.2794 17.7862C18.6815 17.7862 18.2382 18.2515 18.2382 18.8937C18.2382 19.536 18.681 20.0012 19.2794 20.0012C19.5896 20.0012 19.8109 19.8905 19.966 19.691V19.9584H20.3869V18.8921ZM18.6815 18.8921C18.6815 18.4932 18.9254 18.1836 19.3462 18.1836C19.7452 18.1836 19.988 18.4937 19.988 18.8921C19.988 19.313 19.7206 19.6007 19.3462 19.6007C18.9254 19.6226 18.6815 19.2905 18.6815 18.8921ZM24.6618 18.8921V16.9873H24.2409V18.0948C24.0858 17.8953 23.8666 17.7846 23.5543 17.7846C22.9564 17.7846 22.5131 18.2499 22.5131 18.8921C22.5131 19.5344 22.9559 19.9996 23.5543 19.9996C23.8644 19.9996 24.0858 19.8889 24.2409 19.6894V19.9568H24.6618V18.8921ZM22.9564 18.8921C22.9564 18.4932 23.2003 18.1836 23.6211 18.1836C24.02 18.1836 24.2628 18.4937 24.2628 18.8921C24.2628 19.313 23.9954 19.6007 23.6211 19.6007C23.1997 19.6231 22.9559 19.291 22.9559 18.8921H22.9564Z" fill="currentColor" />
			<path d="M9.95478 7.97327C9.95505 6.76731 10.2281 5.57704 10.7536 4.49159C11.279 3.40613 12.0433 2.45361 12.989 1.70535C11.8128 0.780601 10.4002 0.205442 8.9126 0.045623C7.42499 -0.114196 5.92242 0.147775 4.57667 0.801588C3.23091 1.4554 2.09627 2.47468 1.30244 3.74289C0.508619 5.01111 0.0876465 6.47709 0.0876465 7.97327C0.0876465 9.46944 0.508619 10.9354 1.30244 12.2036C2.09627 13.4719 3.23091 14.4911 4.57667 15.1449C5.92242 15.7988 7.42499 16.0607 8.9126 15.9009C10.4002 15.7411 11.8128 15.1659 12.989 14.2412C12.0433 13.4929 11.279 12.5404 10.7536 11.4549C10.2281 10.3695 9.95505 9.17922 9.95478 7.97327Z" fill="currentColor" />
			<path d="M25.9019 7.97297C25.9029 9.46805 25.4832 10.9333 24.6907 12.201C23.8982 13.4688 22.7648 14.4879 21.4203 15.1418C20.0758 15.7957 18.5744 16.0579 17.0879 15.8986C15.6013 15.7393 14.1896 15.1648 13.0142 14.2409C13.9601 13.4928 14.7245 12.5403 15.25 11.4548C15.7755 10.3693 16.0485 9.17898 16.0485 7.97297C16.0485 6.76696 15.7755 5.5766 15.25 4.4911C14.7245 3.4056 13.9601 2.45312 13.0142 1.70506C14.1896 0.781104 15.6013 0.20662 17.0879 0.0473072C18.5744 -0.112005 20.0758 0.150287 21.4203 0.804186C22.7648 1.45808 23.8982 2.47719 24.6907 3.74493C25.4832 5.01268 25.9029 6.47789 25.9019 7.97297Z" fill="currentColor" fill-opacity="0.4" />
			<path fill-rule="evenodd" clip-rule="evenodd" d="M13.0141 1.70508H12.989C12.0432 2.45333 11.279 3.40585 10.7536 4.49131C10.2281 5.57677 9.95504 6.76704 9.95477 7.97299C9.95504 9.17894 10.2281 10.3692 10.7536 11.4547C11.279 12.5401 12.0433 13.4926 12.989 14.2409H13.0141C13.0141 14.2409 13.0141 14.2409 13.0141 14.2409C13.9601 13.4928 14.7245 12.5404 15.25 11.4549C15.7755 10.3694 16.0484 9.17899 16.0484 7.97299C16.0484 6.76698 15.7755 5.57661 15.25 4.49111C14.7245 3.40561 13.9601 2.45314 13.0141 1.70508Z" fill="currentColor" fill-opacity="0.6" />
		</g>
		<defs>
			<clipPath id="clip0_81_156">
				<rect width="25.8027" height="20" fill="white" transform="translate(0.0986328)" />
			</clipPath>
		</defs>
	</symbol>
	<symbol id="Visas"
		xmlns="http://www.w3.org/2000/svg" viewBox="0 0 40 12" fill="none" stroke="currentColor">
		<path d="M14.2514 11.8628L16.2325 0.237305H19.4012L17.4187 11.8628H14.2514Z" fill="currentColor" />
		<path d="M28.8667 0.488266C28.2389 0.252744 27.2552 0 26.0267 0C22.8956 0 20.6902 1.57674 20.6714 3.83653C20.6537 5.50698 22.2459 6.43886 23.4479 6.99494C24.6813 7.56486 25.0959 7.92824 25.09 8.437C25.0821 9.21631 24.105 9.57221 23.1942 9.57221C21.926 9.57221 21.2522 9.39601 20.2115 8.96208L19.8031 8.77728L19.3585 11.3797C20.0986 11.7043 21.4671 11.9854 22.8882 12C26.2191 12 28.3815 10.4413 28.4061 8.02807C28.4179 6.70556 27.5737 5.69921 25.7455 4.86948C24.638 4.33169 23.9597 3.97282 23.9669 3.42826C23.9669 2.94504 24.541 2.42833 25.7816 2.42833C26.8177 2.41223 27.5684 2.6382 28.1533 2.87372L28.4372 3.00787L28.8667 0.488266Z" fill="currentColor" />
		<path d="M37.0208 0.237305H34.5723C33.8138 0.237305 33.2461 0.444322 32.913 1.20137L28.2071 11.8552H31.5345C31.5345 11.8552 32.0785 10.4228 32.2015 10.1082C32.5651 10.1082 35.7976 10.1132 36.2597 10.1132C36.3545 10.5202 36.6452 11.8552 36.6452 11.8552H39.5855L37.0208 0.237305ZM33.136 7.74409C33.3981 7.07428 34.3985 4.49428 34.3985 4.49428C34.3798 4.52522 34.6587 3.82121 34.8186 3.38473L35.0328 4.38703C35.0328 4.38703 35.6395 7.16205 35.7663 7.74391H33.136V7.74409Z" fill="currentColor" />
		<path d="M0.45503 0.237305L0.414551 0.479138C1.66716 0.782359 2.78593 1.22123 3.76542 1.76717L6.57706 11.8441L9.92966 11.8404L14.9183 0.237305H11.5615L8.45929 8.16502L8.12885 6.55384C8.11337 6.50406 8.09654 6.4542 8.07932 6.40422L7.00087 1.21879C6.80912 0.482646 6.25282 0.262959 5.56461 0.237305H0.45503Z" fill="currentColor" />
	</symbol>
	<symbol id="Pixs" viewBox="0 0 512 512"
		xmlns="http://www.w3.org/2000/svg" fill="none" stroke="currentColor">
		<defs />
		<g fill="currentColor" fill-rule="evenodd">
			<path d="M393.072 391.897c-20.082 0-38.969-7.81-53.176-22.02l-77.069-77.067c-5.375-5.375-14.773-5.395-20.17 0l-76.784 76.786c-14.209 14.207-33.095 22.019-53.179 22.019h-9.247l97.521 97.52c30.375 30.375 79.614 30.375 109.988 0l97.239-97.238h-15.123zm-105.049 74.327c-8.55 8.53-19.93 13.25-32.05 13.25h-.02c-12.12 0-23.522-4.721-32.05-13.25l-56.855-56.855c7.875-4.613 15.165-10.248 21.758-16.84l63.948-63.948 64.23 64.23c7.637 7.66 16.188 14.013 25.478 18.952l-54.439 54.46zM310.958 22.78c-30.374-30.374-79.613-30.374-109.988 0l-97.52 97.52h9.247c20.082 0 38.97 7.834 53.178 22.02l76.784 76.785c5.57 5.592 14.622 5.57 20.17 0l77.069-77.068c14.207-14.187 33.094-22.02 53.176-22.02h15.123l-97.239-97.237zm6.028 96.346l-64.23 64.23-63.97-63.97c-6.593-6.592-13.86-12.206-21.736-16.818l56.853-56.877c17.69-17.645 46.476-17.668 64.121 0l54.44 54.461c-9.292 4.961-17.842 11.315-25.479 18.974h.001z" />
			<path d="M489.149 200.97l-58.379-58.377h-37.706c-13.838 0-27.394 5.635-37.185 15.426l-77.068 77.069c-7.202 7.18-16.623 10.77-26.067 10.77-9.443 0-18.885-3.59-26.066-10.77l-76.785-76.785c-9.792-9.814-23.346-15.427-37.207-15.427h-31.81L22.78 200.97c-30.374 30.375-30.374 79.614 0 109.988l58.095 58.074 31.81.021c13.86 0 27.416-5.635 37.208-15.426l76.784-76.764c13.925-13.947 38.208-13.924 52.133-.02l77.068 77.066c9.791 9.792 23.346 15.405 37.185 15.405h37.706l58.379-58.356c30.374-30.374 30.374-79.613 0-109.988zm-362.19 129.724c-3.763 3.786-8.942 5.917-14.273 5.917H94.302l-48.59-48.564c-17.689-17.69-17.689-46.476 0-64.143L94.3 175.296h18.385c5.331 0 10.51 2.154 14.295 5.918l74.74 74.74-74.761 74.74zm339.257-42.647l-48.848 48.87h-24.305c-5.309 0-10.508-2.155-14.251-5.92l-75.023-75.043 75.023-75.023c3.743-3.764 8.942-5.918 14.252-5.918h24.304l48.847 48.891c8.573 8.551 13.273 19.93 13.273 32.05 0 12.141-4.7 23.52-13.273 32.093z" />
		</g>
	</symbol>
	<symbol id="Instagram"
		xmlns="http://www.w3.org/2000/svg" viewBox="0 0 32 32" fill="currentColor" stroke-linecap="round" stroke-linejoin="round">
		<path fill-rule="evenodd" clip-rule="evenodd" d="M10.6667 6.66667C9.6058 6.66667 8.58838 7.08809 7.83824 7.83824C7.08809 8.58838 6.66667 9.6058 6.66667 10.6667V21.3333C6.66667 22.3942 7.08809 23.4116 7.83824 24.1618C8.58839 24.9119 9.6058 25.3333 10.6667 25.3333H21.3333C22.3942 25.3333 23.4116 24.9119 24.1618 24.1618C24.9119 23.4116 25.3333 22.3942 25.3333 21.3333V10.6667C25.3333 9.6058 24.9119 8.58839 24.1618 7.83824C23.4116 7.08809 22.3942 6.66667 21.3333 6.66667H10.6667ZM5.95262 5.95262C7.20286 4.70238 8.89856 4 10.6667 4H21.3333C23.1014 4 24.7971 4.70238 26.0474 5.95262C27.2976 7.20286 28 8.89856 28 10.6667V21.3333C28 23.1014 27.2976 24.7971 26.0474 26.0474C24.7971 27.2976 23.1014 28 21.3333 28H10.6667C8.89856 28 7.20286 27.2976 5.95262 26.0474C4.70238 24.7971 4 23.1014 4 21.3333V10.6667C4 8.89856 4.70238 7.20286 5.95262 5.95262Z" />
		<path fill-rule="evenodd" clip-rule="evenodd" d="M12.2288 12.2286C13.229 11.2284 14.5856 10.6665 16.0001 10.6665C17.4146 10.6665 18.7711 11.2284 19.7713 12.2286C20.7715 13.2288 21.3334 14.5854 21.3334 15.9998C21.3334 17.4143 20.7715 18.7709 19.7713 19.7711C18.7711 20.7713 17.4146 21.3332 16.0001 21.3332C14.5856 21.3332 13.229 20.7713 12.2288 19.7711C11.2287 18.7709 10.6667 17.4143 10.6667 15.9998C10.6667 14.5854 11.2287 13.2288 12.2288 12.2286ZM16.0001 13.3332C15.2928 13.3332 14.6146 13.6141 14.1145 14.1142C13.6144 14.6143 13.3334 15.2926 13.3334 15.9998C13.3334 16.7071 13.6144 17.3854 14.1145 17.8855C14.6146 18.3856 15.2928 18.6665 16.0001 18.6665C16.7073 18.6665 17.3856 18.3856 17.8857 17.8855C18.3858 17.3854 18.6667 16.7071 18.6667 15.9998C18.6667 15.2926 18.3858 14.6143 17.8857 14.1142C17.3856 13.6141 16.7073 13.3332 16.0001 13.3332Z" />
		<path fill-rule="evenodd" clip-rule="evenodd" d="M22.0001 8.6665C22.7365 8.6665 23.3334 9.26346 23.3334 9.99984V10.0132C23.3334 10.7496 22.7365 11.3465 22.0001 11.3465C21.2637 11.3465 20.6667 10.7496 20.6667 10.0132V9.99984C20.6667 9.26346 21.2637 8.6665 22.0001 8.6665Z" />
	</symbol>
	<symbol id="Truck" viewBox="0 0 40 40"
		xmlns="http://www.w3.org/2000/svg">
		<path fill-rule="evenodd" clip-rule="evenodd" d="M5 6.83203C4.17157 6.83203 3.5 7.5036 3.5 8.33203L3.50002 28.3322C3.50002 29.1606 4.17159 29.8322 5.00002 29.8322H7.07063C7.70176 31.7673 9.52093 33.1655 11.6667 33.1655C13.8124 33.1655 15.6316 31.7673 16.2627 29.8322H23.7373C24.3684 31.7673 26.1876 33.1655 28.3334 33.1655C30.4791 33.1655 32.2983 31.7673 32.9294 29.8322H35C35.8284 29.8322 36.5 29.1606 36.5 28.3322V18.3322C36.5 18.0603 36.4261 17.7936 36.2863 17.5605L31.2863 9.22712C31.0152 8.77531 30.5269 8.49886 30 8.49886H23.1667V8.33219C23.1667 7.50377 22.4951 6.83219 21.6667 6.83219L5 6.83203ZM6.49999 21.6566C6.50001 21.6596 6.50002 21.6626 6.50002 21.6655V26.8322H7.07063C7.70176 24.8971 9.52093 23.4989 11.6667 23.4989C13.8124 23.4989 15.6316 24.8971 16.2627 26.8322H20.1667V9.83219L6.50002 9.83205L6.49999 21.6566ZM23.1667 16.8322V11.4989H29.1507L32.3507 16.8322H23.1667ZM23.1667 19.8322H33.5V26.8322H32.9294C32.2983 24.8971 30.4791 23.4989 28.3334 23.4989C26.1876 23.4989 24.3684 24.8971 23.7373 26.8322H23.1667V19.8322ZM9.83335 28.3322C9.83335 27.3197 10.6542 26.4989 11.6667 26.4989C12.6792 26.4989 13.5 27.3197 13.5 28.3322C13.5 29.3447 12.6792 30.1655 11.6667 30.1655C10.6542 30.1655 9.83335 29.3447 9.83335 28.3322ZM26.5 28.3322C26.5 27.3197 27.3208 26.4989 28.3334 26.4989C29.3459 26.4989 30.1667 27.3197 30.1667 28.3322C30.1667 29.3447 29.3459 30.1655 28.3334 30.1655C27.3208 30.1655 26.5 29.3447 26.5 28.3322Z" fill="black" />
	</symbol>
	<symbol id="Discount"
		xmlns="http://www.w3.org/2000/svg" viewBox="0 0 41 40" fill="none">
		<path d="M15.2508 25.0008L25.2508 15.0008M16.9174 15.8341C16.9174 16.2944 16.5443 16.6675 16.0841 16.6675C15.6239 16.6675 15.2508 16.2944 15.2508 15.8341C15.2508 15.3739 15.6239 15.0008 16.0841 15.0008C16.5443 15.0008 16.9174 15.3739 16.9174 15.8341ZM25.2508 24.1675C25.2508 24.6277 24.8777 25.0008 24.4174 25.0008C23.9572 25.0008 23.5841 24.6277 23.5841 24.1675C23.5841 23.7072 23.9572 23.3341 24.4174 23.3341C24.8777 23.3341 25.2508 23.7072 25.2508 24.1675ZM8.5841 12.0008C8.5841 11.0283 8.97041 10.0957 9.65804 9.40804C10.3457 8.72041 11.2783 8.3341 12.2508 8.3341H13.9174C14.8856 8.33355 15.8143 7.9501 16.5008 7.26744L17.6674 6.10077C18.0082 5.7581 18.4133 5.48617 18.8595 5.30061C19.3057 5.11506 19.7842 5.01953 20.2674 5.01953C20.7507 5.01953 21.2292 5.11506 21.6754 5.30061C22.1216 5.48617 22.5267 5.7581 22.8674 6.10077L24.0341 7.26744C24.7206 7.9501 25.6493 8.33355 26.6174 8.3341H28.2841C29.2566 8.3341 30.1892 8.72041 30.8768 9.40804C31.5645 10.0957 31.9508 11.0283 31.9508 12.0008V13.6674C31.9513 14.6356 32.3348 15.5643 33.0174 16.2508L34.1841 17.4174C34.5268 17.7582 34.7987 18.1633 34.9843 18.6095C35.1698 19.0557 35.2653 19.5342 35.2653 20.0174C35.2653 20.5007 35.1698 20.9792 34.9843 21.4254C34.7987 21.8716 34.5268 22.2767 34.1841 22.6174L33.0174 23.7841C32.3348 24.4706 31.9513 25.3993 31.9508 26.3674V28.0341C31.9508 29.0066 31.5645 29.9392 30.8768 30.6268C30.1892 31.3145 29.2566 31.7008 28.2841 31.7008H26.6174C25.6493 31.7013 24.7206 32.0848 24.0341 32.7674L22.8674 33.9341C22.5267 34.2768 22.1216 34.5487 21.6754 34.7343C21.2292 34.9198 20.7507 35.0153 20.2674 35.0153C19.7842 35.0153 19.3057 34.9198 18.8595 34.7343C18.4133 34.5487 18.0082 34.2768 17.6674 33.9341L16.5008 32.7674C15.8143 32.0848 14.8856 31.7013 13.9174 31.7008H12.2508C11.2783 31.7008 10.3457 31.3145 9.65804 30.6268C8.97041 29.9392 8.5841 29.0066 8.5841 28.0341V26.3674C8.58355 25.3993 8.20011 24.4706 7.51744 23.7841L6.35077 22.6174C6.0081 22.2767 5.73617 21.8716 5.55061 21.4254C5.36506 20.9792 5.26953 20.5007 5.26953 20.0174C5.26953 19.5342 5.36506 19.0557 5.55061 18.6095C5.73617 18.1633 6.0081 17.7582 6.35077 17.4174L7.51744 16.2508C8.20011 15.5643 8.58355 14.6356 8.5841 13.6674V12.0008Z" stroke="black" stroke-width="3" stroke-linecap="round" stroke-linejoin="round" />
	</symbol>
	<symbol id="Return"
		xmlns="http://www.w3.org/2000/svg" viewBox="0 0 34 30" stroke="currentColor" fill="none">
		<path d="M32 6.66699H2M32 6.66699L27 11.667M32 6.66699L27 1.66699M7 28.3337L2 23.3337M2 23.3337L7 18.3337M2 23.3337H32" stroke-linecap="round" stroke-linejoin="round" />
	</symbol>
	<symbol id="CreditCard" viewBox="0 0 41 40" fill="none"
		xmlns="http://www.w3.org/2000/svg">
		<path d="M5.75 16.6654H35.75M12.4167 24.9987H12.4333M19.0833 24.9987H22.4167M10.75 8.33203H30.75C33.5114 8.33203 35.75 10.5706 35.75 13.332V26.6654C35.75 29.4268 33.5114 31.6654 30.75 31.6654H10.75C7.98858 31.6654 5.75 29.4268 5.75 26.6654V13.332C5.75 10.5706 7.98858 8.33203 10.75 8.33203Z" stroke="black" stroke-width="3" stroke-linecap="round" stroke-linejoin="round" />
	</symbol>
	<symbol id="Deco"
		xmlns="http://www.w3.org/2000/svg" viewBox="0 0 58 20" stroke="currentColor" fill="none">
		<path d="M49.5359 16.9432C47.3666 16.9432 46.9948 14.8019 47.6797 12.7178C48.2221 11.0615 49.5066 9.31991 51.4201 9.31991C53.676 9.31991 53.9039 11.6038 53.247 13.6026C52.6753 15.3162 51.3908 16.9432 49.5359 16.9432ZM48.879 19.9973C52.6473 19.9973 56.0159 17.9133 57.3578 14.1449C58.7569 10.1767 57.1859 6.2085 52.0477 6.2085C47.9369 6.2085 44.7962 8.77758 43.5969 12.1755C42.2551 16.0011 43.7115 19.9973 48.879 19.9973ZM36.3747 19.9973C37.8591 19.9973 39.3729 19.6829 40.4282 19.2271C40.8 18.1998 40.828 17.2004 40.5428 16.201C39.8006 16.4862 38.7732 16.7727 37.7165 16.7727C34.861 16.7727 34.6051 14.6606 35.2048 12.8617C35.8617 10.9496 37.574 9.40786 40.287 9.40786C41.0012 9.40786 41.6861 9.52246 42.1138 9.77963C42.856 8.78025 43.2838 7.78086 43.3704 6.7535C42.7428 6.46834 41.6861 6.21117 40.3163 6.21117C35.863 6.21117 32.3505 8.80956 31.0953 12.406C29.896 15.8039 30.8101 20 36.3774 20L36.3747 19.9973ZM21.0442 11.8037C21.8143 10.0901 23.0136 9.09206 24.5846 9.09206C25.9838 9.09206 26.2116 9.86225 25.9838 10.4619C25.6413 11.2894 24.47 11.8037 21.0442 11.8037ZM22.2714 19.9973C23.7278 19.9973 25.7826 19.7122 27.4962 18.8554C27.7813 17.9133 27.7534 16.9712 27.4389 15.9998C26.3542 16.5421 24.8405 16.8566 23.4707 16.8566C21.4439 16.8566 20.3299 16.1997 20.3592 14.5447C25.8972 14.6873 28.7807 13.6879 29.7228 11.2334C30.6649 8.7496 29.0379 6.2085 25.1829 6.2085C21.0721 6.2085 18.046 9.14935 16.932 12.3181C15.7621 15.6867 16.5043 19.9973 22.2701 19.9973H22.2714ZM5.72293 19.9973C9.52059 19.9973 11.6806 18.2557 14.1924 12.9177C15.5622 9.97684 16.7335 7.09329 18.0753 4.23905L19.6743 4.7534C20.1021 4.89598 20.3313 4.6388 20.1314 4.23905L18.1899 0.270827C18.0473 -0.0143302 17.7329 -0.0436454 17.533 0.0429678L12.708 1.86984C12.3082 2.01242 12.3362 2.38419 12.7359 2.49745L14.1631 2.95451C12.9931 5.6102 11.5367 9.60641 10.3654 12.1182C9.05155 14.9165 8.39595 16.8859 6.16933 16.8859C3.9427 16.8859 3.57093 15.1443 4.51301 12.6605C5.59768 9.77697 7.42455 8.92016 9.5086 9.51979C10.0802 8.72028 10.508 7.52103 10.6785 6.43636C10.0789 6.26447 9.36469 6.2085 8.76639 6.2085C5.3978 6.2085 2.05719 7.95009 0.687373 11.6038C-1.0822 16.3143 0.554122 19.9973 5.7216 19.9973H5.72293Z" fill="currentColor" />
	</symbol>
	<symbol id="Discord"
		xmlns="http://www.w3.org/2000/svg" viewBox="0 0 32 32" fill="currentColor">
		<path fill-rule="evenodd" clip-rule="evenodd" d="M10.1144 14.1144C10.6145 13.6143 11.2928 13.3333 12 13.3333C12.7072 13.3333 13.3855 13.6143 13.8856 14.1144C14.3857 14.6145 14.6667 15.2928 14.6667 16C14.6667 16.7072 14.3857 17.3855 13.8856 17.8856C13.3855 18.3857 12.7072 18.6667 12 18.6667C11.2928 18.6667 10.6145 18.3857 10.1144 17.8856C9.61429 17.3855 9.33333 16.7072 9.33333 16C9.33333 15.2928 9.61429 14.6145 10.1144 14.1144Z" />
		<path fill-rule="evenodd" clip-rule="evenodd" d="M18.1144 14.1144C18.6145 13.6143 19.2928 13.3333 20 13.3333C20.7072 13.3333 21.3855 13.6143 21.8856 14.1144C22.3857 14.6145 22.6667 15.2928 22.6667 16C22.6667 16.7072 22.3857 17.3855 21.8856 17.8856C21.3855 18.3857 20.7072 18.6667 20 18.6667C19.2928 18.6667 18.6145 18.3857 18.1144 17.8856C17.6143 17.3855 17.3333 16.7072 17.3333 16C17.3333 15.2928 17.6143 14.6145 18.1144 14.1144Z" />
		<path fill-rule="evenodd" clip-rule="evenodd" d="M18.81 4.73186C19.0601 4.23712 19.5902 3.94872 20.1414 4.00752C22.2331 4.23063 24.551 4.69893 26.7621 6.2393C26.9912 6.39888 27.1644 6.62634 27.2573 6.8896C28.6195 10.7494 29.3689 14.129 29.6593 16.8589C29.9443 19.5368 29.805 21.7447 29.2379 23.162C29.2242 23.1964 29.209 23.2302 29.1924 23.2633C28.6969 24.2536 27.9474 25.3864 27.0094 26.2923C26.091 27.1791 24.8302 28 23.3333 28C22.8608 28 22.4898 27.788 22.3107 27.6739C22.0915 27.5341 21.888 27.3604 21.7106 27.1896C21.352 26.8443 20.9848 26.3986 20.6577 25.9313C20.3289 25.4616 20.0134 24.9313 19.7748 24.4037C19.5498 23.9065 19.3333 23.2832 19.3333 22.6667C19.3333 21.9303 19.9303 21.3333 20.6667 21.3333C21.403 21.3333 22 21.9303 22 22.6667C22 22.7168 22.0335 22.9269 22.2044 23.3046C22.3616 23.652 22.5878 24.0384 22.8423 24.4021C23.0985 24.7681 23.3564 25.0724 23.5603 25.2687C23.5748 25.2827 23.5885 25.2956 23.6014 25.3075C24.0526 25.2232 24.5825 24.9288 25.157 24.374C25.8148 23.7388 26.3876 22.8958 26.7809 22.123C27.0917 21.2998 27.2731 19.6354 27.0077 17.1411C26.7526 14.7437 26.0994 11.7137 24.8888 8.19623C23.5851 7.37691 22.2091 6.99039 20.7657 6.77412L19.894 8.49881C19.6296 9.02184 19.0547 9.31093 18.4772 9.21123C16.8392 8.92847 15.1648 8.92847 13.5268 9.21123C12.9499 9.31082 12.3755 9.02244 12.1108 8.50029L11.2355 6.77394C9.79167 6.99018 8.41523 7.37668 7.11123 8.19624C5.90062 11.7137 5.24745 14.7437 4.99235 17.1411C4.72693 19.6354 4.90826 21.2998 5.21912 22.123C5.61239 22.8958 6.18517 23.7388 6.84303 24.374C7.4175 24.9288 7.94742 25.2232 8.39859 25.3075C8.41148 25.2956 8.4252 25.2827 8.43973 25.2687C8.64364 25.0724 8.90147 24.7681 9.15769 24.4021C9.41224 24.0384 9.63844 23.652 9.79561 23.3046C9.87377 23.1318 9.92828 22.9831 9.96188 22.8628C9.97844 22.8035 9.98841 22.7564 9.99405 22.7211C9.99682 22.7037 9.99835 22.6904 9.99917 22.681L9.99989 22.6703L9.99999 22.6676L10 22.6669C10 22.6669 10 22.6668 10 22.6668C10 22.6667 10 22.6667 10 22.6667C10 21.9303 10.597 21.3333 11.3333 21.3333C12.0697 21.3333 12.6667 21.9303 12.6667 22.6667C12.6667 23.2832 12.4502 23.9065 12.2252 24.4037C11.9866 24.9313 11.6711 25.4616 11.3423 25.9313C11.0152 26.3986 10.648 26.8443 10.2894 27.1896C10.112 27.3604 9.90854 27.5341 9.68929 27.6739C9.5102 27.788 9.13922 28 8.66667 28C7.16983 28 5.90902 27.1791 4.99064 26.2923C4.05257 25.3864 3.30313 24.2536 2.80761 23.2633C2.79103 23.2302 2.77584 23.1964 2.76208 23.162C2.19498 21.7447 2.05571 19.5368 2.34065 16.8589C2.63114 14.129 3.38048 10.7494 4.74267 6.8896C4.83558 6.62634 5.00878 6.39888 5.23785 6.2393C7.44901 4.69893 9.76691 4.23063 11.8586 4.00752C12.4092 3.94879 12.9388 4.2365 13.1892 4.73038L14.0574 6.44267C15.3492 6.29582 16.6535 6.29577 17.9454 6.44252L18.81 4.73186ZM8.25602 25.4251C8.23864 25.4362 8.24115 25.4323 8.26145 25.4215C8.25933 25.423 8.25752 25.4242 8.25602 25.4251ZM23.744 25.4251C23.7425 25.4242 23.7407 25.423 23.7386 25.4215C23.7589 25.4323 23.7614 25.4362 23.744 25.4251Z" />
		<path fill-rule="evenodd" clip-rule="evenodd" d="M8.0513 21.6337C8.2536 20.9257 8.99158 20.5157 9.69963 20.718C14.1269 21.9829 17.8731 21.9829 22.3004 20.718C23.0084 20.5157 23.7464 20.9257 23.9487 21.6337C24.151 22.3418 23.741 23.0797 23.033 23.282C18.1269 24.6838 13.8731 24.6838 8.96704 23.282C8.25899 23.0797 7.849 22.3418 8.0513 21.6337Z" />
	</symbol>
	<symbol id="YouTube"
		xmlns="http://www.w3.org/2000/svg" viewBox="0 0 20 20">
		<path fill-rule="evenodd" clip-rule="evenodd" d="M5.83463 4.9987C4.45392 4.9987 3.33464 6.11799 3.33464 7.4987V12.4987C3.33464 13.8794 4.45392 14.9987 5.83463 14.9987H14.168C15.5487 14.9987 16.668 13.8794 16.668 12.4987V7.4987C16.668 6.11799 15.5487 4.9987 14.168 4.9987H5.83463ZM1.66797 7.4987C1.66797 5.19751 3.53345 3.33203 5.83463 3.33203H14.168C16.4692 3.33203 18.3346 5.19751 18.3346 7.4987V12.4987C18.3346 14.7999 16.4692 16.6654 14.168 16.6654H5.83463C3.53345 16.6654 1.66797 14.7999 1.66797 12.4987V7.4987ZM7.92405 6.77353C8.18531 6.62561 8.50594 6.62965 8.76338 6.78412L12.93 9.28412C13.1811 9.43472 13.3346 9.70598 13.3346 9.9987C13.3346 10.2914 13.1811 10.5627 12.93 10.7133L8.76338 13.2133C8.50594 13.3677 8.18531 13.3718 7.92405 13.2239C7.66279 13.0759 7.5013 12.7989 7.5013 12.4987V7.4987C7.5013 7.19847 7.66279 6.92145 7.92405 6.77353ZM9.16797 8.97052V11.0269L10.8816 9.9987L9.16797 8.97052Z" fill="currentColor" />
	</symbol>
	<symbol id="FilterList"
		xmlns="http://www.w3.org/2000/svg" viewBox="0 0 16 16" fill="none">
		<path d="M6.66667 12H9.33333V10.6667H6.66667V12ZM2 4V5.33333H14V4H2ZM4 8.66667H12V7.33333H4V8.66667Z" fill="currentColor" />
	</symbol>
	<symbol id="Trash"
		xmlns="http://www.w3.org/2000/svg" viewBox="0 0 20 20" fill="none">
		<path fill-rule="evenodd" clip-rule="evenodd" d="M7.15482 2.15483C7.46738 1.84227 7.89131 1.66667 8.33333 1.66667H11.6667C12.1087 1.66667 12.5326 1.84227 12.8452 2.15483C13.1577 2.46739 13.3333 2.89131 13.3333 3.33334V5H15.8236C15.8295 4.99994 15.8353 4.99994 15.8412 5H16.6667C17.1269 5 17.5 5.3731 17.5 5.83334C17.5 6.29357 17.1269 6.66667 16.6667 6.66667H16.6001L15.833 15.8715C15.8231 16.5207 15.5609 17.1413 15.1011 17.6011C14.6323 18.0699 13.9964 18.3333 13.3333 18.3333H6.66667C6.00362 18.3333 5.36774 18.0699 4.8989 17.6011C4.43906 17.1413 4.17685 16.5207 4.16696 15.8715L3.39989 6.66667H3.33333C2.8731 6.66667 2.5 6.29357 2.5 5.83334C2.5 5.3731 2.8731 5 3.33333 5H4.15878C4.16467 4.99994 4.17055 4.99994 4.17641 5H6.66667V3.33334C6.66667 2.89131 6.84226 2.46739 7.15482 2.15483ZM5.07233 6.66667L5.83045 15.7641C5.83237 15.7871 5.83333 15.8102 5.83333 15.8333C5.83333 16.0543 5.92113 16.2663 6.07741 16.4226C6.23369 16.5789 6.44565 16.6667 6.66667 16.6667H13.3333C13.5543 16.6667 13.7663 16.5789 13.9226 16.4226C14.0789 16.2663 14.1667 16.0543 14.1667 15.8333C14.1667 15.8102 14.1676 15.7871 14.1695 15.7641L14.9277 6.66667H5.07233ZM11.6667 5H8.33333V3.33334H11.6667V5ZM8.33333 8.33334C8.79357 8.33334 9.16667 8.70643 9.16667 9.16667V14.1667C9.16667 14.6269 8.79357 15 8.33333 15C7.8731 15 7.5 14.6269 7.5 14.1667V9.16667C7.5 8.70643 7.8731 8.33334 8.33333 8.33334ZM11.6667 8.33334C12.1269 8.33334 12.5 8.70643 12.5 9.16667V14.1667C12.5 14.6269 12.1269 15 11.6667 15C11.2064 15 10.8333 14.6269 10.8333 14.1667V9.16667C10.8333 8.70643 11.2064 8.33334 11.6667 8.33334Z" fill="currentColor" />
	</symbol>
	<symbol id="WhatsApp"
		xmlns="http://www.w3.org/2000/svg" viewBox="0 0 32 32" fill="currentColor">
		<path fill-rule="evenodd" clip-rule="evenodd" d="M22.9323 7.90694C20.9558 6.22108 18.432 5.31448 15.8345 5.35728C13.237 5.40008 10.7444 6.38934 8.82449 8.13941C6.90458 9.88948 5.68934 12.28 5.40682 14.8625C5.1243 17.4449 5.79392 20.0417 7.29002 22.1655C7.55783 22.5456 7.60822 23.0378 7.42302 23.4644L6.21292 26.2513L10.4994 25.4874C10.7781 25.4377 11.0654 25.478 11.3197 25.6025C13.6528 26.7449 16.3227 26.9965 18.8283 26.3102C21.3338 25.6239 23.5028 24.0467 24.9281 21.8748C26.3534 19.7029 26.9371 17.0855 26.5696 14.5138C26.2022 11.942 24.9088 9.5928 22.9323 7.90694ZM15.7905 2.69098C19.0374 2.63748 22.1922 3.77072 24.6628 5.87805C27.1335 7.98537 28.7502 10.9219 29.2095 14.1366C29.6688 17.3512 28.9392 20.623 27.1575 23.3379C25.3759 26.0528 22.6647 28.0242 19.5328 28.8821C16.5444 29.7007 13.3691 29.4518 10.5508 28.1869L4.23394 29.3127C3.75031 29.3988 3.25846 29.2121 2.95388 28.8267C2.64929 28.4413 2.58133 27.9196 2.77698 27.469L4.68893 23.0657C3.11582 20.5372 2.43052 17.5472 2.75597 14.5725C3.10912 11.3444 4.62818 8.35622 7.02806 6.16864C9.42795 3.98106 12.5437 2.74448 15.7905 2.69098Z" />
		<path fill-rule="evenodd" clip-rule="evenodd" d="M11.2525 10.5858C11.6275 10.2107 12.1362 10 12.6667 10C13.1971 10 13.7058 10.2107 14.0809 10.5858C14.456 10.9609 14.6667 11.4696 14.6667 12V13.3333C14.6667 13.8638 14.456 14.3725 14.0809 14.7475C13.946 14.8824 13.7939 14.996 13.6296 15.0863C13.8915 15.8388 14.3213 16.5304 14.8954 17.1046C15.4696 17.6787 16.1612 18.1085 16.9137 18.3704C17.004 18.2061 17.1176 18.054 17.2525 17.9191C17.6275 17.544 18.1362 17.3333 18.6667 17.3333H20C20.5304 17.3333 21.0391 17.544 21.4142 17.9191C21.7893 18.2942 22 18.8029 22 19.3333C22 19.8638 21.7893 20.3725 21.4142 20.7475C21.0391 21.1226 20.5304 21.3333 20 21.3333H18.6667C16.5449 21.3333 14.5101 20.4905 13.0098 18.9902C11.5095 17.4899 10.6667 15.4551 10.6667 13.3333V12C10.6667 11.4696 10.8774 10.9609 11.2525 10.5858Z" />
	</symbol>
	<symbol id="ArrowsPointingOut" viewBox="0 0 40 40" fill="black"
		xmlns="http://www.w3.org/2000/svg">
		<path d="M31.5 6.66797H1.5M31.5 6.66797L26.5 11.668M31.5 6.66797L26.5 1.66797M6.5 28.3346L1.5 23.3346M1.5 23.3346L6.5 18.3346M1.5 23.3346H31.5" stroke="black" stroke-width="3" stroke-linecap="round" stroke-linejoin="round" />
	</symbol>
	<symbol id="Star"
		xmlns="http://www.w3.org/2000/svg" viewBox="0 0 24 24" stroke-width="1.5">
		<path stroke-linecap="round" stroke-linejoin="round" d="M11.48 3.499a.562.562 0 011.04 0l2.125 5.111a.563.563 0 00.475.345l5.518.442c.499.04.701.663.321.988l-4.204 3.602a.563.563 0 00-.182.557l1.285 5.385a.562.562 0 01-.84.61l-4.725-2.885a.563.563 0 00-.586 0L6.982 20.54a.562.562 0 01-.84-.61l1.285-5.386a.562.562 0 00-.182-.557l-4.204-3.602a.563.563 0 01.321-.988l5.518-.442a.563.563 0 00.475-.345L11.48 3.5z" />
	</symbol>
	<symbol id="Ruler"
		xmlns="http://www.w3.org/2000/svg" viewBox="0 0 32 32" fill="currentColor">
		<path fill-rule="evenodd" clip-rule="evenodd" d="M21.7238 3.05715C22.2445 2.53645 23.0887 2.53645 23.6094 3.05715L28.9428 8.39048C29.4635 8.91118 29.4635 9.7554 28.9428 10.2761L10.2761 28.9428C9.7554 29.4635 8.91118 29.4635 8.39048 28.9428L3.05715 23.6094C2.53645 23.0887 2.53645 22.2445 3.05715 21.7238L21.7238 3.05715ZM5.88558 22.6666L9.33329 26.1143L26.1143 9.33329L22.6666 5.88558L5.88558 22.6666Z" />
		<path fill-rule="evenodd" clip-rule="evenodd" d="M18.3905 6.39052C18.9112 5.86983 19.7554 5.86983 20.2761 6.39052L22.2761 8.39052C22.7968 8.91122 22.7968 9.75544 22.2761 10.2761C21.7554 10.7968 20.9112 10.7968 20.3905 10.2761L18.3905 8.27614C17.8698 7.75544 17.8698 6.91122 18.3905 6.39052Z" />
		<path fill-rule="evenodd" clip-rule="evenodd" d="M14.3905 10.3905C14.9112 9.86983 15.7554 9.86983 16.2761 10.3905L18.2761 12.3905C18.7968 12.9112 18.7968 13.7554 18.2761 14.2761C17.7554 14.7968 16.9112 14.7968 16.3905 14.2761L14.3905 12.2761C13.8698 11.7554 13.8698 10.9112 14.3905 10.3905Z" />
		<path fill-rule="evenodd" clip-rule="evenodd" d="M10.3905 14.3905C10.9112 13.8698 11.7554 13.8698 12.2761 14.3905L14.2761 16.3905C14.7968 16.9112 14.7968 17.7554 14.2761 18.2761C13.7554 18.7968 12.9112 18.7968 12.3905 18.2761L10.3905 16.2761C9.86983 15.7554 9.86983 14.9112 10.3905 14.3905Z" />
		<path fill-rule="evenodd" clip-rule="evenodd" d="M6.39052 18.3905C6.91122 17.8698 7.75544 17.8698 8.27614 18.3905L10.2761 20.3905C10.7968 20.9112 10.7968 21.7554 10.2761 22.2761C9.75544 22.7968 8.91122 22.7968 8.39052 22.2761L6.39052 20.2761C5.86983 19.7554 5.86983 18.9112 6.39052 18.3905Z" />
	</symbol>
	<symbol id="Message"
		xmlns="http://www.w3.org/2000/svg" viewBox="0 0 32 32" fill="currentColor">
		<path fill-rule="evenodd" clip-rule="evenodd" d="M9.33337 12C9.33337 11.2636 9.93033 10.6666 10.6667 10.6666H21.3334C22.0698 10.6666 22.6667 11.2636 22.6667 12C22.6667 12.7363 22.0698 13.3333 21.3334 13.3333H10.6667C9.93033 13.3333 9.33337 12.7363 9.33337 12Z" />
		<path fill-rule="evenodd" clip-rule="evenodd" d="M9.33337 17.3333C9.33337 16.597 9.93033 16 10.6667 16H18.6667C19.4031 16 20 16.597 20 17.3333C20 18.0697 19.4031 18.6667 18.6667 18.6667H10.6667C9.93033 18.6667 9.33337 18.0697 9.33337 17.3333Z" />
		<path fill-rule="evenodd" clip-rule="evenodd" d="M7.99996 6.66667C7.29272 6.66667 6.61444 6.94762 6.11434 7.44772C5.61424 7.94781 5.33329 8.62609 5.33329 9.33333V20C5.33329 20.7072 5.61424 21.3855 6.11434 21.8856C6.61444 22.3857 7.29272 22.6667 7.99996 22.6667H10.6666C11.403 22.6667 12 23.2636 12 24V25.6451L16.6473 22.8567C16.8545 22.7323 17.0916 22.6667 17.3333 22.6667H24C24.7072 22.6667 25.3855 22.3857 25.8856 21.8856C26.3857 21.3855 26.6666 20.7072 26.6666 20V9.33333C26.6666 8.62609 26.3857 7.94781 25.8856 7.44772C25.3855 6.94762 24.7072 6.66667 24 6.66667H7.99996ZM4.22872 5.5621C5.22892 4.5619 6.58547 4 7.99996 4H24C25.4144 4 26.771 4.5619 27.7712 5.5621C28.7714 6.56229 29.3333 7.91885 29.3333 9.33333V20C29.3333 21.4145 28.7714 22.771 27.7712 23.7712C26.771 24.7714 25.4144 25.3333 24 25.3333H17.7026L11.3526 29.1433C10.9407 29.3905 10.4277 29.3969 10.0097 29.1603C9.59168 28.9236 9.33329 28.4804 9.33329 28V25.3333H7.99996C6.58547 25.3333 5.22892 24.7714 4.22872 23.7712C3.22853 22.771 2.66663 21.4145 2.66663 20V9.33333C2.66663 7.91885 3.22853 6.56229 4.22872 5.5621Z" />
	</symbol>
	<symbol id="Close"
		xmlns="http://www.w3.org/2000/svg" viewBox="0 0 24 24" fill="currentColor">
		<path fill-rule="evenodd" clip-rule="evenodd" d="M5.29289 5.29289C5.68342 4.90237 6.31658 4.90237 6.70711 5.29289L12 10.5858L17.2929 5.29289C17.6834 4.90237 18.3166 4.90237 18.7071 5.29289C19.0976 5.68342 19.0976 6.31658 18.7071 6.70711L13.4142 12L18.7071 17.2929C19.0976 17.6834 19.0976 18.3166 18.7071 18.7071C18.3166 19.0976 17.6834 19.0976 17.2929 18.7071L12 13.4142L6.70711 18.7071C6.31658 19.0976 5.68342 19.0976 5.29289 18.7071C4.90237 18.3166 4.90237 17.6834 5.29289 17.2929L10.5858 12L5.29289 6.70711C4.90237 6.31658 4.90237 5.68342 5.29289 5.29289Z" />
	</symbol>
	<symbol id="Zoom"
		xmlns="http://www.w3.org/2000/svg" viewBox="0 0 32 32" fill="currentColor">
		<path fill-rule="evenodd" clip-rule="evenodd" d="M9.25138 3.47862C10.5455 2.94257 11.9326 2.66667 13.3333 2.66667C14.7341 2.66667 16.1212 2.94257 17.4153 3.47862C18.7094 4.01467 19.8853 4.80037 20.8758 5.79086C21.8663 6.78135 22.652 7.95724 23.188 9.25138C23.7241 10.5455 24 11.9326 24 13.3333C24 14.7341 23.7241 16.1212 23.188 17.4153C22.652 18.7094 21.8663 19.8853 20.8758 20.8758C19.8853 21.8663 18.7094 22.652 17.4153 23.188C16.1212 23.7241 14.7341 24 13.3333 24C11.9326 24 10.5455 23.7241 9.25138 23.188C7.95724 22.652 6.78135 21.8663 5.79086 20.8758C4.80037 19.8853 4.01467 18.7094 3.47862 17.4153C2.94257 16.1212 2.66667 14.7341 2.66667 13.3333C2.66667 11.9326 2.94257 10.5455 3.47862 9.25138C4.01467 7.95724 4.80037 6.78135 5.79086 5.79086C6.78135 4.80037 7.95724 4.01467 9.25138 3.47862ZM13.3333 5.33333C12.2828 5.33333 11.2425 5.54026 10.2719 5.9423C9.30126 6.34433 8.41935 6.93361 7.67648 7.67648C6.93361 8.41935 6.34433 9.30126 5.9423 10.2719C5.54026 11.2425 5.33333 12.2828 5.33333 13.3333C5.33333 14.3839 5.54026 15.4242 5.9423 16.3948C6.34433 17.3654 6.93361 18.2473 7.67648 18.9902C8.41935 19.7331 9.30126 20.3223 10.2719 20.7244C11.2425 21.1264 12.2828 21.3333 13.3333 21.3333C14.3839 21.3333 15.4242 21.1264 16.3948 20.7244C17.3654 20.3223 18.2473 19.7331 18.9902 18.9902C19.7331 18.2473 20.3223 17.3654 20.7244 16.3948C21.1264 15.4242 21.3333 14.3839 21.3333 13.3333C21.3333 12.2828 21.1264 11.2425 20.7244 10.2719C20.3223 9.30126 19.7331 8.41935 18.9902 7.67648C18.2473 6.93361 17.3654 6.34433 16.3948 5.9423C15.4242 5.54026 14.3839 5.33333 13.3333 5.33333Z" />
		<path fill-rule="evenodd" clip-rule="evenodd" d="M8 13.3333C8 12.597 8.59695 12 9.33333 12H17.3333C18.0697 12 18.6667 12.597 18.6667 13.3333C18.6667 14.0697 18.0697 14.6667 17.3333 14.6667H9.33333C8.59695 14.6667 8 14.0697 8 13.3333Z" />
		<path fill-rule="evenodd" clip-rule="evenodd" d="M13.3333 8C14.0697 8 14.6667 8.59695 14.6667 9.33333V17.3333C14.6667 18.0697 14.0697 18.6667 13.3333 18.6667C12.597 18.6667 12 18.0697 12 17.3333V9.33333C12 8.59695 12.597 8 13.3333 8Z" />
		<path fill-rule="evenodd" clip-rule="evenodd" d="M19.0572 19.0572C19.5779 18.5365 20.4221 18.5365 20.9428 19.0572L28.9428 27.0572C29.4635 27.5779 29.4635 28.4221 28.9428 28.9428C28.4221 29.4635 27.5779 29.4635 27.0572 28.9428L19.0572 20.9428C18.5365 20.4221 18.5365 19.5779 19.0572 19.0572Z" />
	</symbol>
	<symbol id="Twitter" viewBox="0 0 32 32" fill="currentColor"
		xmlns="http://www.w3.org/2000/svg">
		<path fill-rule="evenodd" clip-rule="evenodd" d="M25.7085 5.17383C25.8226 5.14229 25.9346 5.1116 26.0448 5.08143C27.0071 4.8178 27.8286 4.59278 28.6991 4.17252C28.9351 4.04471 29.2112 3.98713 29.4952 4.02185C30.164 4.10361 30.6667 4.67152 30.6667 5.34533V5.34667C30.6667 5.46914 30.6499 5.58905 30.6181 5.70365C30.3614 6.70484 29.6856 8.08065 29.1556 9.12166C29.0163 9.39519 28.8888 9.64185 28.7722 9.86768C28.6425 10.1187 28.5261 10.3439 28.4215 10.5518C28.3434 10.707 28.2842 10.8285 28.2426 10.919C28.232 12.6541 27.9933 14.3807 27.5322 16.0542L27.5304 16.0606C25.8937 21.8868 21.6085 25.795 16.4174 27.3031L16.4171 27.3031C11.8358 28.6331 6.66407 27.6972 2.02863 25.1707C1.4849 24.8744 1.21677 24.2427 1.38133 23.6457C1.54588 23.0487 2.0998 22.6436 2.71858 22.6677C4.59327 22.7406 6.25872 22.2699 7.93115 21.4114C6.20014 20.3418 4.95683 19.0951 4.10438 17.7483C2.9282 15.89 2.55864 13.9398 2.57579 12.2033C2.59283 10.4771 2.99109 8.94005 3.37455 7.84784C3.56758 7.29803 3.76042 6.8509 3.90746 6.53668C3.9811 6.37932 4.04359 6.25457 4.08934 6.16618C4.11223 6.12196 4.13097 6.08678 4.14486 6.06109L4.16199 6.02971L4.16767 6.01945L4.16977 6.0157L4.17062 6.01417C4.171 6.0135 4.17135 6.01287 5.33339 6.66667L4.17135 6.01287C4.39484 5.61565 4.80575 5.3601 5.26086 5.33531C5.71596 5.31051 6.1522 5.51991 6.41753 5.8905C8.39853 8.65753 11.326 10.351 14.6663 10.6301C14.651 7.82308 16.4169 5.41227 19.0258 4.43534C21.1915 3.62441 23.7548 3.53044 25.7085 5.17383ZM5.73392 9.20834C5.4743 10.0564 5.25343 11.1054 5.24233 12.2297C5.22914 13.5653 5.51108 14.9846 6.35765 16.3222C7.20231 17.6567 8.67167 19.009 11.1996 20.1111C11.6468 20.3061 11.9519 20.7298 11.9949 21.2158C12.0379 21.7018 11.812 22.1725 11.4059 22.443C10.137 23.2883 8.82865 24.0272 7.42567 24.5474C10.298 25.3864 13.1456 25.476 15.6734 24.7423M5.73392 9.20834C8.41858 11.9306 12.0496 13.4348 16.0342 13.3329C16.757 13.3144 17.3334 12.7231 17.3334 12V10.6667L17.3333 10.6484C17.3108 9.00681 18.3282 7.54404 19.961 6.93266C21.8151 6.23837 23.3524 6.44157 24.3355 7.55097C24.6786 7.93812 25.2146 8.09189 25.7108 7.94548C25.9884 7.86355 26.2807 7.78378 26.5839 7.70106C26.6992 7.66959 26.816 7.6377 26.9342 7.6051C26.8831 7.70696 26.8314 7.80926 26.7792 7.91167C26.6594 8.14697 26.5339 8.39013 26.4146 8.6212C26.2744 8.89273 26.1428 9.14756 26.0393 9.35333C25.9398 9.55108 25.8466 9.74167 25.7762 9.90182C25.7415 9.98065 25.7031 10.073 25.6709 10.1667C25.6704 10.1684 25.6697 10.1702 25.669 10.1723C25.6498 10.2277 25.5761 10.441 25.5761 10.696L25.5761 10.7034C25.5848 12.2707 25.3782 13.8317 24.9621 15.3428C23.5875 20.2319 20.028 23.4772 15.6737 24.7422" />
	</symbol>
	<symbol id="Facebook" viewBox="0 0 32 32" fill="currentColor"
		xmlns="http://www.w3.org/2000/svg">
		<path fill-rule="evenodd" clip-rule="evenodd" d="M14.3431 5.00977C15.8434 3.50948 17.8783 2.66663 20 2.66663H24C24.7364 2.66663 25.3333 3.26358 25.3333 3.99996V9.33329C25.3333 10.0697 24.7364 10.6666 24 10.6666H20V12H24C24.4106 12 24.7983 12.1891 25.0509 12.5127C25.3036 12.8364 25.3931 13.2584 25.2935 13.6567L23.9602 18.99C23.8118 19.5836 23.2785 20 22.6667 20H20V28C20 28.7363 19.403 29.3333 18.6667 29.3333H13.3333C12.597 29.3333 12 28.7363 12 28V20H9.33333C8.59695 20 8 19.403 8 18.6666V13.3333C8 12.5969 8.59695 12 9.33333 12H12V10.6666C12 8.54489 12.8429 6.51006 14.3431 5.00977ZM20 5.33329C18.5855 5.33329 17.229 5.8952 16.2288 6.89539C15.2286 7.89558 14.6667 9.25214 14.6667 10.6666V13.3333C14.6667 14.0697 14.0697 14.6666 13.3333 14.6666H10.6667V17.3333H13.3333C14.0697 17.3333 14.6667 17.9302 14.6667 18.6666V26.6666H17.3333V18.6666C17.3333 17.9302 17.9303 17.3333 18.6667 17.3333H21.6256L22.2923 14.6666H18.6667C17.9303 14.6666 17.3333 14.0697 17.3333 13.3333V10.6666C17.3333 9.95938 17.6143 9.28111 18.1144 8.78101C18.6145 8.28091 19.2928 7.99996 20 7.99996H22.6667V5.33329H20Z" />
	</symbol>
	<symbol id="Linkedin" viewBox="0 0 32 32" fill="currentColor"
		xmlns="http://www.w3.org/2000/svg">
		<path fill-rule="evenodd" clip-rule="evenodd" d="M8 6.66667C7.64638 6.66667 7.30724 6.80714 7.05719 7.05719C6.80714 7.30724 6.66667 7.64638 6.66667 8V24C6.66667 24.3536 6.80714 24.6928 7.05719 24.9428C7.30724 25.1929 7.64638 25.3333 8 25.3333H24C24.3536 25.3333 24.6928 25.1929 24.9428 24.9428C25.1929 24.6928 25.3333 24.3536 25.3333 24V8C25.3333 7.64638 25.1929 7.30724 24.9428 7.05719C24.6928 6.80714 24.3536 6.66667 24 6.66667H8ZM5.17157 5.17157C5.92172 4.42143 6.93913 4 8 4H24C25.0609 4 26.0783 4.42143 26.8284 5.17157C27.5786 5.92172 28 6.93913 28 8V24C28 25.0609 27.5786 26.0783 26.8284 26.8284C26.0783 27.5786 25.0609 28 24 28H8C6.93913 28 5.92172 27.5786 5.17157 26.8284C4.42143 26.0783 4 25.0609 4 24V8C4 6.93913 4.42143 5.92172 5.17157 5.17157Z" />
		<path fill-rule="evenodd" clip-rule="evenodd" d="M10.6667 13.3334C11.4031 13.3334 12 13.9303 12 14.6667V21.3334C12 22.0698 11.4031 22.6667 10.6667 22.6667C9.93033 22.6667 9.33337 22.0698 9.33337 21.3334V14.6667C9.33337 13.9303 9.93033 13.3334 10.6667 13.3334Z" />
		<path fill-rule="evenodd" clip-rule="evenodd" d="M10.6667 9.33337C11.4031 9.33337 12 9.93033 12 10.6667V10.68C12 11.4164 11.4031 12.0134 10.6667 12.0134C9.93033 12.0134 9.33337 11.4164 9.33337 10.68V10.6667C9.33337 9.93033 9.93033 9.33337 10.6667 9.33337Z" />
		<path fill-rule="evenodd" clip-rule="evenodd" d="M16 13.3334C16.7363 13.3334 17.3333 13.9303 17.3333 14.6667V21.3334C17.3333 22.0698 16.7363 22.6667 16 22.6667C15.2636 22.6667 14.6666 22.0698 14.6666 21.3334V14.6667C14.6666 13.9303 15.2636 13.3334 16 13.3334Z" />
		<path fill-rule="evenodd" clip-rule="evenodd" d="M15.8382 14.5049C16.5883 13.7548 17.6058 13.3334 18.6666 13.3334C19.7275 13.3334 20.7449 13.7548 21.4951 14.5049C22.2452 15.2551 22.6666 16.2725 22.6666 17.3334V21.3334C22.6666 22.0698 22.0697 22.6667 21.3333 22.6667C20.5969 22.6667 20 22.0698 20 21.3334V17.3334C20 16.9798 19.8595 16.6406 19.6094 16.3906C19.3594 16.1405 19.0202 16 18.6666 16C18.313 16 17.9739 16.1405 17.7238 16.3906C17.4738 16.6406 17.3333 16.9798 17.3333 17.3334C17.3333 18.0698 16.7363 18.6667 16 18.6667C15.2636 18.6667 14.6666 18.0698 14.6666 17.3334C14.6666 16.2725 15.0881 15.2551 15.8382 14.5049Z" />
	</symbol>
	<symbol id="Tiktok" viewBox="0 0 32 32" fill="currentColor"
		xmlns="http://www.w3.org/2000/svg">
		<path fill-rule="evenodd" clip-rule="evenodd" d="M14.6666 4.00002C14.6666 3.26364 15.2636 2.66669 16 2.66669H21.444C22.0944 2.66669 22.6499 3.13595 22.7585 3.77719C22.9899 5.14231 23.6402 6.40166 24.6193 7.38071C25.5983 8.35977 26.8577 9.01005 28.2228 9.24144C28.864 9.35013 29.3333 9.90563 29.3333 10.556V15.9347C29.3333 16.3112 29.1741 16.6702 28.895 16.9229C28.6159 17.1757 28.243 17.2987 27.8683 17.2615C26.0469 17.0808 24.2834 16.56 22.6666 15.7338V19.3334C22.6662 21.212 22.1366 23.0529 21.1385 24.6444C20.1403 26.236 18.7141 27.5142 17.023 28.3326C15.332 29.1511 13.4446 29.4766 11.5772 29.2719C9.70969 29.0672 7.93763 28.3406 6.46402 27.1754C4.99041 26.0101 3.87484 24.4533 3.24513 22.6833C2.61542 20.9134 2.49703 19.0018 2.90353 17.1676C3.31003 15.3335 4.22498 13.6509 5.54355 12.3128C6.86212 10.9746 8.53098 10.0349 10.3589 9.60134C10.7557 9.50725 11.1737 9.59986 11.4935 9.85273C11.8134 10.1056 12 10.4909 12 10.8987V16.6667C12 17.0864 11.8024 17.4815 11.4666 17.7334C11.1939 17.9379 10.978 18.2088 10.8394 18.5202C10.7008 18.8317 10.6441 19.1734 10.6747 19.513C10.7053 19.8525 10.8222 20.1786 11.0143 20.4602C11.2064 20.7419 11.4673 20.9697 11.7722 21.1222C12.0771 21.2747 12.416 21.3467 12.7565 21.3313C13.0971 21.316 13.4281 21.2139 13.7181 21.0347C14.0081 20.8554 14.2475 20.605 14.4135 20.3073C14.5795 20.0095 14.6666 19.6743 14.6666 19.3334V4.00002ZM17.3333 5.33335V19.3334C17.3333 20.1288 17.13 20.9111 16.7426 21.6059C16.3552 22.3006 15.7967 22.8849 15.12 23.3031C14.4434 23.7213 13.671 23.9595 12.8764 23.9953C12.0817 24.0311 11.2911 23.8631 10.5796 23.5073C9.86814 23.1516 9.2594 22.6199 8.81121 21.9627C8.36302 21.3055 8.09025 20.5447 8.01882 19.7524C7.94738 18.9602 8.07964 18.1628 8.40305 17.4361C8.62988 16.9263 8.94547 16.4632 9.33329 16.0674V12.7995C8.63637 13.1551 7.99748 13.6217 7.44304 14.1844C6.47609 15.1657 5.80513 16.3996 5.50702 17.7447C5.20892 19.0897 5.29574 20.4915 5.75753 21.7895C6.21932 23.0875 7.0374 24.2291 8.11805 25.0837C9.1987 25.9382 10.4982 26.471 11.8677 26.6211C13.2372 26.7712 14.6212 26.5325 15.8613 25.9323C17.1014 25.3321 18.1473 24.3948 18.8793 23.2276C19.6112 22.0606 19.9996 20.7109 20 19.3334C20 19.3333 20 19.3335 20 19.3334V13.3334C20 12.8279 20.2857 12.3659 20.738 12.1403C21.1903 11.9146 21.7312 11.9641 22.1351 12.268C23.4848 13.2839 25.0302 13.998 26.6666 14.3698V11.6118C25.187 11.1701 23.8339 10.3666 22.7337 9.26633C21.6334 8.1661 20.8298 6.81296 20.3882 5.33335H17.3333Z" />
	</symbol>

	<symbol id="Elo" viewBox="0 0 48 32" fill="currentColor"
		xmlns="http://www.w3.org/2000/svg">
		<path d="M10.5988 12.1154C11.02 11.9773 11.4706 11.9024 11.9395 11.9024C13.9856 11.9024 15.6923 13.3282 16.0839 15.2222L18.9834 14.6423C18.3181 11.4232 15.4175 9 11.9395 9C11.1431 9 10.3766 9.12726 9.66113 9.36168L10.5988 12.1154Z" />
		<path d="M7.14818 21.4445L8.88427 19.2029C8.10933 18.419 7.62022 17.2747 7.62022 15.9991C7.62022 14.7246 8.10887 13.5802 8.88359 12.797L7.14659 10.5556C5.8298 11.8873 5 13.8326 5 15.9991C5 18.1669 5.83102 20.1128 7.14818 21.4445" />
		<path d="M16.0848 16.7778C15.6919 18.6715 13.9862 20.0955 11.9419 20.0955C11.4729 20.0955 11.0214 20.0203 10.6002 19.8818L9.66113 22.637C10.3778 22.8726 11.1445 23 11.9419 23C15.4168 23 18.3154 20.5785 18.9834 17.3606L16.0848 16.7778Z" />
		<path fill-rule="evenodd" clip-rule="evenodd" d="M32.9337 10.5556V18.522L34.3633 19.095L33.687 20.6663L32.2733 20.098C31.9554 19.9647 31.7402 19.7616 31.5768 19.5322C31.4199 19.2976 31.3035 18.9768 31.3035 18.5439V10.5556H32.9337ZM22.0913 16.4765C22.1269 14.1983 24.067 12.3798 26.4211 12.4147C28.4192 12.445 30.0748 13.7983 30.5096 15.5983L22.7816 18.7923C22.3327 18.1286 22.0776 17.3303 22.0913 16.4765ZM23.8596 16.7959C23.8491 16.7003 23.8416 16.6023 23.8444 16.5034C23.8666 15.1612 25.0088 14.0902 26.3958 14.1124C27.1507 14.1221 27.8211 14.4565 28.2743 14.9739L23.8596 16.7959ZM28.1115 18.2749C27.6457 18.713 27.0141 18.9799 26.3167 18.9703C25.8387 18.9626 25.3958 18.8242 25.0192 18.5936L24.0857 20.032C24.725 20.4228 25.4789 20.6541 26.2916 20.6662C27.4747 20.6832 28.553 20.2339 29.337 19.4918L28.1115 18.2749ZM38.8836 14.1123C38.6051 14.1123 38.3375 14.1558 38.0874 14.237L37.5312 12.6251C37.9557 12.488 38.4104 12.4135 38.8836 12.4135C40.9483 12.4135 42.6708 13.8318 43.0658 15.7159L41.3438 16.0554C41.1118 14.9465 40.0984 14.1123 38.8836 14.1123ZM36.0562 19.6309L37.2198 18.3586C36.7001 17.9137 36.3729 17.264 36.3729 16.5398C36.3729 15.8163 36.7001 15.1668 37.2193 14.7223L36.0549 13.4499C35.1721 14.2059 34.616 15.3105 34.616 16.5398C34.616 17.7705 35.1726 18.8747 36.0562 19.6309ZM38.8835 18.9681C40.0973 18.9681 41.1105 18.1346 41.3438 17.0274L43.0653 17.3683C42.6684 19.2503 40.9464 20.6667 38.8835 20.6667C38.41 20.6667 37.9547 20.592 37.529 20.4543L38.0866 18.8429C38.337 18.9239 38.6048 18.9681 38.8835 18.9681Z" />
	</symbol>

	<symbol id="Diners" viewBox="0 0 48 32" fill="currentColor"
		xmlns="http://www.w3.org/2000/svg">
		<path fill-rule="evenodd" clip-rule="evenodd" d="M21.7657 27H25.7046C31.8531 27 36.7527 22.122 36.9448 16.0963V16.0007C36.8488 9.87932 31.8531 4.90571 25.7046 5.00136H21.2853C15.425 5.19265 10.8137 10.1663 11.0058 16.0963C11.0058 22.0264 15.8093 26.9044 21.7657 27ZM12.9272 16.0006C12.9272 11.027 17.0582 6.91424 22.0539 6.91424C27.0495 6.91424 31.1806 11.027 31.1806 16.0006C31.1806 20.9742 27.0495 25.087 22.0539 25.087C17.0582 25.087 12.9272 20.9742 12.9272 16.0006Z" />
		<path fill-rule="evenodd" clip-rule="evenodd" d="M23.4949 22.122V9.97491C26.8573 10.8357 28.9709 14.1834 28.1063 17.531C27.5298 19.8265 25.8006 21.5481 23.4949 22.122V22.122Z" />
		<path fill-rule="evenodd" clip-rule="evenodd" d="M20.6128 22.122C17.2504 21.2612 15.2329 17.8179 16.0975 14.4703C16.674 12.2704 18.4032 10.5488 20.6128 9.97491V22.122V22.122Z" />
	</symbol>

	<symbol id="Mastercard" viewBox="0 0 51 32" fill="currentColor"
		xmlns="http://www.w3.org/2000/svg">
		<path d="M23.5524 24.2952C23.637 24.3667 23.7274 24.4381 23.8163 24.5081C22.0999 25.65 20.0392 26.3135 17.827 26.3135C11.8522 26.315 7.0105 21.4733 7.0105 15.5C7.0105 9.52812 11.8522 4.685 17.8255 4.685C20.0392 4.685 22.0999 5.35 23.812 6.49041C23.7245 6.56479 23.637 6.63333 23.5713 6.70916C21.0105 8.92146 19.5449 12.1283 19.5449 15.5C19.5449 18.8702 21.0047 22.0771 23.5524 24.2952ZM31.1955 4.685C28.9788 4.685 26.9211 5.35 25.209 6.49041C25.2965 6.56479 25.384 6.63333 25.4497 6.70916C28.0105 8.92146 29.4761 12.1283 29.4761 15.5C29.4761 18.8687 28.0163 22.0727 25.4686 24.2952C25.384 24.3667 25.2936 24.4381 25.2047 24.5081C26.9211 25.65 28.9788 26.3135 31.194 26.3135C37.1688 26.315 42.0105 21.4733 42.0105 15.5C42.0105 9.52958 37.1688 4.685 31.1955 4.685ZM24.5105 7.00375C24.3705 7.11312 24.2349 7.2225 24.1022 7.34062C21.8213 9.3225 20.382 12.2406 20.382 15.5C20.382 18.7608 21.8213 21.6775 24.1022 23.6594C24.2334 23.776 24.372 23.8898 24.5105 23.9977C24.6505 23.8898 24.7861 23.776 24.9188 23.6594C27.1982 21.6775 28.639 18.7608 28.639 15.5C28.639 12.2406 27.1997 9.3225 24.9188 7.34062C24.7876 7.22396 24.6505 7.11312 24.5105 7.00375Z" />
	</symbol>

	<symbol id="Pix" viewBox="0 0 49 32" fill="none"
		xmlns="http://www.w3.org/2000/svg">
		<path d="M20.3406 22.0724V14.0428C20.3406 13.3334 20.6224 12.6531 21.124 12.1515C21.6256 11.6498 22.3059 11.368 23.0153 11.368L25.3859 11.3713C26.0934 11.3728 26.7715 11.6549 27.2712 12.1557C27.771 12.6566 28.0516 13.3353 28.0515 14.0428V15.7516C28.0515 16.461 27.7697 17.1414 27.2681 17.6431C26.7665 18.1447 26.0862 18.4266 25.3768 18.4267H22.0262" stroke="currentColor" stroke-linecap="round" stroke-linejoin="round" />
		<path d="M28.7141 11.3676H29.7425C30.0337 11.3676 30.3129 11.4833 30.5188 11.6892C30.7247 11.8951 30.8404 12.1743 30.8404 12.4655V18.4631" stroke="currentColor" stroke-linecap="round" stroke-linejoin="round" />
		<path d="M30.6194 10.4384L30.1532 9.97175C30.1257 9.94427 30.1038 9.91163 30.089 9.87571C30.0741 9.83978 30.0664 9.80128 30.0664 9.76239C30.0664 9.72351 30.0741 9.685 30.089 9.64908C30.1038 9.61316 30.1257 9.58052 30.1532 9.55303L30.6194 9.08678C30.6751 9.03117 30.7505 8.99994 30.8292 8.99994C30.9079 8.99994 30.9833 9.03117 31.039 9.08678L31.5048 9.55303C31.5323 9.58052 31.5541 9.61316 31.569 9.64908C31.5839 9.685 31.5916 9.72351 31.5916 9.76239C31.5916 9.80128 31.5839 9.83978 31.569 9.87571C31.5541 9.91163 31.5323 9.94427 31.5048 9.97175L31.0369 10.4384C31.0094 10.4659 30.9767 10.4878 30.9408 10.5027C30.9048 10.5176 30.8663 10.5252 30.8273 10.5252C30.7884 10.5252 30.7499 10.5176 30.7139 10.5027C30.678 10.4878 30.6453 10.4659 30.6178 10.4384" fill="currentColor" />
		<path d="M32.8145 11.3622H33.8342C34.3587 11.362 34.8619 11.5702 35.2329 11.9409L37.6183 14.3263C37.6918 14.3999 37.779 14.4582 37.875 14.498C37.971 14.5378 38.0739 14.5583 38.1778 14.5583C38.2817 14.5583 38.3846 14.5378 38.4806 14.498C38.5766 14.4582 38.6638 14.3999 38.7373 14.3263L41.114 11.95C41.2976 11.7664 41.5157 11.6208 41.7556 11.5215C41.9955 11.4222 42.2527 11.3712 42.5124 11.3713H43.3415" stroke="currentColor" stroke-linecap="round" stroke-linejoin="round" />
		<path d="M32.8145 18.4107H33.8342C34.3587 18.4108 34.8618 18.2027 35.2329 17.832L37.6183 15.4466C37.7668 15.2983 37.968 15.215 38.1778 15.215C38.3876 15.215 38.5888 15.2983 38.7373 15.4466L41.114 17.8233C41.485 18.194 41.9879 18.4021 42.5124 18.402H43.3415" stroke="currentColor" stroke-linecap="round" stroke-linejoin="round" />
		<path d="M14.2607 19.9342C14.0091 19.9352 13.7598 19.8862 13.5272 19.7902C13.2947 19.6942 13.0834 19.5531 12.9057 19.375L10.9485 17.4166C10.8793 17.3504 10.7872 17.3134 10.6914 17.3134C10.5957 17.3134 10.5036 17.3504 10.4343 17.4166L8.47054 19.3804C8.29294 19.5587 8.08176 19.7001 7.8492 19.7964C7.61663 19.8927 7.3673 19.9419 7.11559 19.9413H6.73242L9.21249 22.4213C9.58445 22.7925 10.0885 23.001 10.6139 23.001C11.1394 23.001 11.6434 22.7925 12.0154 22.4213L14.5004 19.9359L14.2607 19.9342Z" fill="currentColor" />
		<path d="M7.11601 13.0132C7.36771 13.0125 7.61706 13.0617 7.84962 13.158C8.08219 13.2543 8.29337 13.3957 8.47095 13.5741L10.4348 15.5383C10.503 15.6064 10.5955 15.6446 10.6919 15.6446C10.7882 15.6446 10.8807 15.6064 10.949 15.5383L12.9057 13.5815C13.0832 13.4029 13.2943 13.2613 13.5269 13.165C13.7595 13.0686 14.0089 13.0194 14.2607 13.0202H14.4963L12.0113 10.5352C11.8272 10.3511 11.6088 10.2051 11.3683 10.1054C11.1278 10.0058 10.8701 9.95453 10.6098 9.95453C10.3495 9.95453 10.0918 10.0058 9.85132 10.1054C9.61085 10.2051 9.39238 10.3511 9.20836 10.5352L6.73242 13.0132H7.11601Z" fill="currentColor" />
		<path d="M16.5517 15.0762L15.05 13.5745C15.0162 13.5883 14.98 13.5956 14.9434 13.596H14.2605C13.9052 13.5969 13.5646 13.738 13.3127 13.9887L11.356 15.9442C11.1797 16.1201 10.9409 16.2189 10.6919 16.2189C10.4429 16.2189 10.2041 16.1201 10.0279 15.9442L8.06367 13.9812C7.81189 13.7304 7.47127 13.5891 7.11587 13.5881H6.27761C6.24306 13.5873 6.20892 13.5805 6.17675 13.5679L4.66556 15.0762C4.29439 15.4481 4.08594 15.9521 4.08594 16.4776C4.08594 17.0031 4.29439 17.5071 4.66556 17.8791L6.17345 19.3869C6.20555 19.3741 6.23973 19.3672 6.2743 19.3667H7.11587C7.47126 19.3656 7.81187 19.2244 8.06367 18.9736L10.0275 17.0098C10.3825 16.6551 11.0013 16.6551 11.356 17.0098L13.3127 18.9662C13.5646 19.2168 13.9052 19.3579 14.2605 19.3588H14.9434C14.98 19.3591 15.0162 19.3664 15.05 19.3803L16.5517 17.8786C16.7358 17.6946 16.8818 17.4762 16.9815 17.2357C17.0811 16.9952 17.1324 16.7375 17.1324 16.4772C17.1324 16.2169 17.0811 15.9592 16.9815 15.7187C16.8818 15.4783 16.7358 15.2602 16.5517 15.0762Z" fill="currentColor" />
	</symbol>

	<symbol id="Visa" viewBox="0 0 49 32" fill="currentColor"
		xmlns="http://www.w3.org/2000/svg">
		<path fill-rule="evenodd" clip-rule="evenodd" d="M15.2187 21.9066H12.0577L9.68724 12.5973C9.57473 12.1691 9.33584 11.7905 8.98444 11.6121C8.10747 11.1637 7.14112 10.8068 6.08691 10.6268V10.2684H11.1792C11.882 10.2684 12.4091 10.8068 12.4969 11.4321L13.7268 18.1472L16.8863 10.2684H19.9596L15.2187 21.9066Z" />
		<path fill-rule="evenodd" clip-rule="evenodd" d="M21.7166 21.9066H18.7312L21.1895 10.2684H24.1748L21.7166 21.9066Z" />
		<path fill-rule="evenodd" clip-rule="evenodd" d="M28.0374 13.4925C28.1252 12.8657 28.6523 12.5073 29.2673 12.5073C30.2336 12.4173 31.2863 12.5973 32.1648 13.0441L32.6919 10.5384C31.8134 10.18 30.8471 10 29.9701 10C27.0726 10 24.9642 11.6121 24.9642 13.8494C24.9642 15.5514 26.4576 16.4451 27.5118 16.9835C28.6523 17.5203 29.0916 17.8787 29.0037 18.4156C29.0037 19.2208 28.1252 19.5792 27.2483 19.5792C26.1941 19.5792 25.1399 19.3108 24.1751 18.8624L23.6479 21.3697C24.7022 21.8166 25.8427 21.9965 26.8969 21.9965C30.1458 22.085 32.1648 20.4745 32.1648 18.0572C32.1648 15.013 28.0374 14.8346 28.0374 13.4925V13.4925Z" />
		<path fill-rule="evenodd" clip-rule="evenodd" d="M40.2424 10.2684L42.6128 21.9066H39.891L39.5396 20.2061H35.7635L35.1501 21.9066H32.0769L36.4663 11.1637C36.642 10.6268 37.1691 10.2684 37.6962 10.2684H40.2424ZM39.0122 17.7887L38.1353 13.4025L36.554 17.7887H39.0122Z" />
	</symbol>
	<symbol id="ArrowUp" viewBox="0 0 28 28" fill="none"
		xmlns="http://www.w3.org/2000/svg">
		<g id="Frame" clip-path="url(#clip0_1128_8653)">
			<path id="Vector" d="M10.4985 23.3345V14.0011H6.31486C6.08415 14.0011 5.85863 13.9326 5.66682 13.8044C5.47501 13.6762 5.32551 13.494 5.23723 13.2809C5.14895 13.0677 5.12585 12.8332 5.17084 12.6069C5.21584 12.3806 5.32691 12.1728 5.49002 12.0096L13.1737 4.32596C13.3925 4.10724 13.6892 3.98438 13.9985 3.98438C14.3079 3.98438 14.6046 4.10724 14.8234 4.32596L22.507 12.0096C22.6701 12.1728 22.7812 12.3806 22.8262 12.6069C22.8712 12.8332 22.8481 13.0677 22.7598 13.2809C22.6715 13.494 22.522 13.6762 22.3302 13.8044C22.1384 13.9326 21.9129 14.0011 21.6822 14.0011H17.4985V23.3345C17.4985 23.6439 17.3756 23.9406 17.1568 24.1594C16.938 24.3782 16.6413 24.5011 16.3319 24.5011H11.6652C11.3558 24.5011 11.059 24.3782 10.8402 24.1594C10.6214 23.9406 10.4985 23.6439 10.4985 23.3345Z" stroke="#0070F7" stroke-width="1.75" stroke-linecap="round" stroke-linejoin="round" />
		</g>
		<defs>
			<clipPath id="clip0_1128_8653">
				<rect width="28" height="28" fill="white" />
			</clipPath>
		</defs>
	</symbol>


	<symbol id="Cloud" viewBox="0 0 28 28" fill="none"
		xmlns="http://www.w3.org/2000/svg">
		<g id="Frame" clip-path="url(#clip0_1128_8648)">
			<path id="Vector" d="M7.7652 21.0025C4.76453 21.0025 2.33203 18.661 2.33203 15.7723C2.33203 12.8848 4.76453 10.5433 7.7652 10.5433C8.2237 8.48764 9.8582 6.80997 12.0527 6.14147C14.246 5.47414 16.668 5.9163 18.404 7.30814C20.14 8.69647 20.9264 10.8163 20.469 12.872H21.624C23.8559 12.872 25.6654 14.692 25.6654 16.939C25.6654 19.1871 23.8559 21.0071 21.6229 21.0071H7.7652" stroke="#0070F7" stroke-width="1.75" stroke-linecap="round" stroke-linejoin="round" />
			<path id="Vector (Stroke)" d="M7.7652 21.8785C7.73219 21.8785 7.69961 21.8766 7.66755 21.8731C4.25931 21.8227 1.45703 19.1395 1.45703 15.7686C1.45703 12.5901 3.95022 10.0226 7.09326 9.69905C7.18031 9.44199 7.28351 9.19159 7.40175 8.9489C8.24238 7.22346 9.8358 5.89843 11.7977 5.30078V21.8785H7.7652Z" fill="#0070F7" />
			<path id="Vector (Stroke)_2" d="M11.1209 7.8302C12.3056 7.12236 13.7711 6.85975 15.1884 7.11745C16.6052 7.37504 17.8176 8.1231 18.5805 9.15723C19.3389 10.1855 19.6002 11.4202 19.3358 12.598C19.2588 12.9412 19.3419 13.3007 19.5616 13.5753C19.7814 13.8499 20.1141 14.0097 20.4658 14.0097H21.621C22.3862 14.0097 23.1201 14.3137 23.6611 14.8548C24.2022 15.3959 24.5062 16.1297 24.5062 16.8949C24.5062 17.6601 24.2022 18.394 23.6611 18.9351C23.1201 19.4762 22.3862 19.7801 21.621 19.7801H7.75827C6.60783 19.7801 5.51428 19.3425 4.71577 18.5787C3.91904 17.8167 3.48154 16.7943 3.48154 15.7397C3.48154 14.6851 3.91904 13.6628 4.71577 12.9007C5.51428 12.1369 6.60783 11.6993 7.75827 11.6993C8.30014 11.6993 8.76956 11.3235 8.88824 10.7948C9.15362 9.61254 9.93896 8.53636 11.1209 7.8302ZM15.6028 4.83863C13.6499 4.48356 11.6128 4.8382 9.93288 5.84189C8.51341 6.68999 7.43288 7.95353 6.88003 9.43973C5.4692 9.62252 4.14358 10.2428 3.11478 11.2269C1.87308 12.4146 1.16536 14.0368 1.16536 15.7397C1.16536 17.4426 1.87308 19.0648 3.11478 20.2525C4.35474 21.4386 6.02594 22.0963 7.75827 22.0963H21.621C23.0005 22.0963 24.3235 21.5483 25.2989 20.5729C26.2744 19.5974 26.8224 18.2744 26.8224 16.8949C26.8224 15.5154 26.2744 14.1925 25.2989 13.217C24.3545 12.2725 23.0842 11.7288 21.7523 11.6952C21.752 10.3045 21.2987 8.94049 20.4444 7.78233C19.3055 6.23829 17.5561 5.19379 15.6028 4.83863Z" fill="#0070F7" stroke="white" stroke-width="0.583333" stroke-linecap="round" stroke-linejoin="round" />
		</g>
		<defs>
			<clipPath id="clip0_1128_8648">
				<rect width="28" height="28" fill="white" />
			</clipPath>
		</defs>
	</symbol>

	<symbol id="Check"
		xmlns="http://www.w3.org/2000/svg" class="icon icon-tabler icon-tabler-check" width="24" height="24" viewBox="0 0 24 24" stroke-width="1.5" stroke="currentColor" fill="none" stroke-linecap="round" stroke-linejoin="round">
		<path stroke="none" d="M0 0h24v24H0z" fill="none" />
		<path d="M5 12l5 5l10 -10" />
	</symbol>

	<symbol id="MagnifyingGlassFound" viewBox="0 0 50 49" fill="none"
		xmlns="http://www.w3.org/2000/svg">
		<path fill-rule="evenodd" clip-rule="evenodd" d="M20.9154 8.16732C14.1499 8.16732 8.66536 13.6518 8.66536 20.4173C8.66536 27.1828 14.1499 32.6673 20.9154 32.6673C27.6809 32.6673 33.1654 27.1828 33.1654 20.4173C33.1654 13.6518 27.6809 8.16732 20.9154 8.16732ZM4.58203 20.4173C4.58203 11.3967 11.8947 4.08398 20.9154 4.08398C29.936 4.08398 37.2487 11.3967 37.2487 20.4173C37.2487 24.1918 35.9684 27.6672 33.8184 30.433L44.8174 41.432C45.6147 42.2293 45.6147 43.522 44.8174 44.3193C44.0201 45.1166 42.7273 45.1166 41.93 44.3193L30.9311 33.3204C28.1652 35.4704 24.6898 36.7506 20.9154 36.7506C11.8947 36.7506 4.58203 29.438 4.58203 20.4173ZM20.9154 12.2507C22.0429 12.2507 22.957 13.1647 22.957 14.2923V20.4173C22.957 21.5449 22.0429 22.459 20.9154 22.459C19.7878 22.459 18.8737 21.5449 18.8737 20.4173V14.2923C18.8737 13.1647 19.7878 12.2507 20.9154 12.2507ZM20.9154 24.5006C22.0429 24.5006 22.957 25.4147 22.957 26.5423V26.5627C22.957 27.6903 22.0429 28.6044 20.9154 28.6044C19.7878 28.6044 18.8737 27.6903 18.8737 26.5627V26.5423C18.8737 25.4147 19.7878 24.5006 20.9154 24.5006Z" fill="black" />
	</symbol>


</svg>

	