<svg style="display:none">
	<symbol id="MinusSign" viewBox="0 0 17 16" fill="none"
		xmlns="http://www.w3.org/2000/svg">
		<path fill-rule="evenodd" clip-rule="evenodd" d="M3.51562 7.9987C3.51562 7.63051 3.8141 7.33203 4.18229 7.33203H13.5156C13.8838 7.33203 14.1823 7.63051 14.1823 7.9987C14.1823 8.36689 13.8838 8.66536 13.5156 8.66536H4.18229C3.8141 8.66536 3.51562 8.36689 3.51562 7.9987Z" fill="currentColor" />
	</symbol>
	<symbol id="PlusSign" viewBox="0 0 17 16" fill="none"
		xmlns="http://www.w3.org/2000/svg">
		<path fill-rule="evenodd" clip-rule="evenodd" d="M8.84896 2.66797C9.21715 2.66797 9.51562 2.96645 9.51562 3.33464V7.33464H13.5156C13.8838 7.33464 14.1823 7.63311 14.1823 8.0013C14.1823 8.36949 13.8838 8.66797 13.5156 8.66797H9.51562V12.668C9.51562 13.0362 9.21715 13.3346 8.84896 13.3346C8.48077 13.3346 8.18229 13.0362 8.18229 12.668V8.66797H4.18229C3.8141 8.66797 3.51562 8.36949 3.51562 8.0013C3.51562 7.63311 3.8141 7.33464 4.18229 7.33464H8.18229V3.33464C8.18229 2.96645 8.48077 2.66797 8.84896 2.66797Z" fill="currentColor" />
	</symbol>

	<symbol id="ChevronLeft" viewBox="0 0 20 20" fill="none"
		xmlns="http://www.w3.org/2000/svg">
		<path fill-rule="evenodd" clip-rule="evenodd" d="M13.0906 4.41205C13.416 4.73748 13.416 5.26512 13.0906 5.59056L8.67981 10.0013L13.0906 14.412C13.416 14.7375 13.416 15.2651 13.0906 15.5906C12.7651 15.916 12.2375 15.916 11.912 15.5906L6.91205 10.5906C6.58661 10.2651 6.58661 9.73748 6.91205 9.41205L11.912 4.41205C12.2375 4.08661 12.7651 4.08661 13.0906 4.41205Z" fill="currentColor"/>
	</symbol>
	<symbol id="ChevronRight" viewBox="0 0 20 20" fill="none"
		xmlns="http://www.w3.org/2000/svg">
		<path fill-rule="evenodd" clip-rule="evenodd" d="M6.91205 4.41205C7.23748 4.08661 7.76512 4.08661 8.09056 4.41205L13.0906 9.41205C13.416 9.73748 13.416 10.2651 13.0906 10.5906L8.09056 15.5906C7.76512 15.916 7.23748 15.916 6.91205 15.5906C6.58661 15.2651 6.58661 14.7375 6.91205 14.412L11.3228 10.0013L6.91205 5.59056C6.58661 5.26512 6.58661 4.73748 6.91205 4.41205Z" fill="currentColor"/>
	</symbol>

	<symbol id="ChevronUp"
		xmlns="http://www.w3.org/2000/svg" viewBox="0 0 25 24" fill="currentColor">
		<path fill-rule="evenodd" clip-rule="evenodd" d="M11.7929 8.29289C12.1834 7.90237 12.8166 7.90237 13.2071 8.29289L19.2071 14.2929C19.5976 14.6834 19.5976 15.3166 19.2071 15.7071C18.8166 16.0976 18.1834 16.0976 17.7929 15.7071L12.5 10.4142L7.20711 15.7071C6.81658 16.0976 6.18342 16.0976 5.79289 15.7071C5.40237 15.3166 5.40237 14.6834 5.79289 14.2929L11.7929 8.29289Z" />
	</symbol>
	<symbol id="ChevronDown"
		xmlns="http://www.w3.org/2000/svg" viewBox="0 0 32 32" fill="currentColor">
		<path fill-rule="evenodd" clip-rule="evenodd" d="M7.05703 11.0572C7.57773 10.5365 8.42195 10.5365 8.94265 11.0572L15.9998 18.1144L23.057 11.0572C23.5777 10.5365 24.4219 10.5365 24.9426 11.0572C25.4633 11.5779 25.4633 12.4221 24.9426 12.9428L16.9426 20.9428C16.4219 21.4635 15.5777 21.4635 15.057 20.9428L7.05703 12.9428C6.53633 12.4221 6.53633 11.5779 7.05703 11.0572Z" />
	</symbol>
	<symbol xmlns="http://www.w3.org/2000/svg" id="ArrowRight" viewBox="0 0 20 20" fill="none">
		<path fill-rule="evenodd" clip-rule="evenodd" d="M10.2428 4.41009C10.5682 4.08466 11.0958 4.08466 11.4213 4.41009L16.4213 9.41009C16.7467 9.73553 16.7467 10.2632 16.4213 10.5886L11.4213 15.5886C11.0958 15.914 10.5682 15.914 10.2428 15.5886C9.91734 15.2632 9.91734 14.7355 10.2428 14.4101L13.8202 10.8327H4.16536C3.70513 10.8327 3.33203 10.4596 3.33203 9.99935C3.33203 9.53911 3.70513 9.16602 4.16536 9.16602H13.8202L10.2428 5.5886C9.91734 5.26317 9.91734 4.73553 10.2428 4.41009Z" fill="currentColor" />
	</symbol>

	<symbol id="QuestionMarkCircle"  viewBox="0 0 20 20" fill="none" xmlns="http://www.w3.org/2000/svg">
		<g clip-path="url(#clip0_539_13195)">
		<path d="M2.5 10C2.5 10.9849 2.69399 11.9602 3.0709 12.8701C3.44781 13.7801 4.00026 14.6069 4.6967 15.3033C5.39314 15.9997 6.21993 16.5522 7.12987 16.9291C8.03982 17.306 9.01509 17.5 10 17.5C10.9849 17.5 11.9602 17.306 12.8701 16.9291C13.7801 16.5522 14.6069 15.9997 15.3033 15.3033C15.9997 14.6069 16.5522 13.7801 16.9291 12.8701C17.306 11.9602 17.5 10.9849 17.5 10C17.5 9.01509 17.306 8.03982 16.9291 7.12987C16.5522 6.21993 15.9997 5.39314 15.3033 4.6967C14.6069 4.00026 13.7801 3.44781 12.8701 3.0709C11.9602 2.69399 10.9849 2.5 10 2.5C9.01509 2.5 8.03982 2.69399 7.12987 3.0709C6.21993 3.44781 5.39314 4.00026 4.6967 4.6967C4.00026 5.39314 3.44781 6.21993 3.0709 7.12987C2.69399 8.03982 2.5 9.01509 2.5 10Z" stroke="black" stroke-width="1.25" stroke-linecap="round" stroke-linejoin="round"/>
		<path d="M10 14.168V14.1763" stroke="black" stroke-width="1.25" stroke-linecap="round" stroke-linejoin="round"/>
		<path d="M10.0026 11.249C9.98726 10.9785 10.0602 10.7103 10.2105 10.4848C10.3608 10.2594 10.5803 10.0889 10.8359 9.999C11.1492 9.87922 11.4303 9.68836 11.6572 9.44146C11.8842 9.19456 12.0507 8.89835 12.1437 8.57616C12.2367 8.25396 12.2537 7.91458 12.1932 7.58472C12.1328 7.25486 11.9966 6.94354 11.7954 6.67526C11.5942 6.40698 11.3334 6.18907 11.0337 6.03868C10.7339 5.88829 10.4034 5.80953 10.068 5.8086C9.73269 5.80767 9.40171 5.8846 9.10114 6.03332C8.80057 6.18204 8.53863 6.39851 8.33594 6.66567" stroke="black" stroke-width="1.25" stroke-linecap="round" stroke-linejoin="round"/>
		</g>
		<defs>
		<clipPath id="clip0_539_13195">
		<rect width="20" height="20" fill="currentColor"/>
		</clipPath>
		</defs>
	</symbol>
			
	<symbol id="User" viewBox="0 0 20 20" fill="none"
		xmlns="http://www.w3.org/2000/svg">
		<path fill-rule="evenodd" clip-rule="evenodd" d="M10.0003 3.33366C8.61961 3.33366 7.50033 4.45295 7.50033 5.83366C7.50033 7.21437 8.61961 8.33366 10.0003 8.33366C11.381 8.33366 12.5003 7.21437 12.5003 5.83366C12.5003 4.45295 11.381 3.33366 10.0003 3.33366ZM5.83366 5.83366C5.83366 3.53247 7.69914 1.66699 10.0003 1.66699C12.3015 1.66699 14.167 3.53247 14.167 5.83366C14.167 8.13484 12.3015 10.0003 10.0003 10.0003C7.69914 10.0003 5.83366 8.13484 5.83366 5.83366ZM8.33366 13.3337C7.67062 13.3337 7.03473 13.597 6.56589 14.0659C6.09705 14.5347 5.83366 15.1706 5.83366 15.8337V17.5003C5.83366 17.9606 5.46056 18.3337 5.00033 18.3337C4.54009 18.3337 4.16699 17.9606 4.16699 17.5003V15.8337C4.16699 14.7286 4.60598 13.6688 5.38738 12.8874C6.16878 12.106 7.22859 11.667 8.33366 11.667H11.667C12.7721 11.667 13.8319 12.106 14.6133 12.8874C15.3947 13.6688 15.8337 14.7286 15.8337 15.8337V17.5003C15.8337 17.9606 15.4606 18.3337 15.0003 18.3337C14.5401 18.3337 14.167 17.9606 14.167 17.5003V15.8337C14.167 15.1706 13.9036 14.5347 13.4348 14.0659C12.9659 13.597 12.33 13.3337 11.667 13.3337H8.33366Z" fill="currentColor" />
	</symbol>
	
		<symbol id="ShoppingCart" viewBox="0 0 18 21" fill="none" xmlns="http://www.w3.org/2000/svg">
			<path fill-rule="evenodd" clip-rule="evenodd" d="M9.00126 2.25C8.40452 2.25 7.83222 2.48705 7.41027 2.90901C6.98831 3.33097 6.75126 3.90326 6.75126 4.5V5.75H11.2513V4.5C11.2513 3.90326 11.0142 3.33097 10.5922 2.90901C10.1703 2.48705 9.59799 2.25 9.00126 2.25ZM12.7513 5.75V4.5C12.7513 3.50544 12.3562 2.55161 11.6529 1.84835C10.9496 1.14509 9.99582 0.75 9.00126 0.75C8.00669 0.75 7.05287 1.14509 6.34961 1.84835C5.64634 2.55161 5.25126 3.50544 5.25126 4.5V5.75H3.33235M5.25126 7.25H3.33226C3.15203 7.24998 2.97383 7.28893 2.81007 7.36419C2.6463 7.43944 2.50075 7.54922 2.38338 7.686C2.26602 7.82278 2.17962 7.98332 2.13011 8.15662C2.08061 8.32987 2.06915 8.51178 2.09652 8.68988C2.09652 8.68984 2.09653 8.68992 2.09652 8.68988L3.35153 16.8419C3.43322 17.3731 3.70238 17.8576 4.11026 18.2076C4.51814 18.5576 5.03782 18.75 5.57526 18.75C5.57525 18.75 5.57527 18.75 5.57526 18.75H12.4273C12.9648 18.7502 13.4849 18.5578 13.893 18.2078C14.301 17.8579 14.5703 17.3733 14.652 16.842L15.907 8.69C15.9344 8.51186 15.9229 8.32991 15.8734 8.15662C15.8239 7.98332 15.7375 7.82278 15.6201 7.686C15.5028 7.54922 15.3572 7.43944 15.1934 7.36419C15.0297 7.28893 14.8516 7.24998 14.6713 7.25H12.7513V9.5C12.7513 9.91421 12.4155 10.25 12.0013 10.25C11.587 10.25 11.2513 9.91421 11.2513 9.5V7.25H6.75126V9.5C6.75126 9.91421 6.41547 10.25 6.00126 10.25C5.58704 10.25 5.25126 9.91421 5.25126 9.5V7.25ZM12.7513 5.75H14.6712C14.6711 5.75 14.6712 5.75 14.6712 5.75C15.0676 5.74997 15.4595 5.83566 15.8198 6.00121C16.1801 6.16678 16.5003 6.40829 16.7585 6.7092C17.0167 7.01012 17.2068 7.36331 17.3157 7.74456C17.4246 8.12581 17.4498 8.5261 17.3895 8.918L16.1345 17.07C15.9984 17.9556 15.5496 18.7631 14.8695 19.3464C14.1895 19.9297 13.3231 20.2502 12.4273 20.25C12.4272 20.25 12.4273 20.25 12.4273 20.25H5.57526C4.67951 20.25 3.81332 19.9293 3.13351 19.346C2.45373 18.7627 2.00517 17.9554 1.86899 17.0701C1.86898 17.0701 1.869 17.0702 1.86899 17.0701L0.61399 8.91812C0.553721 8.52622 0.578894 8.12581 0.687817 7.74456C0.796739 7.36331 0.986818 7.01012 1.24502 6.7092C1.50323 6.40829 1.82345 6.16678 2.18373 6.00121C2.54399 5.83566 2.93587 5.74997 3.33235 5.75" fill="currentColor"/>
		</symbol>
			

	<symbol id="Bars3"
		xmlns="http://www.w3.org/2000/svg" viewBox="0 0 20 20" stroke="currentColor" fill="none">
		<path fill-rule="evenodd" clip-rule="evenodd" d="M2.5 5.00033C2.5 4.54009 2.8731 4.16699 3.33333 4.16699H16.6667C17.1269 4.16699 17.5 4.54009 17.5 5.00033C17.5 5.46056 17.1269 5.83366 16.6667 5.83366H3.33333C2.8731 5.83366 2.5 5.46056 2.5 5.00033ZM2.5 10.0003C2.5 9.54009 2.8731 9.16699 3.33333 9.16699H16.6667C17.1269 9.16699 17.5 9.54009 17.5 10.0003C17.5 10.4606 17.1269 10.8337 16.6667 10.8337H3.33333C2.8731 10.8337 2.5 10.4606 2.5 10.0003ZM2.5 15.0003C2.5 14.5401 2.8731 14.167 3.33333 14.167H16.6667C17.1269 14.167 17.5 14.5401 17.5 15.0003C17.5 15.4606 17.1269 15.8337 16.6667 15.8337H3.33333C2.8731 15.8337 2.5 15.4606 2.5 15.0003Z" fill="currentColor" />
	</symbol>
	<symbol id="Heart"
		xmlns="http://www.w3.org/2000/svg" viewBox="0 0 24 24" stroke="currentColor">
		<path stroke-linecap="round" stroke-linejoin="round" d="M21 8.25c0-2.485-2.099-4.5-4.688-4.5-1.935 0-3.597 1.126-4.312 2.733-.715-1.607-2.377-2.733-4.313-2.733C5.1 3.75 3 5.765 3 8.25c0 7.22 9 12 9 12s9-4.78 9-12z" />
	</symbol>
	<symbol id="MagnifyingGlass" viewBox="0 0 20 20" fill="none"
		xmlns="http://www.w3.org/2000/svg">
		<path fill-rule="evenodd" clip-rule="evenodd" d="M8.33366 3.33366C5.57223 3.33366 3.33366 5.57223 3.33366 8.33366C3.33366 11.0951 5.57223 13.3337 8.33366 13.3337C11.0951 13.3337 13.3337 11.0951 13.3337 8.33366C13.3337 5.57223 11.0951 3.33366 8.33366 3.33366ZM1.66699 8.33366C1.66699 4.65176 4.65176 1.66699 8.33366 1.66699C12.0156 1.66699 15.0003 4.65176 15.0003 8.33366C15.0003 9.87425 14.4778 11.2928 13.6002 12.4217L18.0896 16.9111C18.415 17.2365 18.415 17.7641 18.0896 18.0896C17.7641 18.415 17.2365 18.415 16.9111 18.0896L12.4217 13.6002C11.2928 14.4778 9.87425 15.0003 8.33366 15.0003C4.65176 15.0003 1.66699 12.0156 1.66699 8.33366Z" fill="currentColor" />
	</symbol>

	<symbol id="XMark" viewBox="0 0 20 20" fill="none"
		xmlns="http://www.w3.org/2000/svg">
		<path fill-rule="evenodd" clip-rule="evenodd" d="M4.41205 4.41205C4.73748 4.08661 5.26512 4.08661 5.59056 4.41205L10.0013 8.82279L14.412 4.41205C14.7375 4.08661 15.2651 4.08661 15.5906 4.41205C15.916 4.73748 15.916 5.26512 15.5906 5.59056L11.1798 10.0013L15.5906 14.412C15.916 14.7375 15.916 15.2651 15.5906 15.5906C15.2651 15.916 14.7375 15.916 14.412 15.5906L10.0013 11.1798L5.59056 15.5906C5.26512 15.916 4.73748 15.916 4.41205 15.5906C4.08661 15.2651 4.08661 14.7375 4.41205 14.412L8.82279 10.0013L4.41205 5.59056C4.08661 5.26512 4.08661 4.73748 4.41205 4.41205Z" fill="currentColor"/>
	</symbol>

	<symbol id="MapPin"
		xmlns="http://www.w3.org/2000/svg" fill="none" viewBox="0 0 24 24" stroke="currentColor">
		<path stroke-linecap="round" stroke-linejoin="round" d="M15 10.5a3 3 0 11-6 0 3 3 0 016 0z" />
		<path stroke-linecap="round" stroke-linejoin="round" d="M19.5 10.5c0 7.142-7.5 11.25-7.5 11.25S4.5 17.642 4.5 10.5a7.5 7.5 0 1115 0z" />
	</symbol>
	<symbol id="Phone"
		xmlns="http://www.w3.org/2000/svg" fill="currentColor" viewBox="0 0 32 32">
		<path fill-rule="evenodd" clip-rule="evenodd" d="M6.66669 6.66667C6.31306 6.66667 5.97393 6.80714 5.72388 7.05719C5.4819 7.29917 5.34253 7.62459 5.33379 7.96582C5.64045 12.8244 7.70881 17.405 11.1519 20.8481C14.5951 24.2912 19.1756 26.3596 24.0342 26.6662C24.3754 26.6575 24.7008 26.5181 24.9428 26.2761C25.1929 26.0261 25.3334 25.687 25.3334 25.3333V20.9027L20.5591 18.993L19.1433 21.3527C18.7863 21.9477 18.0326 22.1694 17.4103 21.8625C14.2517 20.3047 11.6953 17.7483 10.1375 14.5898C9.83061 13.9674 10.0523 13.2137 10.6474 12.8567L13.007 11.4409L11.0973 6.66667H6.66669ZM3.83826 5.17157C4.58841 4.42143 5.60582 4 6.66669 4H12C12.5452 4 13.0355 4.33193 13.238 4.83815L15.9047 11.5048C16.1477 12.1124 15.9138 12.8066 15.3527 13.1433L13.1207 14.4825C14.2192 16.274 15.726 17.7809 17.5175 18.8793L18.8567 16.6473C19.1934 16.0862 19.8876 15.8523 20.4952 16.0954L27.1619 18.762C27.6681 18.9645 28 19.4548 28 20V25.3333C28 26.3942 27.5786 27.4116 26.8284 28.1618C26.0783 28.9119 25.0609 29.3333 24 29.3333C23.973 29.3333 23.9461 29.3325 23.9191 29.3309C18.3931 28.9951 13.181 26.6484 9.26632 22.7337C5.35161 18.819 3.00496 13.6069 2.66914 8.08088C2.66751 8.05395 2.66669 8.02698 2.66669 8C2.66669 6.93913 3.08811 5.92172 3.83826 5.17157Z" />
	</symbol>
	<symbol id="Elos"
		xmlns="http://www.w3.org/2000/svg" viewBox="0 0 40 14" stroke="currentColor" fill="none">
		<path d="M6.57655 3.09309C6.98496 2.95495 7.4234 2.88288 7.87985 2.88288C9.87385 2.88288 11.5375 4.3003 11.9159 6.18018L14.7387 5.6036C14.0901 2.40841 11.2672 0 7.87985 0C7.10508 0 6.36033 0.126126 5.66364 0.36036L6.57655 3.09309Z" fill="currentColor" />
		<path d="M3.24323 12.2463L5.15314 10.0841C4.30029 9.32733 3.76576 8.22823 3.76576 6.997C3.76576 5.77178 4.30029 4.66667 5.15314 3.91592L3.24323 1.75977C1.79579 3.04505 0.882874 4.91292 0.882874 7.00301C0.882874 9.08709 1.79579 10.961 3.24323 12.2463Z" fill="currentColor" />
		<path d="M11.9159 7.82617C11.5315 9.70605 9.87387 11.1175 7.87988 11.1175C7.42342 11.1175 6.98498 11.0454 6.57057 10.9073L5.65765 13.64C6.35435 13.8742 7.1051 14.0003 7.87988 14.0003C11.2673 14.0003 14.0901 11.5979 14.7387 8.40275L11.9159 7.82617Z" fill="currentColor" />
		<path d="M24.1441 9.75962C23.6757 10.2161 23.045 10.4924 22.3484 10.4803C21.8679 10.4743 21.4234 10.3302 21.0511 10.0899L20.1141 11.5794C20.7568 11.9818 21.5075 12.2221 22.3243 12.2341C23.5075 12.2521 24.5886 11.7836 25.3754 11.0209L24.1441 9.75962ZM22.4505 3.68755C20.0961 3.65151 18.1502 5.5374 18.1141 7.89175C18.1021 8.77463 18.3544 9.60346 18.8048 10.2881L26.5405 6.97884C26.1081 5.12298 24.4505 3.72358 22.4505 3.68755ZM19.8859 8.22809C19.8739 8.13199 19.8679 8.02989 19.8679 7.92779C19.8919 6.5404 21.033 5.42929 22.4204 5.45331C23.1772 5.46532 23.8499 5.80767 24.3003 6.34821L19.8859 8.22809ZM28.973 1.76562V10.0119L30.4024 10.6065L29.7237 12.2341L28.3063 11.6455C27.988 11.5074 27.7718 11.2972 27.6096 11.0569C27.4535 10.8167 27.3333 10.4803 27.3333 10.0359V1.76562H28.973Z" fill="currentColor" />
		<path d="M34.1321 5.57925C34.3844 5.49516 34.6487 5.45312 34.9309 5.45312C36.1502 5.45312 37.1592 6.31798 37.3934 7.46513L39.1171 7.11078C38.7207 5.15882 36.997 3.69336 34.9309 3.69336C34.4565 3.69336 34 3.77144 33.5796 3.90958L34.1321 5.57925ZM32.0961 11.1588L33.2613 9.84351C32.7387 9.38105 32.4144 8.70837 32.4144 7.95762C32.4144 7.20687 32.7448 6.5342 33.2613 6.07774L32.0961 4.76243C31.2132 5.54321 30.6547 6.69036 30.6547 7.96363C30.6547 9.2369 31.2132 10.378 32.0961 11.1588ZM37.3934 8.46813C37.1592 9.61528 36.1442 10.4801 34.9309 10.4801C34.6547 10.4801 34.3844 10.4321 34.1321 10.348L33.5736 12.0177C34 12.1618 34.4565 12.2399 34.9309 12.2399C36.997 12.2399 38.7207 10.7744 39.1171 8.82249L37.3934 8.46813Z" fill="currentColor" />
	</symbol>
	<symbol id="Mastercards"
		xmlns="http://www.w3.org/2000/svg" viewBox="0 0 26 20" fill="none" stroke="currentColor">
		<g clip-path="url(#clip0_81_156)">
			<path d="M4.77191 19.9552V18.6263C4.77191 18.1167 4.46174 17.7846 3.95265 17.7846C3.68527 17.7846 3.39918 17.8734 3.19971 18.159C3.04463 17.9151 2.82538 17.7846 2.49116 17.7846C2.36689 17.7793 2.24323 17.8048 2.13124 17.8589C2.01926 17.913 1.92244 17.9941 1.84944 18.0948V17.8274H1.42859V19.9536H1.84944V18.737C1.84944 18.3627 2.07083 18.1836 2.381 18.1836C2.69116 18.1836 2.86816 18.383 2.86816 18.737V19.9552H3.28902V18.737C3.28902 18.3627 3.51041 18.1836 3.82057 18.1836C4.13073 18.1836 4.30773 18.383 4.30773 18.737V19.9552H4.77191ZM11.6821 17.8509H10.9067V17.2092H10.4869V17.8509H10.0441V18.2253H10.4869V19.2242C10.4869 19.7114 10.6639 19.9996 11.1954 19.9996C11.3968 19.9954 11.5941 19.9422 11.7703 19.8445L11.6371 19.4702C11.5177 19.5449 11.3791 19.5833 11.2382 19.5809C11.0168 19.5809 10.9061 19.4477 10.9061 19.2263V18.2082H11.6815V17.8536L11.6821 17.8509ZM15.6243 17.7846C15.5097 17.7821 15.3964 17.8093 15.2954 17.8637C15.1945 17.918 15.1093 17.9977 15.0484 18.0948V17.8274H14.6275V19.9536H15.0484V18.7595C15.0484 18.405 15.2254 18.1836 15.5136 18.1836C15.6109 18.1875 15.7074 18.2024 15.8013 18.2279L15.9345 17.829C15.8329 17.8034 15.729 17.7885 15.6243 17.7846ZM9.66656 18.006C9.44517 17.8509 9.13501 17.7846 8.80292 17.7846C8.27137 17.7846 7.93928 18.0285 7.93928 18.4493C7.93928 18.8039 8.18314 19.0028 8.64784 19.0697L8.86923 19.0916C9.11308 19.136 9.26816 19.2247 9.26816 19.3354C9.26816 19.4905 9.09116 19.6028 8.75854 19.6028C8.50456 19.608 8.2558 19.5303 8.04998 19.3814L7.82859 19.7135C8.13875 19.9349 8.51522 19.9809 8.73768 19.9809C9.358 19.9809 9.69009 19.6932 9.69009 19.2943C9.69009 18.9199 9.42271 18.7408 8.95907 18.6739L8.73768 18.652C8.53822 18.6301 8.36335 18.5632 8.36335 18.4306C8.36335 18.2755 8.54036 18.1632 8.78421 18.1632C9.05159 18.1632 9.31576 18.2739 9.44891 18.3402L9.66656 18.006ZM16.0896 18.8921C16.0896 19.5338 16.5104 19.9996 17.197 19.9996C17.5072 19.9996 17.7286 19.9333 17.95 19.7558L17.7286 19.4237C17.5718 19.5506 17.3768 19.6209 17.1751 19.6231C16.8008 19.6231 16.5104 19.3354 16.5104 18.9146C16.5104 18.4937 16.797 18.2082 17.1751 18.2082C17.3768 18.2104 17.5718 18.2807 17.7286 18.4076L17.95 18.0755C17.7286 17.8985 17.5072 17.8317 17.197 17.8317C16.5323 17.7873 16.0896 18.2525 16.0896 18.8948V18.8921ZM13.1216 17.7846C12.5013 17.7846 12.0805 18.2274 12.0805 18.8921C12.0805 19.5568 12.5232 19.9996 13.1655 19.9996C13.4779 20.0062 13.7831 19.9046 14.0291 19.7119L13.8077 19.4017C13.6298 19.5396 13.4125 19.6172 13.1874 19.6231C12.8997 19.6231 12.5896 19.4461 12.5457 19.0697H14.1184V18.8927C14.1184 18.2279 13.7195 17.7852 13.1216 17.7852V17.7846ZM13.0997 18.1836C13.4099 18.1836 13.6313 18.383 13.6532 18.7151H12.5019C12.5682 18.405 12.7692 18.1836 13.0997 18.1836ZM7.36335 18.8921V17.829H6.94249V18.0964C6.78741 17.8969 6.56816 17.7862 6.25586 17.7862C5.658 17.7862 5.21469 18.2515 5.21469 18.8937C5.21469 19.536 5.65747 20.0012 6.25586 20.0012C6.56602 20.0012 6.78741 19.8905 6.94249 19.691V19.9584H7.36335V18.8921ZM5.658 18.8921C5.658 18.4932 5.90185 18.1836 6.32271 18.1836C6.72164 18.1836 6.96442 18.4937 6.96442 18.8921C6.96442 19.313 6.69704 19.6007 6.32271 19.6007C5.90185 19.6226 5.658 19.2905 5.658 18.8921ZM22.0259 17.7846C21.9113 17.7821 21.798 17.8093 21.697 17.8637C21.5961 17.918 21.5109 17.9977 21.45 18.0948V17.8274H21.0291V19.9536H21.4495V18.7595C21.4495 18.405 21.6265 18.1836 21.9147 18.1836C22.012 18.1875 22.1085 18.2024 22.2024 18.2279L22.3355 17.829C22.234 17.8034 22.13 17.7885 22.0254 17.7846H22.0259ZM20.3869 18.8921V17.829H19.966V18.0964C19.8109 17.8969 19.5917 17.7862 19.2794 17.7862C18.6815 17.7862 18.2382 18.2515 18.2382 18.8937C18.2382 19.536 18.681 20.0012 19.2794 20.0012C19.5896 20.0012 19.8109 19.8905 19.966 19.691V19.9584H20.3869V18.8921ZM18.6815 18.8921C18.6815 18.4932 18.9254 18.1836 19.3462 18.1836C19.7452 18.1836 19.988 18.4937 19.988 18.8921C19.988 19.313 19.7206 19.6007 19.3462 19.6007C18.9254 19.6226 18.6815 19.2905 18.6815 18.8921ZM24.6618 18.8921V16.9873H24.2409V18.0948C24.0858 17.8953 23.8666 17.7846 23.5543 17.7846C22.9564 17.7846 22.5131 18.2499 22.5131 18.8921C22.5131 19.5344 22.9559 19.9996 23.5543 19.9996C23.8644 19.9996 24.0858 19.8889 24.2409 19.6894V19.9568H24.6618V18.8921ZM22.9564 18.8921C22.9564 18.4932 23.2003 18.1836 23.6211 18.1836C24.02 18.1836 24.2628 18.4937 24.2628 18.8921C24.2628 19.313 23.9954 19.6007 23.6211 19.6007C23.1997 19.6231 22.9559 19.291 22.9559 18.8921H22.9564Z" fill="currentColor" />
			<path d="M9.95478 7.97327C9.95505 6.76731 10.2281 5.57704 10.7536 4.49159C11.279 3.40613 12.0433 2.45361 12.989 1.70535C11.8128 0.780601 10.4002 0.205442 8.9126 0.045623C7.42499 -0.114196 5.92242 0.147775 4.57667 0.801588C3.23091 1.4554 2.09627 2.47468 1.30244 3.74289C0.508619 5.01111 0.0876465 6.47709 0.0876465 7.97327C0.0876465 9.46944 0.508619 10.9354 1.30244 12.2036C2.09627 13.4719 3.23091 14.4911 4.57667 15.1449C5.92242 15.7988 7.42499 16.0607 8.9126 15.9009C10.4002 15.7411 11.8128 15.1659 12.989 14.2412C12.0433 13.4929 11.279 12.5404 10.7536 11.4549C10.2281 10.3695 9.95505 9.17922 9.95478 7.97327Z" fill="currentColor" />
			<path d="M25.9019 7.97297C25.9029 9.46805 25.4832 10.9333 24.6907 12.201C23.8982 13.4688 22.7648 14.4879 21.4203 15.1418C20.0758 15.7957 18.5744 16.0579 17.0879 15.8986C15.6013 15.7393 14.1896 15.1648 13.0142 14.2409C13.9601 13.4928 14.7245 12.5403 15.25 11.4548C15.7755 10.3693 16.0485 9.17898 16.0485 7.97297C16.0485 6.76696 15.7755 5.5766 15.25 4.4911C14.7245 3.4056 13.9601 2.45312 13.0142 1.70506C14.1896 0.781104 15.6013 0.20662 17.0879 0.0473072C18.5744 -0.112005 20.0758 0.150287 21.4203 0.804186C22.7648 1.45808 23.8982 2.47719 24.6907 3.74493C25.4832 5.01268 25.9029 6.47789 25.9019 7.97297Z" fill="currentColor" fill-opacity="0.4" />
			<path fill-rule="evenodd" clip-rule="evenodd" d="M13.0141 1.70508H12.989C12.0432 2.45333 11.279 3.40585 10.7536 4.49131C10.2281 5.57677 9.95504 6.76704 9.95477 7.97299C9.95504 9.17894 10.2281 10.3692 10.7536 11.4547C11.279 12.5401 12.0433 13.4926 12.989 14.2409H13.0141C13.0141 14.2409 13.0141 14.2409 13.0141 14.2409C13.9601 13.4928 14.7245 12.5404 15.25 11.4549C15.7755 10.3694 16.0484 9.17899 16.0484 7.97299C16.0484 6.76698 15.7755 5.57661 15.25 4.49111C14.7245 3.40561 13.9601 2.45314 13.0141 1.70508Z" fill="currentColor" fill-opacity="0.6" />
		</g>
		<defs>
			<clipPath id="clip0_81_156">
				<rect width="25.8027" height="20" fill="white" transform="translate(0.0986328)" />
			</clipPath>
		</defs>
	</symbol>
	<symbol id="Visas"
		xmlns="http://www.w3.org/2000/svg" viewBox="0 0 40 12" fill="none" stroke="currentColor">
		<path d="M14.2514 11.8628L16.2325 0.237305H19.4012L17.4187 11.8628H14.2514Z" fill="currentColor" />
		<path d="M28.8667 0.488266C28.2389 0.252744 27.2552 0 26.0267 0C22.8956 0 20.6902 1.57674 20.6714 3.83653C20.6537 5.50698 22.2459 6.43886 23.4479 6.99494C24.6813 7.56486 25.0959 7.92824 25.09 8.437C25.0821 9.21631 24.105 9.57221 23.1942 9.57221C21.926 9.57221 21.2522 9.39601 20.2115 8.96208L19.8031 8.77728L19.3585 11.3797C20.0986 11.7043 21.4671 11.9854 22.8882 12C26.2191 12 28.3815 10.4413 28.4061 8.02807C28.4179 6.70556 27.5737 5.69921 25.7455 4.86948C24.638 4.33169 23.9597 3.97282 23.9669 3.42826C23.9669 2.94504 24.541 2.42833 25.7816 2.42833C26.8177 2.41223 27.5684 2.6382 28.1533 2.87372L28.4372 3.00787L28.8667 0.488266Z" fill="currentColor" />
		<path d="M37.0208 0.237305H34.5723C33.8138 0.237305 33.2461 0.444322 32.913 1.20137L28.2071 11.8552H31.5345C31.5345 11.8552 32.0785 10.4228 32.2015 10.1082C32.5651 10.1082 35.7976 10.1132 36.2597 10.1132C36.3545 10.5202 36.6452 11.8552 36.6452 11.8552H39.5855L37.0208 0.237305ZM33.136 7.74409C33.3981 7.07428 34.3985 4.49428 34.3985 4.49428C34.3798 4.52522 34.6587 3.82121 34.8186 3.38473L35.0328 4.38703C35.0328 4.38703 35.6395 7.16205 35.7663 7.74391H33.136V7.74409Z" fill="currentColor" />
		<path d="M0.45503 0.237305L0.414551 0.479138C1.66716 0.782359 2.78593 1.22123 3.76542 1.76717L6.57706 11.8441L9.92966 11.8404L14.9183 0.237305H11.5615L8.45929 8.16502L8.12885 6.55384C8.11337 6.50406 8.09654 6.4542 8.07932 6.40422L7.00087 1.21879C6.80912 0.482646 6.25282 0.262959 5.56461 0.237305H0.45503Z" fill="currentColor" />
	</symbol>
	<symbol id="Pixs" viewBox="0 0 512 512"
		xmlns="http://www.w3.org/2000/svg" fill="none" stroke="currentColor">
		<defs />
		<g fill="currentColor" fill-rule="evenodd">
			<path d="M393.072 391.897c-20.082 0-38.969-7.81-53.176-22.02l-77.069-77.067c-5.375-5.375-14.773-5.395-20.17 0l-76.784 76.786c-14.209 14.207-33.095 22.019-53.179 22.019h-9.247l97.521 97.52c30.375 30.375 79.614 30.375 109.988 0l97.239-97.238h-15.123zm-105.049 74.327c-8.55 8.53-19.93 13.25-32.05 13.25h-.02c-12.12 0-23.522-4.721-32.05-13.25l-56.855-56.855c7.875-4.613 15.165-10.248 21.758-16.84l63.948-63.948 64.23 64.23c7.637 7.66 16.188 14.013 25.478 18.952l-54.439 54.46zM310.958 22.78c-30.374-30.374-79.613-30.374-109.988 0l-97.52 97.52h9.247c20.082 0 38.97 7.834 53.178 22.02l76.784 76.785c5.57 5.592 14.622 5.57 20.17 0l77.069-77.068c14.207-14.187 33.094-22.02 53.176-22.02h15.123l-97.239-97.237zm6.028 96.346l-64.23 64.23-63.97-63.97c-6.593-6.592-13.86-12.206-21.736-16.818l56.853-56.877c17.69-17.645 46.476-17.668 64.121 0l54.44 54.461c-9.292 4.961-17.842 11.315-25.479 18.974h.001z" />
			<path d="M489.149 200.97l-58.379-58.377h-37.706c-13.838 0-27.394 5.635-37.185 15.426l-77.068 77.069c-7.202 7.18-16.623 10.77-26.067 10.77-9.443 0-18.885-3.59-26.066-10.77l-76.785-76.785c-9.792-9.814-23.346-15.427-37.207-15.427h-31.81L22.78 200.97c-30.374 30.375-30.374 79.614 0 109.988l58.095 58.074 31.81.021c13.86 0 27.416-5.635 37.208-15.426l76.784-76.764c13.925-13.947 38.208-13.924 52.133-.02l77.068 77.066c9.791 9.792 23.346 15.405 37.185 15.405h37.706l58.379-58.356c30.374-30.374 30.374-79.613 0-109.988zm-362.19 129.724c-3.763 3.786-8.942 5.917-14.273 5.917H94.302l-48.59-48.564c-17.689-17.69-17.689-46.476 0-64.143L94.3 175.296h18.385c5.331 0 10.51 2.154 14.295 5.918l74.74 74.74-74.761 74.74zm339.257-42.647l-48.848 48.87h-24.305c-5.309 0-10.508-2.155-14.251-5.92l-75.023-75.043 75.023-75.023c3.743-3.764 8.942-5.918 14.252-5.918h24.304l48.847 48.891c8.573 8.551 13.273 19.93 13.273 32.05 0 12.141-4.7 23.52-13.273 32.093z" />
		</g>
	</symbol>
	<symbol id="Instagram"
		viewBox="0 0 20 20" fill="none" xmlns="http://www.w3.org/2000/svg">
		<path fill-rule="evenodd" clip-rule="evenodd" d="M6.66536 4.08594C5.98022 4.08594 5.32314 4.35811 4.83867 4.84258C4.3542 5.32705 4.08203 5.98413 4.08203 6.66927V13.3359C4.08203 14.0211 4.3542 14.6782 4.83867 15.1626C5.32314 15.6471 5.98022 15.9193 6.66536 15.9193H13.332C14.0172 15.9193 14.6743 15.6471 15.1587 15.1626C15.6432 14.6782 15.9154 14.0211 15.9154 13.3359V6.66927C15.9154 5.98413 15.6432 5.32705 15.1587 4.84258C14.6743 4.35811 14.0172 4.08594 13.332 4.08594H6.66536ZM3.77801 3.78192C4.54379 3.01614 5.5824 2.58594 6.66536 2.58594H13.332C14.415 2.58594 15.4536 3.01614 16.2194 3.78192C16.9852 4.54769 17.4154 5.5863 17.4154 6.66927V13.3359C17.4154 14.4189 16.9852 15.4575 16.2194 16.2233C15.4536 16.9891 14.415 17.4193 13.332 17.4193H6.66536C5.5824 17.4193 4.54378 16.9891 3.77801 16.2233C3.01224 15.4575 2.58203 14.4189 2.58203 13.3359V6.66927C2.58203 5.5863 3.01224 4.54769 3.77801 3.78192Z" fill="currentColor"/>
		<path fill-rule="evenodd" clip-rule="evenodd" d="M7.7019 7.7019C8.3114 7.09241 9.13805 6.75 10 6.75C10.862 6.75 11.6886 7.09241 12.2981 7.7019C12.9076 8.3114 13.25 9.13805 13.25 10C13.25 10.862 12.9076 11.6886 12.2981 12.2981C11.6886 12.9076 10.862 13.25 10 13.25C9.13805 13.25 8.3114 12.9076 7.7019 12.2981C7.09241 11.6886 6.75 10.862 6.75 10C6.75 9.13805 7.09241 8.3114 7.7019 7.7019ZM10 8.25C9.53587 8.25 9.09075 8.43437 8.76256 8.76256C8.43437 9.09075 8.25 9.53587 8.25 10C8.25 10.4641 8.43437 10.9092 8.76256 11.2374C9.09075 11.5656 9.53587 11.75 10 11.75C10.4641 11.75 10.9092 11.5656 11.2374 11.2374C11.5656 10.9092 11.75 10.4641 11.75 10C11.75 9.53587 11.5656 9.09075 11.2374 8.76256C10.9092 8.43437 10.4641 8.25 10 8.25Z" fill="currentColor"/>
		<path fill-rule="evenodd" clip-rule="evenodd" d="M13.75 5.5C14.1642 5.5 14.5 5.83579 14.5 6.25V6.25833C14.5 6.67255 14.1642 7.00833 13.75 7.00833C13.3358 7.00833 13 6.67255 13 6.25833V6.25C13 5.83579 13.3358 5.5 13.75 5.5Z" fill="currentColor"/>
	</symbol>	
	<symbol id="Truck" viewBox="0 0 40 40"
		xmlns="http://www.w3.org/2000/svg">
		<path fill-rule="evenodd" clip-rule="evenodd" d="M5 6.83203C4.17157 6.83203 3.5 7.5036 3.5 8.33203L3.50002 28.3322C3.50002 29.1606 4.17159 29.8322 5.00002 29.8322H7.07063C7.70176 31.7673 9.52093 33.1655 11.6667 33.1655C13.8124 33.1655 15.6316 31.7673 16.2627 29.8322H23.7373C24.3684 31.7673 26.1876 33.1655 28.3334 33.1655C30.4791 33.1655 32.2983 31.7673 32.9294 29.8322H35C35.8284 29.8322 36.5 29.1606 36.5 28.3322V18.3322C36.5 18.0603 36.4261 17.7936 36.2863 17.5605L31.2863 9.22712C31.0152 8.77531 30.5269 8.49886 30 8.49886H23.1667V8.33219C23.1667 7.50377 22.4951 6.83219 21.6667 6.83219L5 6.83203ZM6.49999 21.6566C6.50001 21.6596 6.50002 21.6626 6.50002 21.6655V26.8322H7.07063C7.70176 24.8971 9.52093 23.4989 11.6667 23.4989C13.8124 23.4989 15.6316 24.8971 16.2627 26.8322H20.1667V9.83219L6.50002 9.83205L6.49999 21.6566ZM23.1667 16.8322V11.4989H29.1507L32.3507 16.8322H23.1667ZM23.1667 19.8322H33.5V26.8322H32.9294C32.2983 24.8971 30.4791 23.4989 28.3334 23.4989C26.1876 23.4989 24.3684 24.8971 23.7373 26.8322H23.1667V19.8322ZM9.83335 28.3322C9.83335 27.3197 10.6542 26.4989 11.6667 26.4989C12.6792 26.4989 13.5 27.3197 13.5 28.3322C13.5 29.3447 12.6792 30.1655 11.6667 30.1655C10.6542 30.1655 9.83335 29.3447 9.83335 28.3322ZM26.5 28.3322C26.5 27.3197 27.3208 26.4989 28.3334 26.4989C29.3459 26.4989 30.1667 27.3197 30.1667 28.3322C30.1667 29.3447 29.3459 30.1655 28.3334 30.1655C27.3208 30.1655 26.5 29.3447 26.5 28.3322Z" fill="black" />
	</symbol>
	<symbol id="Discount"
		xmlns="http://www.w3.org/2000/svg" viewBox="0 0 41 40" fill="none">
		<path d="M15.2508 25.0008L25.2508 15.0008M16.9174 15.8341C16.9174 16.2944 16.5443 16.6675 16.0841 16.6675C15.6239 16.6675 15.2508 16.2944 15.2508 15.8341C15.2508 15.3739 15.6239 15.0008 16.0841 15.0008C16.5443 15.0008 16.9174 15.3739 16.9174 15.8341ZM25.2508 24.1675C25.2508 24.6277 24.8777 25.0008 24.4174 25.0008C23.9572 25.0008 23.5841 24.6277 23.5841 24.1675C23.5841 23.7072 23.9572 23.3341 24.4174 23.3341C24.8777 23.3341 25.2508 23.7072 25.2508 24.1675ZM8.5841 12.0008C8.5841 11.0283 8.97041 10.0957 9.65804 9.40804C10.3457 8.72041 11.2783 8.3341 12.2508 8.3341H13.9174C14.8856 8.33355 15.8143 7.9501 16.5008 7.26744L17.6674 6.10077C18.0082 5.7581 18.4133 5.48617 18.8595 5.30061C19.3057 5.11506 19.7842 5.01953 20.2674 5.01953C20.7507 5.01953 21.2292 5.11506 21.6754 5.30061C22.1216 5.48617 22.5267 5.7581 22.8674 6.10077L24.0341 7.26744C24.7206 7.9501 25.6493 8.33355 26.6174 8.3341H28.2841C29.2566 8.3341 30.1892 8.72041 30.8768 9.40804C31.5645 10.0957 31.9508 11.0283 31.9508 12.0008V13.6674C31.9513 14.6356 32.3348 15.5643 33.0174 16.2508L34.1841 17.4174C34.5268 17.7582 34.7987 18.1633 34.9843 18.6095C35.1698 19.0557 35.2653 19.5342 35.2653 20.0174C35.2653 20.5007 35.1698 20.9792 34.9843 21.4254C34.7987 21.8716 34.5268 22.2767 34.1841 22.6174L33.0174 23.7841C32.3348 24.4706 31.9513 25.3993 31.9508 26.3674V28.0341C31.9508 29.0066 31.5645 29.9392 30.8768 30.6268C30.1892 31.3145 29.2566 31.7008 28.2841 31.7008H26.6174C25.6493 31.7013 24.7206 32.0848 24.0341 32.7674L22.8674 33.9341C22.5267 34.2768 22.1216 34.5487 21.6754 34.7343C21.2292 34.9198 20.7507 35.0153 20.2674 35.0153C19.7842 35.0153 19.3057 34.9198 18.8595 34.7343C18.4133 34.5487 18.0082 34.2768 17.6674 33.9341L16.5008 32.7674C15.8143 32.0848 14.8856 31.7013 13.9174 31.7008H12.2508C11.2783 31.7008 10.3457 31.3145 9.65804 30.6268C8.97041 29.9392 8.5841 29.0066 8.5841 28.0341V26.3674C8.58355 25.3993 8.20011 24.4706 7.51744 23.7841L6.35077 22.6174C6.0081 22.2767 5.73617 21.8716 5.55061 21.4254C5.36506 20.9792 5.26953 20.5007 5.26953 20.0174C5.26953 19.5342 5.36506 19.0557 5.55061 18.6095C5.73617 18.1633 6.0081 17.7582 6.35077 17.4174L7.51744 16.2508C8.20011 15.5643 8.58355 14.6356 8.5841 13.6674V12.0008Z" stroke="black" stroke-width="3" stroke-linecap="round" stroke-linejoin="round" />
	</symbol>
	<symbol id="Return"
		xmlns="http://www.w3.org/2000/svg" viewBox="0 0 34 30" stroke="currentColor" fill="none">
		<path d="M32 6.66699H2M32 6.66699L27 11.667M32 6.66699L27 1.66699M7 28.3337L2 23.3337M2 23.3337L7 18.3337M2 23.3337H32" stroke-linecap="round" stroke-linejoin="round" />
	</symbol>
	<symbol id="CreditCard" viewBox="0 0 41 40" fill="none"
		xmlns="http://www.w3.org/2000/svg">
		<path d="M5.75 16.6654H35.75M12.4167 24.9987H12.4333M19.0833 24.9987H22.4167M10.75 8.33203H30.75C33.5114 8.33203 35.75 10.5706 35.75 13.332V26.6654C35.75 29.4268 33.5114 31.6654 30.75 31.6654H10.75C7.98858 31.6654 5.75 29.4268 5.75 26.6654V13.332C5.75 10.5706 7.98858 8.33203 10.75 8.33203Z" stroke="black" stroke-width="3" stroke-linecap="round" stroke-linejoin="round" />
	</symbol>
	<symbol id="Deco"
		xmlns="http://www.w3.org/2000/svg" viewBox="0 0 58 20" stroke="currentColor" fill="none">
		<path d="M49.5359 16.9432C47.3666 16.9432 46.9948 14.8019 47.6797 12.7178C48.2221 11.0615 49.5066 9.31991 51.4201 9.31991C53.676 9.31991 53.9039 11.6038 53.247 13.6026C52.6753 15.3162 51.3908 16.9432 49.5359 16.9432ZM48.879 19.9973C52.6473 19.9973 56.0159 17.9133 57.3578 14.1449C58.7569 10.1767 57.1859 6.2085 52.0477 6.2085C47.9369 6.2085 44.7962 8.77758 43.5969 12.1755C42.2551 16.0011 43.7115 19.9973 48.879 19.9973ZM36.3747 19.9973C37.8591 19.9973 39.3729 19.6829 40.4282 19.2271C40.8 18.1998 40.828 17.2004 40.5428 16.201C39.8006 16.4862 38.7732 16.7727 37.7165 16.7727C34.861 16.7727 34.6051 14.6606 35.2048 12.8617C35.8617 10.9496 37.574 9.40786 40.287 9.40786C41.0012 9.40786 41.6861 9.52246 42.1138 9.77963C42.856 8.78025 43.2838 7.78086 43.3704 6.7535C42.7428 6.46834 41.6861 6.21117 40.3163 6.21117C35.863 6.21117 32.3505 8.80956 31.0953 12.406C29.896 15.8039 30.8101 20 36.3774 20L36.3747 19.9973ZM21.0442 11.8037C21.8143 10.0901 23.0136 9.09206 24.5846 9.09206C25.9838 9.09206 26.2116 9.86225 25.9838 10.4619C25.6413 11.2894 24.47 11.8037 21.0442 11.8037ZM22.2714 19.9973C23.7278 19.9973 25.7826 19.7122 27.4962 18.8554C27.7813 17.9133 27.7534 16.9712 27.4389 15.9998C26.3542 16.5421 24.8405 16.8566 23.4707 16.8566C21.4439 16.8566 20.3299 16.1997 20.3592 14.5447C25.8972 14.6873 28.7807 13.6879 29.7228 11.2334C30.6649 8.7496 29.0379 6.2085 25.1829 6.2085C21.0721 6.2085 18.046 9.14935 16.932 12.3181C15.7621 15.6867 16.5043 19.9973 22.2701 19.9973H22.2714ZM5.72293 19.9973C9.52059 19.9973 11.6806 18.2557 14.1924 12.9177C15.5622 9.97684 16.7335 7.09329 18.0753 4.23905L19.6743 4.7534C20.1021 4.89598 20.3313 4.6388 20.1314 4.23905L18.1899 0.270827C18.0473 -0.0143302 17.7329 -0.0436454 17.533 0.0429678L12.708 1.86984C12.3082 2.01242 12.3362 2.38419 12.7359 2.49745L14.1631 2.95451C12.9931 5.6102 11.5367 9.60641 10.3654 12.1182C9.05155 14.9165 8.39595 16.8859 6.16933 16.8859C3.9427 16.8859 3.57093 15.1443 4.51301 12.6605C5.59768 9.77697 7.42455 8.92016 9.5086 9.51979C10.0802 8.72028 10.508 7.52103 10.6785 6.43636C10.0789 6.26447 9.36469 6.2085 8.76639 6.2085C5.3978 6.2085 2.05719 7.95009 0.687373 11.6038C-1.0822 16.3143 0.554122 19.9973 5.7216 19.9973H5.72293Z" fill="currentColor" />
	</symbol>
	<symbol id="Discord"
		xmlns="http://www.w3.org/2000/svg" viewBox="0 0 32 32" fill="currentColor">
		<path fill-rule="evenodd" clip-rule="evenodd" d="M10.1144 14.1144C10.6145 13.6143 11.2928 13.3333 12 13.3333C12.7072 13.3333 13.3855 13.6143 13.8856 14.1144C14.3857 14.6145 14.6667 15.2928 14.6667 16C14.6667 16.7072 14.3857 17.3855 13.8856 17.8856C13.3855 18.3857 12.7072 18.6667 12 18.6667C11.2928 18.6667 10.6145 18.3857 10.1144 17.8856C9.61429 17.3855 9.33333 16.7072 9.33333 16C9.33333 15.2928 9.61429 14.6145 10.1144 14.1144Z" />
		<path fill-rule="evenodd" clip-rule="evenodd" d="M18.1144 14.1144C18.6145 13.6143 19.2928 13.3333 20 13.3333C20.7072 13.3333 21.3855 13.6143 21.8856 14.1144C22.3857 14.6145 22.6667 15.2928 22.6667 16C22.6667 16.7072 22.3857 17.3855 21.8856 17.8856C21.3855 18.3857 20.7072 18.6667 20 18.6667C19.2928 18.6667 18.6145 18.3857 18.1144 17.8856C17.6143 17.3855 17.3333 16.7072 17.3333 16C17.3333 15.2928 17.6143 14.6145 18.1144 14.1144Z" />
		<path fill-rule="evenodd" clip-rule="evenodd" d="M18.81 4.73186C19.0601 4.23712 19.5902 3.94872 20.1414 4.00752C22.2331 4.23063 24.551 4.69893 26.7621 6.2393C26.9912 6.39888 27.1644 6.62634 27.2573 6.8896C28.6195 10.7494 29.3689 14.129 29.6593 16.8589C29.9443 19.5368 29.805 21.7447 29.2379 23.162C29.2242 23.1964 29.209 23.2302 29.1924 23.2633C28.6969 24.2536 27.9474 25.3864 27.0094 26.2923C26.091 27.1791 24.8302 28 23.3333 28C22.8608 28 22.4898 27.788 22.3107 27.6739C22.0915 27.5341 21.888 27.3604 21.7106 27.1896C21.352 26.8443 20.9848 26.3986 20.6577 25.9313C20.3289 25.4616 20.0134 24.9313 19.7748 24.4037C19.5498 23.9065 19.3333 23.2832 19.3333 22.6667C19.3333 21.9303 19.9303 21.3333 20.6667 21.3333C21.403 21.3333 22 21.9303 22 22.6667C22 22.7168 22.0335 22.9269 22.2044 23.3046C22.3616 23.652 22.5878 24.0384 22.8423 24.4021C23.0985 24.7681 23.3564 25.0724 23.5603 25.2687C23.5748 25.2827 23.5885 25.2956 23.6014 25.3075C24.0526 25.2232 24.5825 24.9288 25.157 24.374C25.8148 23.7388 26.3876 22.8958 26.7809 22.123C27.0917 21.2998 27.2731 19.6354 27.0077 17.1411C26.7526 14.7437 26.0994 11.7137 24.8888 8.19623C23.5851 7.37691 22.2091 6.99039 20.7657 6.77412L19.894 8.49881C19.6296 9.02184 19.0547 9.31093 18.4772 9.21123C16.8392 8.92847 15.1648 8.92847 13.5268 9.21123C12.9499 9.31082 12.3755 9.02244 12.1108 8.50029L11.2355 6.77394C9.79167 6.99018 8.41523 7.37668 7.11123 8.19624C5.90062 11.7137 5.24745 14.7437 4.99235 17.1411C4.72693 19.6354 4.90826 21.2998 5.21912 22.123C5.61239 22.8958 6.18517 23.7388 6.84303 24.374C7.4175 24.9288 7.94742 25.2232 8.39859 25.3075C8.41148 25.2956 8.4252 25.2827 8.43973 25.2687C8.64364 25.0724 8.90147 24.7681 9.15769 24.4021C9.41224 24.0384 9.63844 23.652 9.79561 23.3046C9.87377 23.1318 9.92828 22.9831 9.96188 22.8628C9.97844 22.8035 9.98841 22.7564 9.99405 22.7211C9.99682 22.7037 9.99835 22.6904 9.99917 22.681L9.99989 22.6703L9.99999 22.6676L10 22.6669C10 22.6669 10 22.6668 10 22.6668C10 22.6667 10 22.6667 10 22.6667C10 21.9303 10.597 21.3333 11.3333 21.3333C12.0697 21.3333 12.6667 21.9303 12.6667 22.6667C12.6667 23.2832 12.4502 23.9065 12.2252 24.4037C11.9866 24.9313 11.6711 25.4616 11.3423 25.9313C11.0152 26.3986 10.648 26.8443 10.2894 27.1896C10.112 27.3604 9.90854 27.5341 9.68929 27.6739C9.5102 27.788 9.13922 28 8.66667 28C7.16983 28 5.90902 27.1791 4.99064 26.2923C4.05257 25.3864 3.30313 24.2536 2.80761 23.2633C2.79103 23.2302 2.77584 23.1964 2.76208 23.162C2.19498 21.7447 2.05571 19.5368 2.34065 16.8589C2.63114 14.129 3.38048 10.7494 4.74267 6.8896C4.83558 6.62634 5.00878 6.39888 5.23785 6.2393C7.44901 4.69893 9.76691 4.23063 11.8586 4.00752C12.4092 3.94879 12.9388 4.2365 13.1892 4.73038L14.0574 6.44267C15.3492 6.29582 16.6535 6.29577 17.9454 6.44252L18.81 4.73186ZM8.25602 25.4251C8.23864 25.4362 8.24115 25.4323 8.26145 25.4215C8.25933 25.423 8.25752 25.4242 8.25602 25.4251ZM23.744 25.4251C23.7425 25.4242 23.7407 25.423 23.7386 25.4215C23.7589 25.4323 23.7614 25.4362 23.744 25.4251Z" />
		<path fill-rule="evenodd" clip-rule="evenodd" d="M8.0513 21.6337C8.2536 20.9257 8.99158 20.5157 9.69963 20.718C14.1269 21.9829 17.8731 21.9829 22.3004 20.718C23.0084 20.5157 23.7464 20.9257 23.9487 21.6337C24.151 22.3418 23.741 23.0797 23.033 23.282C18.1269 24.6838 13.8731 24.6838 8.96704 23.282C8.25899 23.0797 7.849 22.3418 8.0513 21.6337Z" />
	</symbol>
	<symbol id="YouTube" 
		viewBox="0 0 20 20" fill="none" xmlns="http://www.w3.org/2000/svg">
		<path fill-rule="evenodd" clip-rule="evenodd" d="M5.0013 4.08594C4.31616 4.08594 3.65908 4.35811 3.17461 4.84258C2.69014 5.32705 2.41797 5.98413 2.41797 6.66927V13.3359C2.41797 14.0211 2.69014 14.6782 3.17461 15.1626C3.65908 15.6471 4.31616 15.9193 5.0013 15.9193H15.0013C15.6864 15.9193 16.3435 15.6471 16.828 15.1626C17.3125 14.6782 17.5846 14.0211 17.5846 13.3359V6.66927C17.5846 5.98413 17.3125 5.32705 16.828 4.84258C16.3435 4.35811 15.6864 4.08594 15.0013 4.08594H5.0013ZM2.11395 3.78192C2.87972 3.01614 3.91833 2.58594 5.0013 2.58594H15.0013C16.0843 2.58594 17.1229 3.01614 17.8887 3.78192C18.6544 4.54769 19.0846 5.5863 19.0846 6.66927V13.3359C19.0846 14.4189 18.6544 15.4575 17.8887 16.2233C17.1229 16.9891 16.0843 17.4193 15.0013 17.4193H5.0013C3.91833 17.4193 2.87972 16.9891 2.11395 16.2233C1.34818 15.4575 0.917969 14.4189 0.917969 13.3359V6.66927C0.917969 5.5863 1.34818 4.54769 2.11395 3.78192Z" fill="currentColor"/>
		<path fill-rule="evenodd" clip-rule="evenodd" d="M7.96251 6.84735C8.19764 6.71422 8.48621 6.71786 8.7179 6.85688L12.8846 9.35688C13.1105 9.49242 13.2487 9.73655 13.2487 10C13.2487 10.2634 13.1105 10.5076 12.8846 10.6431L8.7179 13.1431C8.48621 13.2821 8.19764 13.2858 7.96251 13.1526C7.72738 13.0195 7.58203 12.7702 7.58203 12.5V7.5C7.58203 7.2298 7.72738 6.98048 7.96251 6.84735ZM9.08203 8.82464V11.1754L11.041 10L9.08203 8.82464Z" fill="currentColor"/>
	</symbol>
	<symbol id="FilterList"
		xmlns="http://www.w3.org/2000/svg" viewBox="0 0 16 16" fill="none">
		<path d="M6.66667 12H9.33333V10.6667H6.66667V12ZM2 4V5.33333H14V4H2ZM4 8.66667H12V7.33333H4V8.66667Z" fill="currentColor" />
	</symbol>
	<symbol id="Trash"
		xmlns="http://www.w3.org/2000/svg" viewBox="0 0 20 20" fill="none">
		<path fill-rule="evenodd" clip-rule="evenodd" d="M7.15482 2.15483C7.46738 1.84227 7.89131 1.66667 8.33333 1.66667H11.6667C12.1087 1.66667 12.5326 1.84227 12.8452 2.15483C13.1577 2.46739 13.3333 2.89131 13.3333 3.33334V5H15.8236C15.8295 4.99994 15.8353 4.99994 15.8412 5H16.6667C17.1269 5 17.5 5.3731 17.5 5.83334C17.5 6.29357 17.1269 6.66667 16.6667 6.66667H16.6001L15.833 15.8715C15.8231 16.5207 15.5609 17.1413 15.1011 17.6011C14.6323 18.0699 13.9964 18.3333 13.3333 18.3333H6.66667C6.00362 18.3333 5.36774 18.0699 4.8989 17.6011C4.43906 17.1413 4.17685 16.5207 4.16696 15.8715L3.39989 6.66667H3.33333C2.8731 6.66667 2.5 6.29357 2.5 5.83334C2.5 5.3731 2.8731 5 3.33333 5H4.15878C4.16467 4.99994 4.17055 4.99994 4.17641 5H6.66667V3.33334C6.66667 2.89131 6.84226 2.46739 7.15482 2.15483ZM5.07233 6.66667L5.83045 15.7641C5.83237 15.7871 5.83333 15.8102 5.83333 15.8333C5.83333 16.0543 5.92113 16.2663 6.07741 16.4226C6.23369 16.5789 6.44565 16.6667 6.66667 16.6667H13.3333C13.5543 16.6667 13.7663 16.5789 13.9226 16.4226C14.0789 16.2663 14.1667 16.0543 14.1667 15.8333C14.1667 15.8102 14.1676 15.7871 14.1695 15.7641L14.9277 6.66667H5.07233ZM11.6667 5H8.33333V3.33334H11.6667V5ZM8.33333 8.33334C8.79357 8.33334 9.16667 8.70643 9.16667 9.16667V14.1667C9.16667 14.6269 8.79357 15 8.33333 15C7.8731 15 7.5 14.6269 7.5 14.1667V9.16667C7.5 8.70643 7.8731 8.33334 8.33333 8.33334ZM11.6667 8.33334C12.1269 8.33334 12.5 8.70643 12.5 9.16667V14.1667C12.5 14.6269 12.1269 15 11.6667 15C11.2064 15 10.8333 14.6269 10.8333 14.1667V9.16667C10.8333 8.70643 11.2064 8.33334 11.6667 8.33334Z" fill="currentColor" />
	</symbol>
	<symbol id="WhatsApp"
		xmlns="http://www.w3.org/2000/svg" viewBox="0 0 32 32" fill="currentColor">
		<path fill-rule="evenodd" clip-rule="evenodd" d="M22.9323 7.90694C20.9558 6.22108 18.432 5.31448 15.8345 5.35728C13.237 5.40008 10.7444 6.38934 8.82449 8.13941C6.90458 9.88948 5.68934 12.28 5.40682 14.8625C5.1243 17.4449 5.79392 20.0417 7.29002 22.1655C7.55783 22.5456 7.60822 23.0378 7.42302 23.4644L6.21292 26.2513L10.4994 25.4874C10.7781 25.4377 11.0654 25.478 11.3197 25.6025C13.6528 26.7449 16.3227 26.9965 18.8283 26.3102C21.3338 25.6239 23.5028 24.0467 24.9281 21.8748C26.3534 19.7029 26.9371 17.0855 26.5696 14.5138C26.2022 11.942 24.9088 9.5928 22.9323 7.90694ZM15.7905 2.69098C19.0374 2.63748 22.1922 3.77072 24.6628 5.87805C27.1335 7.98537 28.7502 10.9219 29.2095 14.1366C29.6688 17.3512 28.9392 20.623 27.1575 23.3379C25.3759 26.0528 22.6647 28.0242 19.5328 28.8821C16.5444 29.7007 13.3691 29.4518 10.5508 28.1869L4.23394 29.3127C3.75031 29.3988 3.25846 29.2121 2.95388 28.8267C2.64929 28.4413 2.58133 27.9196 2.77698 27.469L4.68893 23.0657C3.11582 20.5372 2.43052 17.5472 2.75597 14.5725C3.10912 11.3444 4.62818 8.35622 7.02806 6.16864C9.42795 3.98106 12.5437 2.74448 15.7905 2.69098Z" />
		<path fill-rule="evenodd" clip-rule="evenodd" d="M11.2525 10.5858C11.6275 10.2107 12.1362 10 12.6667 10C13.1971 10 13.7058 10.2107 14.0809 10.5858C14.456 10.9609 14.6667 11.4696 14.6667 12V13.3333C14.6667 13.8638 14.456 14.3725 14.0809 14.7475C13.946 14.8824 13.7939 14.996 13.6296 15.0863C13.8915 15.8388 14.3213 16.5304 14.8954 17.1046C15.4696 17.6787 16.1612 18.1085 16.9137 18.3704C17.004 18.2061 17.1176 18.054 17.2525 17.9191C17.6275 17.544 18.1362 17.3333 18.6667 17.3333H20C20.5304 17.3333 21.0391 17.544 21.4142 17.9191C21.7893 18.2942 22 18.8029 22 19.3333C22 19.8638 21.7893 20.3725 21.4142 20.7475C21.0391 21.1226 20.5304 21.3333 20 21.3333H18.6667C16.5449 21.3333 14.5101 20.4905 13.0098 18.9902C11.5095 17.4899 10.6667 15.4551 10.6667 13.3333V12C10.6667 11.4696 10.8774 10.9609 11.2525 10.5858Z" />
	</symbol>
	<symbol id="ArrowsPointingOut" viewBox="0 0 40 40" fill="black"
		xmlns="http://www.w3.org/2000/svg">
		<path d="M31.5 6.66797H1.5M31.5 6.66797L26.5 11.668M31.5 6.66797L26.5 1.66797M6.5 28.3346L1.5 23.3346M1.5 23.3346L6.5 18.3346M1.5 23.3346H31.5" stroke="black" stroke-width="3" stroke-linecap="round" stroke-linejoin="round" />
	</symbol>
	<symbol id="Star"
		xmlns="http://www.w3.org/2000/svg" viewBox="0 0 24 24" stroke-width="1.5">
		<path stroke-linecap="round" stroke-linejoin="round" d="M11.48 3.499a.562.562 0 011.04 0l2.125 5.111a.563.563 0 00.475.345l5.518.442c.499.04.701.663.321.988l-4.204 3.602a.563.563 0 00-.182.557l1.285 5.385a.562.562 0 01-.84.61l-4.725-2.885a.563.563 0 00-.586 0L6.982 20.54a.562.562 0 01-.84-.61l1.285-5.386a.562.562 0 00-.182-.557l-4.204-3.602a.563.563 0 01.321-.988l5.518-.442a.563.563 0 00.475-.345L11.48 3.5z" />
	</symbol>
	<symbol id="Ruler"
		xmlns="http://www.w3.org/2000/svg" viewBox="0 0 32 32" fill="currentColor">
		<path fill-rule="evenodd" clip-rule="evenodd" d="M21.7238 3.05715C22.2445 2.53645 23.0887 2.53645 23.6094 3.05715L28.9428 8.39048C29.4635 8.91118 29.4635 9.7554 28.9428 10.2761L10.2761 28.9428C9.7554 29.4635 8.91118 29.4635 8.39048 28.9428L3.05715 23.6094C2.53645 23.0887 2.53645 22.2445 3.05715 21.7238L21.7238 3.05715ZM5.88558 22.6666L9.33329 26.1143L26.1143 9.33329L22.6666 5.88558L5.88558 22.6666Z" />
		<path fill-rule="evenodd" clip-rule="evenodd" d="M18.3905 6.39052C18.9112 5.86983 19.7554 5.86983 20.2761 6.39052L22.2761 8.39052C22.7968 8.91122 22.7968 9.75544 22.2761 10.2761C21.7554 10.7968 20.9112 10.7968 20.3905 10.2761L18.3905 8.27614C17.8698 7.75544 17.8698 6.91122 18.3905 6.39052Z" />
		<path fill-rule="evenodd" clip-rule="evenodd" d="M14.3905 10.3905C14.9112 9.86983 15.7554 9.86983 16.2761 10.3905L18.2761 12.3905C18.7968 12.9112 18.7968 13.7554 18.2761 14.2761C17.7554 14.7968 16.9112 14.7968 16.3905 14.2761L14.3905 12.2761C13.8698 11.7554 13.8698 10.9112 14.3905 10.3905Z" />
		<path fill-rule="evenodd" clip-rule="evenodd" d="M10.3905 14.3905C10.9112 13.8698 11.7554 13.8698 12.2761 14.3905L14.2761 16.3905C14.7968 16.9112 14.7968 17.7554 14.2761 18.2761C13.7554 18.7968 12.9112 18.7968 12.3905 18.2761L10.3905 16.2761C9.86983 15.7554 9.86983 14.9112 10.3905 14.3905Z" />
		<path fill-rule="evenodd" clip-rule="evenodd" d="M6.39052 18.3905C6.91122 17.8698 7.75544 17.8698 8.27614 18.3905L10.2761 20.3905C10.7968 20.9112 10.7968 21.7554 10.2761 22.2761C9.75544 22.7968 8.91122 22.7968 8.39052 22.2761L6.39052 20.2761C5.86983 19.7554 5.86983 18.9112 6.39052 18.3905Z" />
	</symbol>
	<symbol id="Message"
		xmlns="http://www.w3.org/2000/svg" viewBox="0 0 32 32" fill="currentColor">
		<path fill-rule="evenodd" clip-rule="evenodd" d="M9.33337 12C9.33337 11.2636 9.93033 10.6666 10.6667 10.6666H21.3334C22.0698 10.6666 22.6667 11.2636 22.6667 12C22.6667 12.7363 22.0698 13.3333 21.3334 13.3333H10.6667C9.93033 13.3333 9.33337 12.7363 9.33337 12Z" />
		<path fill-rule="evenodd" clip-rule="evenodd" d="M9.33337 17.3333C9.33337 16.597 9.93033 16 10.6667 16H18.6667C19.4031 16 20 16.597 20 17.3333C20 18.0697 19.4031 18.6667 18.6667 18.6667H10.6667C9.93033 18.6667 9.33337 18.0697 9.33337 17.3333Z" />
		<path fill-rule="evenodd" clip-rule="evenodd" d="M7.99996 6.66667C7.29272 6.66667 6.61444 6.94762 6.11434 7.44772C5.61424 7.94781 5.33329 8.62609 5.33329 9.33333V20C5.33329 20.7072 5.61424 21.3855 6.11434 21.8856C6.61444 22.3857 7.29272 22.6667 7.99996 22.6667H10.6666C11.403 22.6667 12 23.2636 12 24V25.6451L16.6473 22.8567C16.8545 22.7323 17.0916 22.6667 17.3333 22.6667H24C24.7072 22.6667 25.3855 22.3857 25.8856 21.8856C26.3857 21.3855 26.6666 20.7072 26.6666 20V9.33333C26.6666 8.62609 26.3857 7.94781 25.8856 7.44772C25.3855 6.94762 24.7072 6.66667 24 6.66667H7.99996ZM4.22872 5.5621C5.22892 4.5619 6.58547 4 7.99996 4H24C25.4144 4 26.771 4.5619 27.7712 5.5621C28.7714 6.56229 29.3333 7.91885 29.3333 9.33333V20C29.3333 21.4145 28.7714 22.771 27.7712 23.7712C26.771 24.7714 25.4144 25.3333 24 25.3333H17.7026L11.3526 29.1433C10.9407 29.3905 10.4277 29.3969 10.0097 29.1603C9.59168 28.9236 9.33329 28.4804 9.33329 28V25.3333H7.99996C6.58547 25.3333 5.22892 24.7714 4.22872 23.7712C3.22853 22.771 2.66663 21.4145 2.66663 20V9.33333C2.66663 7.91885 3.22853 6.56229 4.22872 5.5621Z" />
	</symbol>
	<symbol id="Close"
		xmlns="http://www.w3.org/2000/svg" viewBox="0 0 24 24" fill="currentColor">
		<path fill-rule="evenodd" clip-rule="evenodd" d="M5.29289 5.29289C5.68342 4.90237 6.31658 4.90237 6.70711 5.29289L12 10.5858L17.2929 5.29289C17.6834 4.90237 18.3166 4.90237 18.7071 5.29289C19.0976 5.68342 19.0976 6.31658 18.7071 6.70711L13.4142 12L18.7071 17.2929C19.0976 17.6834 19.0976 18.3166 18.7071 18.7071C18.3166 19.0976 17.6834 19.0976 17.2929 18.7071L12 13.4142L6.70711 18.7071C6.31658 19.0976 5.68342 19.0976 5.29289 18.7071C4.90237 18.3166 4.90237 17.6834 5.29289 17.2929L10.5858 12L5.29289 6.70711C4.90237 6.31658 4.90237 5.68342 5.29289 5.29289Z" />
	</symbol>
	<symbol id="Zoom"
		xmlns="http://www.w3.org/2000/svg" viewBox="0 0 32 32" fill="currentColor">
		<path fill-rule="evenodd" clip-rule="evenodd" d="M9.25138 3.47862C10.5455 2.94257 11.9326 2.66667 13.3333 2.66667C14.7341 2.66667 16.1212 2.94257 17.4153 3.47862C18.7094 4.01467 19.8853 4.80037 20.8758 5.79086C21.8663 6.78135 22.652 7.95724 23.188 9.25138C23.7241 10.5455 24 11.9326 24 13.3333C24 14.7341 23.7241 16.1212 23.188 17.4153C22.652 18.7094 21.8663 19.8853 20.8758 20.8758C19.8853 21.8663 18.7094 22.652 17.4153 23.188C16.1212 23.7241 14.7341 24 13.3333 24C11.9326 24 10.5455 23.7241 9.25138 23.188C7.95724 22.652 6.78135 21.8663 5.79086 20.8758C4.80037 19.8853 4.01467 18.7094 3.47862 17.4153C2.94257 16.1212 2.66667 14.7341 2.66667 13.3333C2.66667 11.9326 2.94257 10.5455 3.47862 9.25138C4.01467 7.95724 4.80037 6.78135 5.79086 5.79086C6.78135 4.80037 7.95724 4.01467 9.25138 3.47862ZM13.3333 5.33333C12.2828 5.33333 11.2425 5.54026 10.2719 5.9423C9.30126 6.34433 8.41935 6.93361 7.67648 7.67648C6.93361 8.41935 6.34433 9.30126 5.9423 10.2719C5.54026 11.2425 5.33333 12.2828 5.33333 13.3333C5.33333 14.3839 5.54026 15.4242 5.9423 16.3948C6.34433 17.3654 6.93361 18.2473 7.67648 18.9902C8.41935 19.7331 9.30126 20.3223 10.2719 20.7244C11.2425 21.1264 12.2828 21.3333 13.3333 21.3333C14.3839 21.3333 15.4242 21.1264 16.3948 20.7244C17.3654 20.3223 18.2473 19.7331 18.9902 18.9902C19.7331 18.2473 20.3223 17.3654 20.7244 16.3948C21.1264 15.4242 21.3333 14.3839 21.3333 13.3333C21.3333 12.2828 21.1264 11.2425 20.7244 10.2719C20.3223 9.30126 19.7331 8.41935 18.9902 7.67648C18.2473 6.93361 17.3654 6.34433 16.3948 5.9423C15.4242 5.54026 14.3839 5.33333 13.3333 5.33333Z" />
		<path fill-rule="evenodd" clip-rule="evenodd" d="M8 13.3333C8 12.597 8.59695 12 9.33333 12H17.3333C18.0697 12 18.6667 12.597 18.6667 13.3333C18.6667 14.0697 18.0697 14.6667 17.3333 14.6667H9.33333C8.59695 14.6667 8 14.0697 8 13.3333Z" />
		<path fill-rule="evenodd" clip-rule="evenodd" d="M13.3333 8C14.0697 8 14.6667 8.59695 14.6667 9.33333V17.3333C14.6667 18.0697 14.0697 18.6667 13.3333 18.6667C12.597 18.6667 12 18.0697 12 17.3333V9.33333C12 8.59695 12.597 8 13.3333 8Z" />
		<path fill-rule="evenodd" clip-rule="evenodd" d="M19.0572 19.0572C19.5779 18.5365 20.4221 18.5365 20.9428 19.0572L28.9428 27.0572C29.4635 27.5779 29.4635 28.4221 28.9428 28.9428C28.4221 29.4635 27.5779 29.4635 27.0572 28.9428L19.0572 20.9428C18.5365 20.4221 18.5365 19.5779 19.0572 19.0572Z" />
	</symbol>
	<symbol id="Twitter" viewBox="0 0 32 32" fill="currentColor"
		xmlns="http://www.w3.org/2000/svg">
		<path fill-rule="evenodd" clip-rule="evenodd" d="M25.7085 5.17383C25.8226 5.14229 25.9346 5.1116 26.0448 5.08143C27.0071 4.8178 27.8286 4.59278 28.6991 4.17252C28.9351 4.04471 29.2112 3.98713 29.4952 4.02185C30.164 4.10361 30.6667 4.67152 30.6667 5.34533V5.34667C30.6667 5.46914 30.6499 5.58905 30.6181 5.70365C30.3614 6.70484 29.6856 8.08065 29.1556 9.12166C29.0163 9.39519 28.8888 9.64185 28.7722 9.86768C28.6425 10.1187 28.5261 10.3439 28.4215 10.5518C28.3434 10.707 28.2842 10.8285 28.2426 10.919C28.232 12.6541 27.9933 14.3807 27.5322 16.0542L27.5304 16.0606C25.8937 21.8868 21.6085 25.795 16.4174 27.3031L16.4171 27.3031C11.8358 28.6331 6.66407 27.6972 2.02863 25.1707C1.4849 24.8744 1.21677 24.2427 1.38133 23.6457C1.54588 23.0487 2.0998 22.6436 2.71858 22.6677C4.59327 22.7406 6.25872 22.2699 7.93115 21.4114C6.20014 20.3418 4.95683 19.0951 4.10438 17.7483C2.9282 15.89 2.55864 13.9398 2.57579 12.2033C2.59283 10.4771 2.99109 8.94005 3.37455 7.84784C3.56758 7.29803 3.76042 6.8509 3.90746 6.53668C3.9811 6.37932 4.04359 6.25457 4.08934 6.16618C4.11223 6.12196 4.13097 6.08678 4.14486 6.06109L4.16199 6.02971L4.16767 6.01945L4.16977 6.0157L4.17062 6.01417C4.171 6.0135 4.17135 6.01287 5.33339 6.66667L4.17135 6.01287C4.39484 5.61565 4.80575 5.3601 5.26086 5.33531C5.71596 5.31051 6.1522 5.51991 6.41753 5.8905C8.39853 8.65753 11.326 10.351 14.6663 10.6301C14.651 7.82308 16.4169 5.41227 19.0258 4.43534C21.1915 3.62441 23.7548 3.53044 25.7085 5.17383ZM5.73392 9.20834C5.4743 10.0564 5.25343 11.1054 5.24233 12.2297C5.22914 13.5653 5.51108 14.9846 6.35765 16.3222C7.20231 17.6567 8.67167 19.009 11.1996 20.1111C11.6468 20.3061 11.9519 20.7298 11.9949 21.2158C12.0379 21.7018 11.812 22.1725 11.4059 22.443C10.137 23.2883 8.82865 24.0272 7.42567 24.5474C10.298 25.3864 13.1456 25.476 15.6734 24.7423M5.73392 9.20834C8.41858 11.9306 12.0496 13.4348 16.0342 13.3329C16.757 13.3144 17.3334 12.7231 17.3334 12V10.6667L17.3333 10.6484C17.3108 9.00681 18.3282 7.54404 19.961 6.93266C21.8151 6.23837 23.3524 6.44157 24.3355 7.55097C24.6786 7.93812 25.2146 8.09189 25.7108 7.94548C25.9884 7.86355 26.2807 7.78378 26.5839 7.70106C26.6992 7.66959 26.816 7.6377 26.9342 7.6051C26.8831 7.70696 26.8314 7.80926 26.7792 7.91167C26.6594 8.14697 26.5339 8.39013 26.4146 8.6212C26.2744 8.89273 26.1428 9.14756 26.0393 9.35333C25.9398 9.55108 25.8466 9.74167 25.7762 9.90182C25.7415 9.98065 25.7031 10.073 25.6709 10.1667C25.6704 10.1684 25.6697 10.1702 25.669 10.1723C25.6498 10.2277 25.5761 10.441 25.5761 10.696L25.5761 10.7034C25.5848 12.2707 25.3782 13.8317 24.9621 15.3428C23.5875 20.2319 20.028 23.4772 15.6737 24.7422" />
	</symbol>
	<symbol id="Facebook" viewBox="0 0 32 32" fill="currentColor"
		xmlns="http://www.w3.org/2000/svg">
		<path fill-rule="evenodd" clip-rule="evenodd" d="M14.3431 5.00977C15.8434 3.50948 17.8783 2.66663 20 2.66663H24C24.7364 2.66663 25.3333 3.26358 25.3333 3.99996V9.33329C25.3333 10.0697 24.7364 10.6666 24 10.6666H20V12H24C24.4106 12 24.7983 12.1891 25.0509 12.5127C25.3036 12.8364 25.3931 13.2584 25.2935 13.6567L23.9602 18.99C23.8118 19.5836 23.2785 20 22.6667 20H20V28C20 28.7363 19.403 29.3333 18.6667 29.3333H13.3333C12.597 29.3333 12 28.7363 12 28V20H9.33333C8.59695 20 8 19.403 8 18.6666V13.3333C8 12.5969 8.59695 12 9.33333 12H12V10.6666C12 8.54489 12.8429 6.51006 14.3431 5.00977ZM20 5.33329C18.5855 5.33329 17.229 5.8952 16.2288 6.89539C15.2286 7.89558 14.6667 9.25214 14.6667 10.6666V13.3333C14.6667 14.0697 14.0697 14.6666 13.3333 14.6666H10.6667V17.3333H13.3333C14.0697 17.3333 14.6667 17.9302 14.6667 18.6666V26.6666H17.3333V18.6666C17.3333 17.9302 17.9303 17.3333 18.6667 17.3333H21.6256L22.2923 14.6666H18.6667C17.9303 14.6666 17.3333 14.0697 17.3333 13.3333V10.6666C17.3333 9.95938 17.6143 9.28111 18.1144 8.78101C18.6145 8.28091 19.2928 7.99996 20 7.99996H22.6667V5.33329H20Z" />
	</symbol>
	<symbol id="Linkedin" viewBox="0 0 32 32" fill="currentColor"
		xmlns="http://www.w3.org/2000/svg">
		<path fill-rule="evenodd" clip-rule="evenodd" d="M8 6.66667C7.64638 6.66667 7.30724 6.80714 7.05719 7.05719C6.80714 7.30724 6.66667 7.64638 6.66667 8V24C6.66667 24.3536 6.80714 24.6928 7.05719 24.9428C7.30724 25.1929 7.64638 25.3333 8 25.3333H24C24.3536 25.3333 24.6928 25.1929 24.9428 24.9428C25.1929 24.6928 25.3333 24.3536 25.3333 24V8C25.3333 7.64638 25.1929 7.30724 24.9428 7.05719C24.6928 6.80714 24.3536 6.66667 24 6.66667H8ZM5.17157 5.17157C5.92172 4.42143 6.93913 4 8 4H24C25.0609 4 26.0783 4.42143 26.8284 5.17157C27.5786 5.92172 28 6.93913 28 8V24C28 25.0609 27.5786 26.0783 26.8284 26.8284C26.0783 27.5786 25.0609 28 24 28H8C6.93913 28 5.92172 27.5786 5.17157 26.8284C4.42143 26.0783 4 25.0609 4 24V8C4 6.93913 4.42143 5.92172 5.17157 5.17157Z" />
		<path fill-rule="evenodd" clip-rule="evenodd" d="M10.6667 13.3334C11.4031 13.3334 12 13.9303 12 14.6667V21.3334C12 22.0698 11.4031 22.6667 10.6667 22.6667C9.93033 22.6667 9.33337 22.0698 9.33337 21.3334V14.6667C9.33337 13.9303 9.93033 13.3334 10.6667 13.3334Z" />
		<path fill-rule="evenodd" clip-rule="evenodd" d="M10.6667 9.33337C11.4031 9.33337 12 9.93033 12 10.6667V10.68C12 11.4164 11.4031 12.0134 10.6667 12.0134C9.93033 12.0134 9.33337 11.4164 9.33337 10.68V10.6667C9.33337 9.93033 9.93033 9.33337 10.6667 9.33337Z" />
		<path fill-rule="evenodd" clip-rule="evenodd" d="M16 13.3334C16.7363 13.3334 17.3333 13.9303 17.3333 14.6667V21.3334C17.3333 22.0698 16.7363 22.6667 16 22.6667C15.2636 22.6667 14.6666 22.0698 14.6666 21.3334V14.6667C14.6666 13.9303 15.2636 13.3334 16 13.3334Z" />
		<path fill-rule="evenodd" clip-rule="evenodd" d="M15.8382 14.5049C16.5883 13.7548 17.6058 13.3334 18.6666 13.3334C19.7275 13.3334 20.7449 13.7548 21.4951 14.5049C22.2452 15.2551 22.6666 16.2725 22.6666 17.3334V21.3334C22.6666 22.0698 22.0697 22.6667 21.3333 22.6667C20.5969 22.6667 20 22.0698 20 21.3334V17.3334C20 16.9798 19.8595 16.6406 19.6094 16.3906C19.3594 16.1405 19.0202 16 18.6666 16C18.313 16 17.9739 16.1405 17.7238 16.3906C17.4738 16.6406 17.3333 16.9798 17.3333 17.3334C17.3333 18.0698 16.7363 18.6667 16 18.6667C15.2636 18.6667 14.6666 18.0698 14.6666 17.3334C14.6666 16.2725 15.0881 15.2551 15.8382 14.5049Z" />
	</symbol>
	<symbol id="Tiktok" viewBox="0 0 32 32" fill="currentColor"
		xmlns="http://www.w3.org/2000/svg">
		<path fill-rule="evenodd" clip-rule="evenodd" d="M14.6666 4.00002C14.6666 3.26364 15.2636 2.66669 16 2.66669H21.444C22.0944 2.66669 22.6499 3.13595 22.7585 3.77719C22.9899 5.14231 23.6402 6.40166 24.6193 7.38071C25.5983 8.35977 26.8577 9.01005 28.2228 9.24144C28.864 9.35013 29.3333 9.90563 29.3333 10.556V15.9347C29.3333 16.3112 29.1741 16.6702 28.895 16.9229C28.6159 17.1757 28.243 17.2987 27.8683 17.2615C26.0469 17.0808 24.2834 16.56 22.6666 15.7338V19.3334C22.6662 21.212 22.1366 23.0529 21.1385 24.6444C20.1403 26.236 18.7141 27.5142 17.023 28.3326C15.332 29.1511 13.4446 29.4766 11.5772 29.2719C9.70969 29.0672 7.93763 28.3406 6.46402 27.1754C4.99041 26.0101 3.87484 24.4533 3.24513 22.6833C2.61542 20.9134 2.49703 19.0018 2.90353 17.1676C3.31003 15.3335 4.22498 13.6509 5.54355 12.3128C6.86212 10.9746 8.53098 10.0349 10.3589 9.60134C10.7557 9.50725 11.1737 9.59986 11.4935 9.85273C11.8134 10.1056 12 10.4909 12 10.8987V16.6667C12 17.0864 11.8024 17.4815 11.4666 17.7334C11.1939 17.9379 10.978 18.2088 10.8394 18.5202C10.7008 18.8317 10.6441 19.1734 10.6747 19.513C10.7053 19.8525 10.8222 20.1786 11.0143 20.4602C11.2064 20.7419 11.4673 20.9697 11.7722 21.1222C12.0771 21.2747 12.416 21.3467 12.7565 21.3313C13.0971 21.316 13.4281 21.2139 13.7181 21.0347C14.0081 20.8554 14.2475 20.605 14.4135 20.3073C14.5795 20.0095 14.6666 19.6743 14.6666 19.3334V4.00002ZM17.3333 5.33335V19.3334C17.3333 20.1288 17.13 20.9111 16.7426 21.6059C16.3552 22.3006 15.7967 22.8849 15.12 23.3031C14.4434 23.7213 13.671 23.9595 12.8764 23.9953C12.0817 24.0311 11.2911 23.8631 10.5796 23.5073C9.86814 23.1516 9.2594 22.6199 8.81121 21.9627C8.36302 21.3055 8.09025 20.5447 8.01882 19.7524C7.94738 18.9602 8.07964 18.1628 8.40305 17.4361C8.62988 16.9263 8.94547 16.4632 9.33329 16.0674V12.7995C8.63637 13.1551 7.99748 13.6217 7.44304 14.1844C6.47609 15.1657 5.80513 16.3996 5.50702 17.7447C5.20892 19.0897 5.29574 20.4915 5.75753 21.7895C6.21932 23.0875 7.0374 24.2291 8.11805 25.0837C9.1987 25.9382 10.4982 26.471 11.8677 26.6211C13.2372 26.7712 14.6212 26.5325 15.8613 25.9323C17.1014 25.3321 18.1473 24.3948 18.8793 23.2276C19.6112 22.0606 19.9996 20.7109 20 19.3334C20 19.3333 20 19.3335 20 19.3334V13.3334C20 12.8279 20.2857 12.3659 20.738 12.1403C21.1903 11.9146 21.7312 11.9641 22.1351 12.268C23.4848 13.2839 25.0302 13.998 26.6666 14.3698V11.6118C25.187 11.1701 23.8339 10.3666 22.7337 9.26633C21.6334 8.1661 20.8298 6.81296 20.3882 5.33335H17.3333Z" />
	</symbol>

	<symbol id="American" width="46" height="32" viewBox="0 0 46 32"
		 xmlns="http://www.w3.org/2000/svg">
		<path d="M0.0120136 15.1145H2.22007L2.71793 13.994H3.83255L4.32911 15.1145H8.67364V14.2579L9.06145 15.1183H11.3168L11.7046 14.2451V15.1146H22.5017L22.4966 13.2752H22.7055C22.8517 13.2799 22.8945 13.2925 22.8945 13.5179V15.1146H28.4787V14.6864C28.9292 14.9116 29.6298 15.1146 30.5515 15.1146H32.9008L33.4036 13.994H34.5182L35.0099 15.1146H39.537V14.0502L40.2227 15.1146H43.8505V8.07812H40.2601V8.90911L39.7575 8.07812H36.0734V8.90911L35.6117 8.07812H30.6355C29.8026 8.07812 29.0703 8.18662 28.4788 8.48896V8.07812H25.0448V8.48896C24.6684 8.17732 24.1555 8.07812 23.5852 8.07812H11.039L10.1972 9.89545L9.33268 8.07812H5.3811V8.90911L4.94693 8.07812H1.57684L0.0117188 11.4235V15.1144H0.0118957L0.0120136 15.1145ZM13.95 14.0996H12.6252L12.6203 10.1484L10.7464 14.0996H9.61174L7.73294 10.1449V14.0996H5.10445L4.60789 12.9743H1.91706L1.41549 14.0996H0.0118367L2.32605 9.05459H4.2462L6.44411 13.8312V9.05459H8.55339L10.2447 12.477L11.7983 9.05459H13.95L13.95 14.0996ZM4.16617 11.9272L3.28167 9.91602L2.40207 11.9272H4.16617ZM19.2223 14.0995H14.9052V9.05454H19.2223V10.1051H16.1976V11.0145H19.1498V12.0486H16.1975V13.0562H19.2223L19.2223 14.0995ZM25.3061 10.4133C25.3061 11.2176 24.7308 11.6332 24.3956 11.758C24.6783 11.8584 24.92 12.0359 25.0349 12.1828C25.2174 12.4338 25.2489 12.6579 25.2489 13.1085V14.0995H23.9453L23.9404 13.4633C23.9404 13.1598 23.9715 12.7232 23.7365 12.4805C23.5476 12.303 23.2598 12.2645 22.7945 12.2645H21.4072V14.0996H20.1148V9.05454H23.0872C23.7477 9.05454 24.2343 9.07079 24.6521 9.29617C25.061 9.52155 25.3061 9.85054 25.3061 10.4133ZM23.6726 11.1624C23.4949 11.263 23.285 11.2663 23.0332 11.2663H21.4634V10.1458H23.0546C23.2798 10.1458 23.5148 10.1552 23.6675 10.2367C23.8351 10.3103 23.9389 10.4667 23.9389 10.6827C23.9389 10.9033 23.8401 11.0807 23.6726 11.1624ZM27.3788 14.0995H26.0602V9.05454H27.3788V14.0995ZM42.6862 14.0995H40.8548L38.4053 10.313V14.0995H35.7734L35.2705 12.9742H32.586L32.0982 14.0995H30.5856C29.9576 14.0995 29.1621 13.9699 28.7118 13.5415C28.2577 13.1132 28.0214 12.533 28.0214 11.6155C28.0214 10.8673 28.1626 10.1833 28.718 9.64279C29.1358 9.24017 29.7901 9.05454 30.6806 9.05454H31.9318V10.1355H30.7068C30.2352 10.1355 29.9688 10.201 29.7124 10.4344C29.4921 10.6468 29.341 11.0484 29.341 11.5772C29.341 12.1176 29.456 12.5074 29.6962 12.762C29.8951 12.9616 30.2568 13.0221 30.5968 13.0221H31.1772L32.9986 9.05471H34.935L37.1231 13.8265V9.05476H39.0908L41.3625 12.5683V9.05476H42.6862V14.0995ZM34.8308 11.9273L33.9364 9.91607L33.047 11.9273H34.8308ZM45.9793 22.1555C45.6654 22.5838 45.0537 22.801 44.2256 22.801H41.7299V21.7189H44.2155C44.4621 21.7189 44.6346 21.6886 44.7385 21.5939C44.8367 21.5093 44.8921 21.3898 44.8913 21.2649C44.8913 21.1178 44.8285 21.0011 44.7334 20.9311C44.6396 20.8541 44.5032 20.8191 44.278 20.8191C43.0647 20.7806 41.5508 20.854 41.5508 19.2572C41.5508 18.5254 42.0487 17.7549 43.4049 17.7549H45.979V16.751H43.5872C42.8656 16.751 42.3412 16.9124 41.9699 17.163V16.7509H38.4323C37.8664 16.7509 37.2024 16.8818 36.8884 17.163V16.7509H30.5711V17.163C30.0684 16.8246 29.2201 16.7509 28.8284 16.7509H24.6615V17.163C24.2637 16.8036 23.3793 16.7509 22.84 16.7509H18.1765L17.1094 17.8287L16.1099 16.7509H9.14325V23.792H15.9784L17.078 22.6972L18.1139 23.792L22.3271 23.7955V22.1392H22.7412C23.3002 22.1472 23.9596 22.1261 24.5413 21.8915V23.7918H28.0165V21.9566H28.1841C28.3981 21.9566 28.4191 21.9649 28.4191 22.1642V23.7916H38.9761C39.6463 23.7916 40.3469 23.6315 40.735 23.341V23.7916H44.0836C44.7803 23.7916 45.4608 23.7004 45.9786 23.4671L45.9788 22.1553L45.9793 22.1555ZM25.0469 19.4471C25.0469 20.8489 23.9261 21.1383 22.7965 21.1383H21.184V22.8309H18.6722L17.0808 21.1603L15.4271 22.8309H10.308V17.7846H15.5057L17.0957 19.4387L18.7396 17.7846H22.8691C23.8946 17.7846 25.0469 18.0496 25.0469 19.4471ZM14.7724 21.7695H11.595V20.7655H14.4322V19.7359H11.595V18.8184H14.835L16.2485 20.289L14.7724 21.7695ZM19.892 22.3473L17.9078 20.2917L19.892 18.3015V22.3473ZM22.8264 20.1035H21.1563V18.8184H22.8413C23.3079 18.8184 23.6318 18.9959 23.6318 19.4371C23.6318 19.8736 23.3229 20.1035 22.8264 20.1035ZM31.5758 17.7846H35.8891V18.8282H32.8628V19.7457H35.8152V20.7752H32.8628V21.7792L35.889 21.7838V22.8309H31.5757L31.5758 17.7846ZM29.9175 20.4858C30.2052 20.5848 30.4403 20.7624 30.5505 20.9094C30.7331 21.1558 30.7594 21.3857 30.7647 21.8305V22.8309H29.4671V22.1995C29.4671 21.8959 29.4984 21.4464 29.2582 21.2118C29.0694 21.031 28.7815 20.9878 28.3102 20.9878H26.929V22.8309H25.6304V17.7847H28.6141C29.2683 17.7847 29.7448 17.8117 30.169 18.0228C30.5768 18.2528 30.8334 18.5677 30.8334 19.1434C30.8334 19.9488 30.2576 20.3598 29.9175 20.4858ZM29.1871 19.8478C29.0142 19.9436 28.8005 19.9518 28.5491 19.9518H26.9791V18.8185H28.5703C28.8005 18.8185 29.0308 18.8231 29.1871 18.9097C29.3546 18.9914 29.4547 19.1478 29.4547 19.3636C29.4547 19.5794 29.3545 19.7533 29.1871 19.8478ZM40.8534 20.1693C41.1052 20.4122 41.2399 20.719 41.2399 21.2384C41.2399 22.3239 40.5132 22.8306 39.2097 22.8306H36.6927V21.7486H39.1997C39.4449 21.7486 39.6187 21.7184 39.7275 21.6236C39.8165 21.5456 39.8802 21.4322 39.8802 21.2946C39.8802 21.1475 39.8112 21.0308 39.7225 20.9608C39.6237 20.8839 39.4874 20.8489 39.2623 20.8489C38.0537 20.8104 36.5402 20.8839 36.5402 19.2871C36.5402 18.5551 37.0329 17.7847 38.3879 17.7847H40.9787V18.8587H38.6081C38.3731 18.8587 38.2203 18.8671 38.0903 18.9499C37.9488 19.0316 37.8963 19.1529 37.8963 19.3128C37.8963 19.5032 38.0165 19.6327 38.1791 19.6888C38.3154 19.733 38.4619 19.7459 38.6819 19.7459L39.3776 19.7635C40.0791 19.7794 40.5607 19.8926 40.8534 20.1693ZM45.9815 18.8184H43.6262C43.3911 18.8184 43.2347 18.8267 43.1033 18.9096C42.9669 18.9913 42.9144 19.1125 42.9144 19.2727C42.9144 19.463 43.0295 19.5925 43.197 19.6485C43.3333 19.6928 43.4798 19.7057 43.695 19.7057L44.3955 19.7232C45.1022 19.7395 45.5739 19.8529 45.8616 20.1294C45.9141 20.1679 45.9454 20.2111 45.9815 20.2543V18.8184H45.9815Z" fill="currentColor"/>
	</symbol>

	<symbol id="Elo" viewBox="0 0 48 32" fill="currentColor"
		xmlns="http://www.w3.org/2000/svg">
		<path d="M10.5988 12.1154C11.02 11.9773 11.4706 11.9024 11.9395 11.9024C13.9856 11.9024 15.6923 13.3282 16.0839 15.2222L18.9834 14.6423C18.3181 11.4232 15.4175 9 11.9395 9C11.1431 9 10.3766 9.12726 9.66113 9.36168L10.5988 12.1154Z" />
		<path d="M7.14818 21.4445L8.88427 19.2029C8.10933 18.419 7.62022 17.2747 7.62022 15.9991C7.62022 14.7246 8.10887 13.5802 8.88359 12.797L7.14659 10.5556C5.8298 11.8873 5 13.8326 5 15.9991C5 18.1669 5.83102 20.1128 7.14818 21.4445" />
		<path d="M16.0848 16.7778C15.6919 18.6715 13.9862 20.0955 11.9419 20.0955C11.4729 20.0955 11.0214 20.0203 10.6002 19.8818L9.66113 22.637C10.3778 22.8726 11.1445 23 11.9419 23C15.4168 23 18.3154 20.5785 18.9834 17.3606L16.0848 16.7778Z" />
		<path fill-rule="evenodd" clip-rule="evenodd" d="M32.9337 10.5556V18.522L34.3633 19.095L33.687 20.6663L32.2733 20.098C31.9554 19.9647 31.7402 19.7616 31.5768 19.5322C31.4199 19.2976 31.3035 18.9768 31.3035 18.5439V10.5556H32.9337ZM22.0913 16.4765C22.1269 14.1983 24.067 12.3798 26.4211 12.4147C28.4192 12.445 30.0748 13.7983 30.5096 15.5983L22.7816 18.7923C22.3327 18.1286 22.0776 17.3303 22.0913 16.4765ZM23.8596 16.7959C23.8491 16.7003 23.8416 16.6023 23.8444 16.5034C23.8666 15.1612 25.0088 14.0902 26.3958 14.1124C27.1507 14.1221 27.8211 14.4565 28.2743 14.9739L23.8596 16.7959ZM28.1115 18.2749C27.6457 18.713 27.0141 18.9799 26.3167 18.9703C25.8387 18.9626 25.3958 18.8242 25.0192 18.5936L24.0857 20.032C24.725 20.4228 25.4789 20.6541 26.2916 20.6662C27.4747 20.6832 28.553 20.2339 29.337 19.4918L28.1115 18.2749ZM38.8836 14.1123C38.6051 14.1123 38.3375 14.1558 38.0874 14.237L37.5312 12.6251C37.9557 12.488 38.4104 12.4135 38.8836 12.4135C40.9483 12.4135 42.6708 13.8318 43.0658 15.7159L41.3438 16.0554C41.1118 14.9465 40.0984 14.1123 38.8836 14.1123ZM36.0562 19.6309L37.2198 18.3586C36.7001 17.9137 36.3729 17.264 36.3729 16.5398C36.3729 15.8163 36.7001 15.1668 37.2193 14.7223L36.0549 13.4499C35.1721 14.2059 34.616 15.3105 34.616 16.5398C34.616 17.7705 35.1726 18.8747 36.0562 19.6309ZM38.8835 18.9681C40.0973 18.9681 41.1105 18.1346 41.3438 17.0274L43.0653 17.3683C42.6684 19.2503 40.9464 20.6667 38.8835 20.6667C38.41 20.6667 37.9547 20.592 37.529 20.4543L38.0866 18.8429C38.337 18.9239 38.6048 18.9681 38.8835 18.9681Z" />
	</symbol>

	<symbol id="Diners" viewBox="0 0 48 32" fill="currentColor"
		xmlns="http://www.w3.org/2000/svg">
		<path fill-rule="evenodd" clip-rule="evenodd" d="M21.7657 27H25.7046C31.8531 27 36.7527 22.122 36.9448 16.0963V16.0007C36.8488 9.87932 31.8531 4.90571 25.7046 5.00136H21.2853C15.425 5.19265 10.8137 10.1663 11.0058 16.0963C11.0058 22.0264 15.8093 26.9044 21.7657 27ZM12.9272 16.0006C12.9272 11.027 17.0582 6.91424 22.0539 6.91424C27.0495 6.91424 31.1806 11.027 31.1806 16.0006C31.1806 20.9742 27.0495 25.087 22.0539 25.087C17.0582 25.087 12.9272 20.9742 12.9272 16.0006Z" />
		<path fill-rule="evenodd" clip-rule="evenodd" d="M23.4949 22.122V9.97491C26.8573 10.8357 28.9709 14.1834 28.1063 17.531C27.5298 19.8265 25.8006 21.5481 23.4949 22.122V22.122Z" />
		<path fill-rule="evenodd" clip-rule="evenodd" d="M20.6128 22.122C17.2504 21.2612 15.2329 17.8179 16.0975 14.4703C16.674 12.2704 18.4032 10.5488 20.6128 9.97491V22.122V22.122Z" />
	</symbol>

	<symbol id="Mastercard" viewBox="0 0 48 32" fill="currentColor" 
		xmlns="http://www.w3.org/2000/svg">
		<g clip-path="url(#clip0_3838_4580)">
			<path d="M4.7691 19.9562V18.6273C4.7691 18.1177 4.45894 17.7856 3.94985 17.7856C3.68247 17.7856 3.39637 17.8744 3.1969 18.1599C3.04182 17.9161 2.82257 17.7856 2.48835 17.7856C2.36408 17.7802 2.24042 17.8058 2.12844 17.8599C2.01645 17.914 1.91963 17.9951 1.84664 18.0958V17.8284H1.42578V19.9546H1.84664V18.738C1.84664 18.3637 2.06803 18.1845 2.37819 18.1845C2.68835 18.1845 2.86535 18.384 2.86535 18.738V19.9562H3.28621V18.738C3.28621 18.3637 3.5076 18.1845 3.81776 18.1845C4.12792 18.1845 4.30493 18.384 4.30493 18.738V19.9562H4.7691ZM11.6793 17.8519H10.9039V17.2102H10.4841V17.8519H10.0413V18.2262H10.4841V19.2252C10.4841 19.7123 10.6611 20.0006 11.1926 20.0006C11.394 19.9964 11.5913 19.9432 11.7675 19.8455L11.6343 19.4712C11.5149 19.5459 11.3763 19.5843 11.2354 19.5819C11.014 19.5819 10.9033 19.4487 10.9033 19.2273V18.2091H11.6787V17.8546L11.6793 17.8519ZM15.6215 17.7856C15.5069 17.7831 15.3935 17.8103 15.2926 17.8647C15.1916 17.919 15.1065 17.9987 15.0456 18.0958V17.8284H14.6247V19.9546H15.0456V18.7605C15.0456 18.4059 15.2226 18.1845 15.5108 18.1845C15.6081 18.1885 15.7046 18.2034 15.7985 18.2289L15.9317 17.83C15.8301 17.8044 15.7262 17.7895 15.6215 17.7856ZM9.66375 18.007C9.44236 17.8519 9.1322 17.7856 8.80012 17.7856C8.26856 17.7856 7.93648 18.0295 7.93648 18.4503C7.93648 18.8049 8.18033 19.0038 8.64503 19.0706L8.86643 19.0926C9.11028 19.1369 9.26536 19.2257 9.26536 19.3364C9.26536 19.4915 9.08835 19.6038 8.75573 19.6038C8.50175 19.609 8.253 19.5313 8.04717 19.3824L7.82578 19.7145C8.13594 19.9359 8.51241 19.9819 8.73487 19.9819C9.3552 19.9819 9.68728 19.6942 9.68728 19.2952C9.68728 18.9209 9.4199 18.7418 8.95626 18.6749L8.73487 18.653C8.53541 18.6311 8.36054 18.5642 8.36054 18.4316C8.36054 18.2765 8.53755 18.1642 8.7814 18.1642C9.04878 18.1642 9.31295 18.2749 9.4461 18.3412L9.66375 18.007ZM16.0867 18.8931C16.0867 19.5348 16.5076 20.0006 17.1942 20.0006C17.5044 20.0006 17.7258 19.9343 17.9472 19.7567L17.7258 19.4246C17.569 19.5516 17.374 19.6219 17.1723 19.6241C16.798 19.6241 16.5076 19.3364 16.5076 18.9156C16.5076 18.4947 16.7942 18.2091 17.1723 18.2091C17.374 18.2114 17.569 18.2817 17.7258 18.4086L17.9472 18.0765C17.7258 17.8995 17.5044 17.8327 17.1942 17.8327C16.5295 17.7883 16.0867 18.2535 16.0867 18.8958V18.8931ZM13.1188 17.7856C12.4985 17.7856 12.0777 18.2284 12.0777 18.8931C12.0777 19.5578 12.5204 20.0006 13.1627 20.0006C13.4751 20.0072 13.7802 19.9055 14.0263 19.7129L13.8049 19.4027C13.627 19.5406 13.4097 19.6182 13.1846 19.6241C12.8969 19.6241 12.5867 19.4471 12.5429 19.0706H14.1156V18.8936C14.1156 18.2289 13.7167 17.7861 13.1188 17.7861V17.7856ZM13.0969 18.1845C13.4071 18.1845 13.6285 18.384 13.6504 18.7161H12.499C12.5654 18.4059 12.7664 18.1845 13.0969 18.1845ZM7.36054 18.8931V17.83H6.93969V18.0974C6.78461 17.8979 6.56535 17.7872 6.25306 17.7872C5.65519 17.7872 5.21188 18.2525 5.21188 18.8947C5.21188 19.5369 5.65466 20.0022 6.25306 20.0022C6.56322 20.0022 6.78461 19.8915 6.93969 19.692V19.9594H7.36054V18.8931ZM5.65519 18.8931C5.65519 18.4942 5.89904 18.1845 6.3199 18.1845C6.71883 18.1845 6.96161 18.4947 6.96161 18.8931C6.96161 19.3139 6.69423 19.6016 6.3199 19.6016C5.89904 19.6236 5.65519 19.2915 5.65519 18.8931ZM22.0231 17.7856C21.9085 17.7831 21.7952 17.8103 21.6942 17.8647C21.5933 17.919 21.5081 17.9987 21.4472 18.0958V17.8284H21.0263V19.9546H21.4466V18.7605C21.4466 18.4059 21.6236 18.1845 21.9119 18.1845C22.0091 18.1885 22.1057 18.2034 22.1996 18.2289L22.3327 17.83C22.2312 17.8044 22.1272 17.7895 22.0226 17.7856H22.0231ZM20.3841 18.8931V17.83H19.9632V18.0974C19.8081 17.8979 19.5889 17.7872 19.2766 17.7872C18.6787 17.7872 18.2354 18.2525 18.2354 18.8947C18.2354 19.5369 18.6782 20.0022 19.2766 20.0022C19.5867 20.0022 19.8081 19.8915 19.9632 19.692V19.9594H20.3841V18.8931ZM18.6787 18.8931C18.6787 18.4942 18.9226 18.1845 19.3434 18.1845C19.7424 18.1845 19.9851 18.4947 19.9851 18.8931C19.9851 19.3139 19.7178 19.6016 19.3434 19.6016C18.9226 19.6236 18.6787 19.2915 18.6787 18.8931ZM24.6589 18.8931V16.9883H24.2381V18.0958C24.083 17.8963 23.8638 17.7856 23.5515 17.7856C22.9536 17.7856 22.5103 18.2508 22.5103 18.8931C22.5103 19.5353 22.9531 20.0006 23.5515 20.0006C23.8616 20.0006 24.083 19.8899 24.2381 19.6904V19.9578H24.6589V18.8931ZM22.9536 18.8931C22.9536 18.4942 23.1974 18.1845 23.6183 18.1845C24.0172 18.1845 24.26 18.4947 24.26 18.8931C24.26 19.3139 23.9926 19.6016 23.6183 19.6016C23.1969 19.6241 22.9531 19.292 22.9531 18.8931H22.9536Z" fill="white"/>
			<path d="M9.95307 7.97327C9.95334 6.76731 10.2264 5.57704 10.7519 4.49159C11.2773 3.40613 12.0416 2.45361 12.9873 1.70535C11.8111 0.780601 10.3985 0.205442 8.91089 0.045623C7.42328 -0.114196 5.92071 0.147775 4.57496 0.801588C3.2292 1.4554 2.09456 2.47468 1.30073 3.74289C0.50691 5.01111 0.0859375 6.47709 0.0859375 7.97327C0.0859375 9.46944 0.50691 10.9354 1.30073 12.2036C2.09456 13.4719 3.2292 14.4911 4.57496 15.1449C5.92071 15.7988 7.42328 16.0607 8.91089 15.9009C10.3985 15.7411 11.8111 15.1659 12.9873 14.2412C12.0416 13.4929 11.2773 12.5404 10.7519 11.4549C10.2264 10.3695 9.95334 9.17922 9.95307 7.97327Z" fill="white"/>
			<path d="M25.8994 7.97492C25.9005 9.47001 25.4808 10.9352 24.6883 12.203C23.8957 13.4707 22.7624 14.4898 21.4179 15.1437C20.0734 15.7976 18.572 16.0599 17.0854 15.9006C15.5989 15.7413 14.1871 15.1668 13.0117 14.2428C13.9577 13.4948 14.7221 12.5423 15.2476 11.4568C15.7731 10.3713 16.046 9.18093 16.046 7.97492C16.046 6.76892 15.7731 5.57855 15.2476 4.49305C14.7221 3.40755 13.9577 2.45507 13.0117 1.70701C14.1871 0.783057 15.5989 0.208573 17.0854 0.0492603C18.572 -0.110052 20.0734 0.15224 21.4179 0.806139C22.7624 1.46004 23.8957 2.47914 24.6883 3.74689C25.4808 5.01463 25.9005 6.47984 25.8994 7.97492Z" fill="white" fill-opacity="0.4"/>
			<path fill-rule="evenodd" clip-rule="evenodd" d="M13.0125 1.70703H12.9873C12.0416 2.45529 11.2774 3.4078 10.7519 4.49326C10.2265 5.57872 9.95339 6.76899 9.95312 7.97494C9.95339 9.1809 10.2265 10.3712 10.7519 11.4566C11.2774 12.5421 12.0416 13.4946 12.9874 14.2429H13.0125C13.0125 14.2429 13.0125 14.2429 13.0125 14.2429C13.9585 13.4948 14.7228 12.5423 15.2483 11.4568C15.7738 10.3713 16.0468 9.18095 16.0468 7.97494C16.0468 6.76893 15.7738 5.57857 15.2483 4.49306C14.7228 3.40757 13.9585 2.45509 13.0125 1.70703Z" fill="white" fill-opacity="0.6"/>
		</g>
		<defs>
			<clipPath id="clip0_3838_4580">
				<rect width="25.8027" height="20" fill="currentColor" transform="translate(0.0976562)"/>
			</clipPath>
		</defs>
	</symbol>
		
	<symbol  id="PagaLeve" viewBox="0 0 46 32" fill="currentColor" 
    	xmlns="http://www.w3.org/2000/svg">
		<path d="M28.6169 12.5078C27.0165 12.8269 25.391 13.0035 23.7594 13.0355L24.7496 14.2979C25.0184 14.6387 25.1646 15.06 25.1646 15.4941C25.1646 15.9281 25.0184 16.3496 24.7496 16.6902L23.0195 18.8985C24.8885 18.8932 26.7542 18.7453 28.6007 18.4561L26.2741 15.4927L28.6169 12.5078Z" fill="currentColor"/>
		<path d="M22.2594 19.8545L22.6655 19.3416C22.7201 19.3419 22.7748 19.342 22.8294 19.342H23.0172L23.0185 19.342C24.9098 19.3366 26.7978 19.187 28.6664 18.8944C28.7481 18.8816 28.8298 18.8684 28.9114 18.8547L29.95 20.1751C30.418 20.7861 30.6264 21.557 30.53 22.3205C30.4337 23.0842 30.0403 23.779 29.4353 24.2545C28.8302 24.73 28.0623 24.9477 27.2978 24.8606C26.5333 24.7735 25.834 24.3884 25.3513 23.789L23.0385 20.8449L20.7297 23.7822C20.474 24.1104 20.1561 24.3848 19.7941 24.5898C19.4321 24.7947 19.0333 24.9262 18.6204 24.9765C18.2076 25.027 17.7888 24.9953 17.3882 24.8835C16.9876 24.7716 16.613 24.5817 16.2859 24.3247C15.9589 24.0677 15.6857 23.7486 15.4822 23.3857C15.2787 23.0229 15.1488 22.6235 15.1 22.2103C15.0511 21.7971 15.0844 21.3783 15.1977 20.978C15.311 20.5777 15.5023 20.2037 15.7604 19.8775L16.902 18.4258C17.3582 18.5025 17.8244 18.5696 18.3005 18.6274L16.7234 20.6366C16.4174 21.0411 16.2823 21.5497 16.3473 22.053C16.4123 22.5561 16.6722 23.0137 17.071 23.3272C17.4698 23.6407 17.9757 23.785 18.4799 23.7292C18.984 23.6733 19.4461 23.4218 19.7667 23.0286L22.2594 19.8545Z" fill="currentColor"/>
		<path fill-rule="evenodd" clip-rule="evenodd" d="M16.3271 9.35828C16.3656 9.71899 16.5046 10.0616 16.7282 10.3472L18.6394 12.7758C18.0037 12.6906 17.3977 12.5837 16.831 12.4565L15.7652 11.1035C15.2513 10.444 15.0197 9.60771 15.1209 8.7777C15.2222 7.9477 15.6481 7.19166 16.3055 6.67514C16.9628 6.15861 17.798 5.92371 18.6281 6.02186C19.4582 6.12002 20.2156 6.54323 20.7344 7.19883L23.0432 10.1389L25.3561 7.19612C25.8352 6.58611 26.5369 6.19145 27.3069 6.09896C28.0768 6.00647 28.852 6.22374 29.4618 6.70296C30.0716 7.18219 30.4662 7.8841 30.5586 8.65431C30.6511 9.42452 30.4338 10.1999 29.9548 10.8099L29.0533 11.9554C28.8846 11.9965 28.7116 12.0357 28.5346 12.0727C26.961 12.3863 25.3574 12.5599 23.7529 12.5914L23.7487 12.5915C23.6383 12.5947 23.528 12.5974 23.4176 12.5994L19.7715 7.9565C19.6151 7.75607 19.4205 7.58864 19.199 7.46394C18.9776 7.33922 18.7335 7.25969 18.4811 7.22994C18.4035 7.22032 18.3254 7.21535 18.2471 7.21507C17.8845 7.21617 17.5294 7.31909 17.2224 7.51212C16.9154 7.70515 16.6687 7.98052 16.5104 8.30691C16.3521 8.63329 16.2886 8.99757 16.3271 9.35828Z" fill="currentColor"/>
		<path d="M14.3532 17.2368L14.3611 17.2391C15.3922 17.5352 15.9618 17.653 17.0062 17.8372C17.3487 17.8941 17.6977 17.9462 18.0532 17.9933L18.3764 18.0319C19.855 18.2085 21.3426 18.2973 22.8317 18.298C22.8318 18.298 22.8319 18.298 22.832 18.298H23.0187C24.8566 18.2927 26.6912 18.1474 28.507 17.863C29.4501 17.7153 30.3831 17.5085 31.3003 17.244C31.5921 17.1576 31.8641 17.0145 32.1009 16.823L14.3532 17.2368ZM14.3532 17.2368L14.3452 17.2348M14.3532 17.2368L14.3452 17.2348M14.3452 17.2348C14.0428 17.1568 13.7592 17.0189 13.5114 16.829L13.5114 16.829M14.3452 17.2348L13.5114 16.829M32.8673 14.3571L32.8673 14.3569C32.6929 13.7668 32.2916 13.2702 31.7516 12.976C31.2114 12.6818 30.5767 12.6141 29.9868 12.7876L29.986 12.7879C29.5953 12.9022 29.1797 13.006 28.7446 13.097L28.7391 13.0982L28.7391 13.0982C27.1049 13.424 25.44 13.6043 23.7743 13.6372C22.0322 13.6878 20.2887 13.6007 18.5602 13.3765L18.5576 13.3762L18.5576 13.3762C17.9082 13.2891 17.2863 13.1796 16.7021 13.0487L16.493 13.0018L16.4908 12.999C16.2146 12.9336 15.9455 12.8636 15.6868 12.7876L15.6757 12.7843L15.6647 12.7806C15.3688 12.6811 15.0559 12.6422 14.7447 12.6664C14.4334 12.6905 14.1302 12.7771 13.8532 12.9211M32.8673 14.3571L13.8532 12.9211M32.8673 14.3571C32.9539 14.6498 32.982 14.9567 32.9501 15.2603C32.918 15.5638 32.8266 15.8581 32.6809 16.1261C32.5352 16.3943 32.3381 16.6311 32.101 16.8229L32.8673 14.3571ZM13.8532 12.9211C13.5761 13.0651 13.331 13.2634 13.1323 13.5043L13.1322 13.5044C12.9336 13.7451 12.7854 14.0237 12.6966 14.3231L13.8532 12.9211ZM13.5114 16.829C13.2635 16.639 13.0565 16.4011 12.9027 16.1294C12.7488 15.8576 12.6512 15.5576 12.6158 15.2473L13.5114 16.829ZM12.6158 15.2473C12.5804 14.9369 12.6079 14.6226 12.6966 14.3232L12.6158 15.2473Z" stroke="currentColor" stroke-width="1.20166"/>
		<path d="M17.7607 14.0742C18.3415 14.152 18.8608 14.2268 19.4641 14.2774L19.5837 14.4406C19.7855 14.7152 19.8955 15.0545 19.8955 15.4042C19.8955 15.5507 19.8764 15.6955 19.8392 15.8344C19.8046 15.9626 19.7547 16.086 19.6906 16.2012C19.6586 16.2589 19.6231 16.3147 19.5837 16.368L18.9158 17.2786C18.3822 17.2235 17.9864 17.1734 17.4922 17.1007L18.6222 15.5596C18.6438 15.5306 18.659 15.4973 18.6668 15.4617C18.6707 15.4429 18.6728 15.4236 18.6728 15.4042C18.6728 15.3586 18.6611 15.314 18.6391 15.2753L18.6222 15.2488L17.7607 14.0742Z" fill="currentColor"/>
	</symbol>

	<symbol id="Pix" viewBox="0 0 49 32" fill="none"
		xmlns="http://www.w3.org/2000/svg">
		<path d="M20.3406 22.0724V14.0428C20.3406 13.3334 20.6224 12.6531 21.124 12.1515C21.6256 11.6498 22.3059 11.368 23.0153 11.368L25.3859 11.3713C26.0934 11.3728 26.7715 11.6549 27.2712 12.1557C27.771 12.6566 28.0516 13.3353 28.0515 14.0428V15.7516C28.0515 16.461 27.7697 17.1414 27.2681 17.6431C26.7665 18.1447 26.0862 18.4266 25.3768 18.4267H22.0262" stroke="currentColor" stroke-linecap="round" stroke-linejoin="round" />
			<path d="M28.7141 11.3676H29.7425C30.0337 11.3676 30.3129 11.4833 30.5188 11.6892C30.7247 11.8951 30.8404 12.1743 30.8404 12.4655V18.4631" stroke="currentColor" stroke-linecap="round" stroke-linejoin="round" />
			<path d="M30.6194 10.4384L30.1532 9.97175C30.1257 9.94427 30.1038 9.91163 30.089 9.87571C30.0741 9.83978 30.0664 9.80128 30.0664 9.76239C30.0664 9.72351 30.0741 9.685 30.089 9.64908C30.1038 9.61316 30.1257 9.58052 30.1532 9.55303L30.6194 9.08678C30.6751 9.03117 30.7505 8.99994 30.8292 8.99994C30.9079 8.99994 30.9833 9.03117 31.039 9.08678L31.5048 9.55303C31.5323 9.58052 31.5541 9.61316 31.569 9.64908C31.5839 9.685 31.5916 9.72351 31.5916 9.76239C31.5916 9.80128 31.5839 9.83978 31.569 9.87571C31.5541 9.91163 31.5323 9.94427 31.5048 9.97175L31.0369 10.4384C31.0094 10.4659 30.9767 10.4878 30.9408 10.5027C30.9048 10.5176 30.8663 10.5252 30.8273 10.5252C30.7884 10.5252 30.7499 10.5176 30.7139 10.5027C30.678 10.4878 30.6453 10.4659 30.6178 10.4384" fill="currentColor" />
			<path d="M32.8145 11.3622H33.8342C34.3587 11.362 34.8619 11.5702 35.2329 11.9409L37.6183 14.3263C37.6918 14.3999 37.779 14.4582 37.875 14.498C37.971 14.5378 38.0739 14.5583 38.1778 14.5583C38.2817 14.5583 38.3846 14.5378 38.4806 14.498C38.5766 14.4582 38.6638 14.3999 38.7373 14.3263L41.114 11.95C41.2976 11.7664 41.5157 11.6208 41.7556 11.5215C41.9955 11.4222 42.2527 11.3712 42.5124 11.3713H43.3415" stroke="currentColor" stroke-linecap="round" stroke-linejoin="round" />
		<path d="M32.8145 18.4107H33.8342C34.3587 18.4108 34.8618 18.2027 35.2329 17.832L37.6183 15.4466C37.7668 15.2983 37.968 15.215 38.1778 15.215C38.3876 15.215 38.5888 15.2983 38.7373 15.4466L41.114 17.8233C41.485 18.194 41.9879 18.4021 42.5124 18.402H43.3415" stroke="currentColor" stroke-linecap="round" stroke-linejoin="round" />
		<path d="M14.2607 19.9342C14.0091 19.9352 13.7598 19.8862 13.5272 19.7902C13.2947 19.6942 13.0834 19.5531 12.9057 19.375L10.9485 17.4166C10.8793 17.3504 10.7872 17.3134 10.6914 17.3134C10.5957 17.3134 10.5036 17.3504 10.4343 17.4166L8.47054 19.3804C8.29294 19.5587 8.08176 19.7001 7.8492 19.7964C7.61663 19.8927 7.3673 19.9419 7.11559 19.9413H6.73242L9.21249 22.4213C9.58445 22.7925 10.0885 23.001 10.6139 23.001C11.1394 23.001 11.6434 22.7925 12.0154 22.4213L14.5004 19.9359L14.2607 19.9342Z" fill="currentColor" />
			<path d="M7.11601 13.0132C7.36771 13.0125 7.61706 13.0617 7.84962 13.158C8.08219 13.2543 8.29337 13.3957 8.47095 13.5741L10.4348 15.5383C10.503 15.6064 10.5955 15.6446 10.6919 15.6446C10.7882 15.6446 10.8807 15.6064 10.949 15.5383L12.9057 13.5815C13.0832 13.4029 13.2943 13.2613 13.5269 13.165C13.7595 13.0686 14.0089 13.0194 14.2607 13.0202H14.4963L12.0113 10.5352C11.8272 10.3511 11.6088 10.2051 11.3683 10.1054C11.1278 10.0058 10.8701 9.95453 10.6098 9.95453C10.3495 9.95453 10.0918 10.0058 9.85132 10.1054C9.61085 10.2051 9.39238 10.3511 9.20836 10.5352L6.73242 13.0132H7.11601Z" fill="currentColor" />
			<path d="M16.5517 15.0762L15.05 13.5745C15.0162 13.5883 14.98 13.5956 14.9434 13.596H14.2605C13.9052 13.5969 13.5646 13.738 13.3127 13.9887L11.356 15.9442C11.1797 16.1201 10.9409 16.2189 10.6919 16.2189C10.4429 16.2189 10.2041 16.1201 10.0279 15.9442L8.06367 13.9812C7.81189 13.7304 7.47127 13.5891 7.11587 13.5881H6.27761C6.24306 13.5873 6.20892 13.5805 6.17675 13.5679L4.66556 15.0762C4.29439 15.4481 4.08594 15.9521 4.08594 16.4776C4.08594 17.0031 4.29439 17.5071 4.66556 17.8791L6.17345 19.3869C6.20555 19.3741 6.23973 19.3672 6.2743 19.3667H7.11587C7.47126 19.3656 7.81187 19.2244 8.06367 18.9736L10.0275 17.0098C10.3825 16.6551 11.0013 16.6551 11.356 17.0098L13.3127 18.9662C13.5646 19.2168 13.9052 19.3579 14.2605 19.3588H14.9434C14.98 19.3591 15.0162 19.3664 15.05 19.3803L16.5517 17.8786C16.7358 17.6946 16.8818 17.4762 16.9815 17.2357C17.0811 16.9952 17.1324 16.7375 17.1324 16.4772C17.1324 16.2169 17.0811 15.9592 16.9815 15.7187C16.8818 15.4783 16.7358 15.2602 16.5517 15.0762Z" fill="currentColor" />
	</symbol>

	<symbol id="Visa" viewBox="0 0 49 32" fill="currentColor"
		xmlns="http://www.w3.org/2000/svg">
		<path fill-rule="evenodd" clip-rule="evenodd" d="M15.2187 21.9066H12.0577L9.68724 12.5973C9.57473 12.1691 9.33584 11.7905 8.98444 11.6121C8.10747 11.1637 7.14112 10.8068 6.08691 10.6268V10.2684H11.1792C11.882 10.2684 12.4091 10.8068 12.4969 11.4321L13.7268 18.1472L16.8863 10.2684H19.9596L15.2187 21.9066Z" />
		<path fill-rule="evenodd" clip-rule="evenodd" d="M21.7166 21.9066H18.7312L21.1895 10.2684H24.1748L21.7166 21.9066Z" />
		<path fill-rule="evenodd" clip-rule="evenodd" d="M28.0374 13.4925C28.1252 12.8657 28.6523 12.5073 29.2673 12.5073C30.2336 12.4173 31.2863 12.5973 32.1648 13.0441L32.6919 10.5384C31.8134 10.18 30.8471 10 29.9701 10C27.0726 10 24.9642 11.6121 24.9642 13.8494C24.9642 15.5514 26.4576 16.4451 27.5118 16.9835C28.6523 17.5203 29.0916 17.8787 29.0037 18.4156C29.0037 19.2208 28.1252 19.5792 27.2483 19.5792C26.1941 19.5792 25.1399 19.3108 24.1751 18.8624L23.6479 21.3697C24.7022 21.8166 25.8427 21.9965 26.8969 21.9965C30.1458 22.085 32.1648 20.4745 32.1648 18.0572C32.1648 15.013 28.0374 14.8346 28.0374 13.4925V13.4925Z" />
		<path fill-rule="evenodd" clip-rule="evenodd" d="M40.2424 10.2684L42.6128 21.9066H39.891L39.5396 20.2061H35.7635L35.1501 21.9066H32.0769L36.4663 11.1637C36.642 10.6268 37.1691 10.2684 37.6962 10.2684H40.2424ZM39.0122 17.7887L38.1353 13.4025L36.554 17.7887H39.0122Z" />
	</symbol>
	<symbol id="ArrowUp" viewBox="0 0 28 28" fill="none"
		xmlns="http://www.w3.org/2000/svg">
		<g id="Frame" clip-path="url(#clip0_1128_8653)">
			<path id="Vector" d="M10.4985 23.3345V14.0011H6.31486C6.08415 14.0011 5.85863 13.9326 5.66682 13.8044C5.47501 13.6762 5.32551 13.494 5.23723 13.2809C5.14895 13.0677 5.12585 12.8332 5.17084 12.6069C5.21584 12.3806 5.32691 12.1728 5.49002 12.0096L13.1737 4.32596C13.3925 4.10724 13.6892 3.98438 13.9985 3.98438C14.3079 3.98438 14.6046 4.10724 14.8234 4.32596L22.507 12.0096C22.6701 12.1728 22.7812 12.3806 22.8262 12.6069C22.8712 12.8332 22.8481 13.0677 22.7598 13.2809C22.6715 13.494 22.522 13.6762 22.3302 13.8044C22.1384 13.9326 21.9129 14.0011 21.6822 14.0011H17.4985V23.3345C17.4985 23.6439 17.3756 23.9406 17.1568 24.1594C16.938 24.3782 16.6413 24.5011 16.3319 24.5011H11.6652C11.3558 24.5011 11.059 24.3782 10.8402 24.1594C10.6214 23.9406 10.4985 23.6439 10.4985 23.3345Z" stroke="#0070F7" stroke-width="1.75" stroke-linecap="round" stroke-linejoin="round" />
		</g>
		<defs>
			<clipPath id="clip0_1128_8653">
				<rect width="28" height="28" fill="white" />
			</clipPath>
		</defs>
	</symbol>


	<symbol id="Cloud" viewBox="0 0 28 28" fill="none"
		xmlns="http://www.w3.org/2000/svg">
		<g id="Frame" clip-path="url(#clip0_1128_8648)">
			<path id="Vector" d="M7.7652 21.0025C4.76453 21.0025 2.33203 18.661 2.33203 15.7723C2.33203 12.8848 4.76453 10.5433 7.7652 10.5433C8.2237 8.48764 9.8582 6.80997 12.0527 6.14147C14.246 5.47414 16.668 5.9163 18.404 7.30814C20.14 8.69647 20.9264 10.8163 20.469 12.872H21.624C23.8559 12.872 25.6654 14.692 25.6654 16.939C25.6654 19.1871 23.8559 21.0071 21.6229 21.0071H7.7652" stroke="#0070F7" stroke-width="1.75" stroke-linecap="round" stroke-linejoin="round" />
			<path id="Vector (Stroke)" d="M7.7652 21.8785C7.73219 21.8785 7.69961 21.8766 7.66755 21.8731C4.25931 21.8227 1.45703 19.1395 1.45703 15.7686C1.45703 12.5901 3.95022 10.0226 7.09326 9.69905C7.18031 9.44199 7.28351 9.19159 7.40175 8.9489C8.24238 7.22346 9.8358 5.89843 11.7977 5.30078V21.8785H7.7652Z" fill="#0070F7" />
			<path id="Vector (Stroke)_2" d="M11.1209 7.8302C12.3056 7.12236 13.7711 6.85975 15.1884 7.11745C16.6052 7.37504 17.8176 8.1231 18.5805 9.15723C19.3389 10.1855 19.6002 11.4202 19.3358 12.598C19.2588 12.9412 19.3419 13.3007 19.5616 13.5753C19.7814 13.8499 20.1141 14.0097 20.4658 14.0097H21.621C22.3862 14.0097 23.1201 14.3137 23.6611 14.8548C24.2022 15.3959 24.5062 16.1297 24.5062 16.8949C24.5062 17.6601 24.2022 18.394 23.6611 18.9351C23.1201 19.4762 22.3862 19.7801 21.621 19.7801H7.75827C6.60783 19.7801 5.51428 19.3425 4.71577 18.5787C3.91904 17.8167 3.48154 16.7943 3.48154 15.7397C3.48154 14.6851 3.91904 13.6628 4.71577 12.9007C5.51428 12.1369 6.60783 11.6993 7.75827 11.6993C8.30014 11.6993 8.76956 11.3235 8.88824 10.7948C9.15362 9.61254 9.93896 8.53636 11.1209 7.8302ZM15.6028 4.83863C13.6499 4.48356 11.6128 4.8382 9.93288 5.84189C8.51341 6.68999 7.43288 7.95353 6.88003 9.43973C5.4692 9.62252 4.14358 10.2428 3.11478 11.2269C1.87308 12.4146 1.16536 14.0368 1.16536 15.7397C1.16536 17.4426 1.87308 19.0648 3.11478 20.2525C4.35474 21.4386 6.02594 22.0963 7.75827 22.0963H21.621C23.0005 22.0963 24.3235 21.5483 25.2989 20.5729C26.2744 19.5974 26.8224 18.2744 26.8224 16.8949C26.8224 15.5154 26.2744 14.1925 25.2989 13.217C24.3545 12.2725 23.0842 11.7288 21.7523 11.6952C21.752 10.3045 21.2987 8.94049 20.4444 7.78233C19.3055 6.23829 17.5561 5.19379 15.6028 4.83863Z" fill="#0070F7" stroke="white" stroke-width="0.583333" stroke-linecap="round" stroke-linejoin="round" />
		</g>
		<defs>
			<clipPath id="clip0_1128_8648">
				<rect width="28" height="28" fill="white" />
			</clipPath>
		</defs>
	</symbol>

	<symbol id="Check"
		xmlns="http://www.w3.org/2000/svg" class="icon icon-tabler icon-tabler-check" width="24" height="24" viewBox="0 0 24 24" stroke-width="1.5" stroke="currentColor" fill="none" stroke-linecap="round" stroke-linejoin="round">
		<path stroke="none" d="M0 0h24v24H0z" fill="none" />
		<path d="M5 12l5 5l10 -10" />
	</symbol>

	<symbol id="MagnifyingGlassFound" viewBox="0 0 50 49" fill="none"
		xmlns="http://www.w3.org/2000/svg">
		<path fill-rule="evenodd" clip-rule="evenodd" d="M20.9154 8.16732C14.1499 8.16732 8.66536 13.6518 8.66536 20.4173C8.66536 27.1828 14.1499 32.6673 20.9154 32.6673C27.6809 32.6673 33.1654 27.1828 33.1654 20.4173C33.1654 13.6518 27.6809 8.16732 20.9154 8.16732ZM4.58203 20.4173C4.58203 11.3967 11.8947 4.08398 20.9154 4.08398C29.936 4.08398 37.2487 11.3967 37.2487 20.4173C37.2487 24.1918 35.9684 27.6672 33.8184 30.433L44.8174 41.432C45.6147 42.2293 45.6147 43.522 44.8174 44.3193C44.0201 45.1166 42.7273 45.1166 41.93 44.3193L30.9311 33.3204C28.1652 35.4704 24.6898 36.7506 20.9154 36.7506C11.8947 36.7506 4.58203 29.438 4.58203 20.4173ZM20.9154 12.2507C22.0429 12.2507 22.957 13.1647 22.957 14.2923V20.4173C22.957 21.5449 22.0429 22.459 20.9154 22.459C19.7878 22.459 18.8737 21.5449 18.8737 20.4173V14.2923C18.8737 13.1647 19.7878 12.2507 20.9154 12.2507ZM20.9154 24.5006C22.0429 24.5006 22.957 25.4147 22.957 26.5423V26.5627C22.957 27.6903 22.0429 28.6044 20.9154 28.6044C19.7878 28.6044 18.8737 27.6903 18.8737 26.5627V26.5423C18.8737 25.4147 19.7878 24.5006 20.9154 24.5006Z" fill="black" />
	</symbol>


</svg>

	